<ttFont>
<head>
    <!-- Most of this table will be recalculated by the compiler -->
    <tableVersion value="1.0"/>
    <fontRevision value="1.002"/>
    <checkSumAdjustment value="0x6e725782"/>
    <magicNumber value="0x5f0f3cf5"/>
    <flags value="00000000 00001111"/>
    <unitsPerEm value="1000"/>
    <created value="Sun Jun 13 15:20:27 2021"/>
    <modified value="Mon Jun 14 15:25:28 2021"/>
    <xMin value="-136"/>
    <yMin value="-265"/>
    <xMax value="1179"/>
    <yMax value="1207"/>
    <macStyle value="00000000 00000000"/>
    <lowestRecPPEM value="6"/>
    <fontDirectionHint value="2"/>
    <indexToLocFormat value="0"/>
    <glyphDataFormat value="0"/>
  </head>
    <TTGlyph name=".notdef" xMin="50" yMin="-265" xMax="450" yMax="1000">
      <contour>
        <pt x="50" y="-265" on="1"/>
        <pt x="50" y="1000" on="1"/>
        <pt x="450" y="1000" on="1"/>
        <pt x="450" y="-265" on="1"/>
      </contour>
      <contour>
        <pt x="100" y="-215" on="1"/>
        <pt x="400" y="-215" on="1"/>
        <pt x="400" y="950" on="1"/>
        <pt x="100" y="950" on="1"/>
      </contour>
    </TTGlyph>
    <TTGlyph name="A" xMin="40" yMin="0" xMax="707" yMax="740">
      <contour>
        <pt x="40" y="0" on="1"/>
        <pt x="298" y="740" on="1"/>
        <pt x="448" y="740" on="1"/>
        <pt x="707" y="0" on="1"/>
        <pt x="584" y="0" on="1"/>
        <pt x="527" y="166" on="1"/>
        <pt x="220" y="166" on="1"/>
        <pt x="163" y="0" on="1"/>
      </contour>
      <contour>
        <pt x="255" y="270" on="1"/>
        <pt x="492" y="270" on="1"/>
        <pt x="374" y="615" on="1"/>
      </contour>
    </TTGlyph>
    <TTGlyph name="AE" xMin="40" yMin="0" xMax="964" yMax="740">
      <contour>
        <pt x="40" y="0" on="1"/>
        <pt x="406" y="740" on="1"/>
        <pt x="959" y="740" on="1"/>
        <pt x="959" y="638" on="1"/>
        <pt x="593" y="638" on="1"/>
        <pt x="593" y="427" on="1"/>
        <pt x="913" y="427" on="1"/>
        <pt x="913" y="326" on="1"/>
        <pt x="593" y="326" on="1"/>
        <pt x="593" y="102" on="1"/>
        <pt x="964" y="102" on="1"/>
        <pt x="964" y="0" on="1"/>
        <pt x="476" y="0" on="1"/>
        <pt x="476" y="166" on="1"/>
        <pt x="246" y="166" on="1"/>
        <pt x="163" y="0" on="1"/>
      </contour>
      <contour>
        <pt x="297" y="269" on="1"/>
        <pt x="476" y="269" on="1"/>
        <pt x="476" y="628" on="1"/>
      </contour>
    </TTGlyph>
    <TTGlyph name="Aacute" xMin="40" yMin="0" xMax="707" yMax="999">
      <contour>
        <pt x="419" y="818" on="1"/>
        <pt x="328" y="819" on="1"/>
        <pt x="412" y="999" on="1"/>
        <pt x="524" y="999" on="1"/>
      </contour>
      <contour>
        <pt x="40" y="0" on="1"/>
        <pt x="298" y="740" on="1"/>
        <pt x="448" y="740" on="1"/>
        <pt x="707" y="0" on="1"/>
        <pt x="584" y="0" on="1"/>
        <pt x="526" y="166" on="1"/>
        <pt x="221" y="166" on="1"/>
        <pt x="163" y="0" on="1"/>
      </contour>
      <contour>
        <pt x="255" y="270" on="1"/>
        <pt x="492" y="270" on="1"/>
        <pt x="374" y="615" on="1"/>
      </contour>
    </TTGlyph>
    <TTGlyph name="Abreve" xMin="40" yMin="0" xMax="707" yMax="959">
      <contour>
        <pt x="374" y="812" on="1"/>
        <pt x="324" y="812" on="0"/>
        <pt x="261" y="842" on="0"/>
        <pt x="226" y="886" on="0"/>
        <pt x="210" y="930" on="0"/>
        <pt x="207" y="959" on="0"/>
        <pt x="207" y="959" on="1"/>
        <pt x="287" y="959" on="1"/>
        <pt x="287" y="959" on="0"/>
        <pt x="292" y="936" on="0"/>
        <pt x="308" y="906" on="0"/>
        <pt x="343" y="883" on="0"/>
        <pt x="374" y="883" on="1"/>
        <pt x="404" y="883" on="0"/>
        <pt x="439" y="906" on="0"/>
        <pt x="456" y="936" on="0"/>
        <pt x="460" y="959" on="0"/>
        <pt x="460" y="959" on="1"/>
        <pt x="540" y="959" on="1"/>
        <pt x="540" y="959" on="0"/>
        <pt x="537" y="930" on="0"/>
        <pt x="522" y="886" on="0"/>
        <pt x="486" y="842" on="0"/>
        <pt x="423" y="812" on="0"/>
      </contour>
      <contour>
        <pt x="40" y="0" on="1"/>
        <pt x="298" y="740" on="1"/>
        <pt x="448" y="740" on="1"/>
        <pt x="707" y="0" on="1"/>
        <pt x="584" y="0" on="1"/>
        <pt x="526" y="166" on="1"/>
        <pt x="221" y="166" on="1"/>
        <pt x="163" y="0" on="1"/>
      </contour>
      <contour>
        <pt x="255" y="270" on="1"/>
        <pt x="492" y="270" on="1"/>
        <pt x="374" y="615" on="1"/>
      </contour>
    </TTGlyph>
    <TTGlyph name="Acircumflex" xMin="40" yMin="0" xMax="707" yMax="962">
      <contour>
        <pt x="203" y="813" on="1"/>
        <pt x="327" y="962" on="1"/>
        <pt x="421" y="962" on="1"/>
        <pt x="545" y="813" on="1"/>
        <pt x="448" y="813" on="1"/>
        <pt x="374" y="902" on="1"/>
        <pt x="300" y="813" on="1"/>
      </contour>
      <contour>
        <pt x="40" y="0" on="1"/>
        <pt x="298" y="740" on="1"/>
        <pt x="448" y="740" on="1"/>
        <pt x="707" y="0" on="1"/>
        <pt x="584" y="0" on="1"/>
        <pt x="526" y="166" on="1"/>
        <pt x="221" y="166" on="1"/>
        <pt x="163" y="0" on="1"/>
      </contour>
      <contour>
        <pt x="255" y="270" on="1"/>
        <pt x="492" y="270" on="1"/>
        <pt x="374" y="615" on="1"/>
      </contour>
    </TTGlyph>
    <TTGlyph name="Adieresis" xMin="40" yMin="0" xMax="707" yMax="952">
      <contour>
        <pt x="474" y="814" on="1"/>
        <pt x="444" y="814" on="0"/>
        <pt x="405" y="855" on="0"/>
        <pt x="405" y="883" on="1"/>
        <pt x="405" y="912" on="0"/>
        <pt x="444" y="952" on="0"/>
        <pt x="474" y="952" on="1"/>
        <pt x="504" y="952" on="0"/>
        <pt x="544" y="912" on="0"/>
        <pt x="544" y="883" on="1"/>
        <pt x="544" y="854" on="0"/>
        <pt x="504" y="814" on="0"/>
      </contour>
      <contour>
        <pt x="272" y="814" on="1"/>
        <pt x="242" y="814" on="0"/>
        <pt x="202" y="855" on="0"/>
        <pt x="202" y="883" on="1"/>
        <pt x="202" y="912" on="0"/>
        <pt x="242" y="952" on="0"/>
        <pt x="272" y="952" on="1"/>
        <pt x="302" y="952" on="0"/>
        <pt x="342" y="912" on="0"/>
        <pt x="342" y="883" on="1"/>
        <pt x="342" y="854" on="0"/>
        <pt x="302" y="814" on="0"/>
      </contour>
      <contour>
        <pt x="40" y="0" on="1"/>
        <pt x="298" y="740" on="1"/>
        <pt x="448" y="740" on="1"/>
        <pt x="707" y="0" on="1"/>
        <pt x="584" y="0" on="1"/>
        <pt x="526" y="166" on="1"/>
        <pt x="221" y="166" on="1"/>
        <pt x="163" y="0" on="1"/>
      </contour>
      <contour>
        <pt x="255" y="270" on="1"/>
        <pt x="492" y="270" on="1"/>
        <pt x="374" y="615" on="1"/>
      </contour>
    </TTGlyph>
    <TTGlyph name="Agrave" xMin="40" yMin="0" xMax="707" yMax="999">
      <contour>
        <pt x="332" y="818" on="1"/>
        <pt x="227" y="999" on="1"/>
        <pt x="339" y="999" on="1"/>
        <pt x="423" y="819" on="1"/>
      </contour>
      <contour>
        <pt x="40" y="0" on="1"/>
        <pt x="298" y="740" on="1"/>
        <pt x="448" y="740" on="1"/>
        <pt x="707" y="0" on="1"/>
        <pt x="584" y="0" on="1"/>
        <pt x="526" y="166" on="1"/>
        <pt x="221" y="166" on="1"/>
        <pt x="163" y="0" on="1"/>
      </contour>
      <contour>
        <pt x="255" y="270" on="1"/>
        <pt x="492" y="270" on="1"/>
        <pt x="374" y="615" on="1"/>
      </contour>
    </TTGlyph>
    <TTGlyph name="Amacron" xMin="40" yMin="0" xMax="707" yMax="910">
      <contour>
        <pt x="218" y="832" on="1"/>
        <pt x="218" y="910" on="1"/>
        <pt x="529" y="910" on="1"/>
        <pt x="529" y="832" on="1"/>
      </contour>
      <contour>
        <pt x="40" y="0" on="1"/>
        <pt x="298" y="740" on="1"/>
        <pt x="448" y="740" on="1"/>
        <pt x="707" y="0" on="1"/>
        <pt x="584" y="0" on="1"/>
        <pt x="526" y="166" on="1"/>
        <pt x="221" y="166" on="1"/>
        <pt x="163" y="0" on="1"/>
      </contour>
      <contour>
        <pt x="255" y="270" on="1"/>
        <pt x="492" y="270" on="1"/>
        <pt x="374" y="615" on="1"/>
      </contour>
    </TTGlyph>
    <TTGlyph name="Aogonek" xMin="40" yMin="-175" xMax="746" yMax="740">
      <contour>
        <pt x="40" y="0" on="1"/>
        <pt x="298" y="740" on="1"/>
        <pt x="448" y="740" on="1"/>
        <pt x="707" y="0" on="1"/>
        <pt x="707" y="0" on="0"/>
        <pt x="681" y="-14" on="0"/>
        <pt x="654" y="-41" on="0"/>
        <pt x="654" y="-61" on="1"/>
        <pt x="654" y="-78" on="0"/>
        <pt x="682" y="-103" on="0"/>
        <pt x="710" y="-103" on="1"/>
        <pt x="723" y="-103" on="0"/>
        <pt x="746" y="-98" on="0"/>
        <pt x="746" y="-98" on="1"/>
        <pt x="746" y="-169" on="1"/>
        <pt x="746" y="-169" on="0"/>
        <pt x="715" y="-175" on="0"/>
        <pt x="691" y="-175" on="1"/>
        <pt x="628" y="-175" on="0"/>
        <pt x="565" y="-120" on="0"/>
        <pt x="565" y="-81" on="1"/>
        <pt x="565" y="-52" on="0"/>
        <pt x="595" y="-12" on="0"/>
        <pt x="613" y="0" on="1"/>
        <pt x="584" y="0" on="1"/>
        <pt x="526" y="166" on="1"/>
        <pt x="221" y="166" on="1"/>
        <pt x="163" y="0" on="1"/>
      </contour>
      <contour>
        <pt x="255" y="270" on="1"/>
        <pt x="492" y="270" on="1"/>
        <pt x="374" y="615" on="1"/>
      </contour>
    </TTGlyph>
    <TTGlyph name="Aring" xMin="40" yMin="0" xMax="707" yMax="1068">
      <contour>
        <pt x="374" y="807" on="1"/>
        <pt x="337" y="807" on="0"/>
        <pt x="278" y="842" on="0"/>
        <pt x="242" y="902" on="0"/>
        <pt x="242" y="938" on="1"/>
        <pt x="242" y="974" on="0"/>
        <pt x="278" y="1033" on="0"/>
        <pt x="337" y="1068" on="0"/>
        <pt x="374" y="1068" on="1"/>
        <pt x="409" y="1068" on="0"/>
        <pt x="469" y="1033" on="0"/>
        <pt x="504" y="974" on="0"/>
        <pt x="504" y="938" on="1"/>
        <pt x="504" y="902" on="0"/>
        <pt x="469" y="842" on="0"/>
        <pt x="409" y="807" on="0"/>
      </contour>
      <contour>
        <pt x="374" y="880" on="1"/>
        <pt x="398" y="880" on="0"/>
        <pt x="432" y="914" on="0"/>
        <pt x="432" y="938" on="1"/>
        <pt x="432" y="962" on="0"/>
        <pt x="398" y="996" on="0"/>
        <pt x="374" y="996" on="1"/>
        <pt x="349" y="996" on="0"/>
        <pt x="315" y="962" on="0"/>
        <pt x="315" y="938" on="1"/>
        <pt x="315" y="914" on="0"/>
        <pt x="349" y="880" on="0"/>
      </contour>
      <contour>
        <pt x="40" y="0" on="1"/>
        <pt x="298" y="740" on="1"/>
        <pt x="448" y="740" on="1"/>
        <pt x="707" y="0" on="1"/>
        <pt x="584" y="0" on="1"/>
        <pt x="526" y="166" on="1"/>
        <pt x="221" y="166" on="1"/>
        <pt x="163" y="0" on="1"/>
      </contour>
      <contour>
        <pt x="255" y="270" on="1"/>
        <pt x="492" y="270" on="1"/>
        <pt x="374" y="615" on="1"/>
      </contour>
    </TTGlyph>
    <TTGlyph name="Atilde" xMin="40" yMin="0" xMax="707" yMax="967">
      <contour>
        <pt x="444" y="826" on="1"/>
        <pt x="417" y="826" on="0"/>
        <pt x="379" y="846" on="0"/>
        <pt x="351" y="871" on="0"/>
        <pt x="327" y="891" on="0"/>
        <pt x="313" y="891" on="1"/>
        <pt x="296" y="891" on="0"/>
        <pt x="282" y="859" on="0"/>
        <pt x="282" y="832" on="1"/>
        <pt x="212" y="832" on="1"/>
        <pt x="212" y="864" on="0"/>
        <pt x="228" y="926" on="0"/>
        <pt x="268" y="967" on="0"/>
        <pt x="306" y="967" on="1"/>
        <pt x="333" y="967" on="0"/>
        <pt x="371" y="948" on="0"/>
        <pt x="399" y="922" on="0"/>
        <pt x="423" y="903" on="0"/>
        <pt x="437" y="903" on="1"/>
        <pt x="452" y="903" on="0"/>
        <pt x="467" y="934" on="0"/>
        <pt x="467" y="962" on="1"/>
        <pt x="536" y="962" on="1"/>
        <pt x="536" y="930" on="0"/>
        <pt x="521" y="867" on="0"/>
        <pt x="481" y="826" on="0"/>
      </contour>
      <contour>
        <pt x="40" y="0" on="1"/>
        <pt x="298" y="740" on="1"/>
        <pt x="448" y="740" on="1"/>
        <pt x="707" y="0" on="1"/>
        <pt x="584" y="0" on="1"/>
        <pt x="526" y="166" on="1"/>
        <pt x="221" y="166" on="1"/>
        <pt x="163" y="0" on="1"/>
      </contour>
      <contour>
        <pt x="255" y="270" on="1"/>
        <pt x="492" y="270" on="1"/>
        <pt x="374" y="615" on="1"/>
      </contour>
    </TTGlyph>
    <TTGlyph name="B" xMin="76" yMin="0" xMax="634" yMax="740">
      <contour>
        <pt x="76" y="0" on="1"/>
        <pt x="76" y="740" on="1"/>
        <pt x="380" y="740" on="1"/>
        <pt x="451" y="740" on="0"/>
        <pt x="552" y="689" on="0"/>
        <pt x="605" y="605" on="0"/>
        <pt x="605" y="555" on="1"/>
        <pt x="605" y="502" on="0"/>
        <pt x="566" y="435" on="0"/>
        <pt x="516" y="399" on="0"/>
        <pt x="498" y="392" on="1"/>
        <pt x="498" y="386" on="1"/>
        <pt x="523" y="379" on="0"/>
        <pt x="587" y="340" on="0"/>
        <pt x="634" y="267" on="0"/>
        <pt x="634" y="209" on="1"/>
        <pt x="634" y="157" on="0"/>
        <pt x="584" y="61" on="0"/>
        <pt x="475" y="0" on="0"/>
        <pt x="387" y="0" on="1"/>
      </contour>
      <contour>
        <pt x="369" y="640" on="1"/>
        <pt x="193" y="640" on="1"/>
        <pt x="193" y="426" on="1"/>
        <pt x="369" y="426" on="1"/>
        <pt x="433" y="426" on="0"/>
        <pt x="491" y="492" on="0"/>
        <pt x="491" y="533" on="1"/>
        <pt x="491" y="574" on="0"/>
        <pt x="433" y="640" on="0"/>
      </contour>
      <contour>
        <pt x="378" y="334" on="1"/>
        <pt x="193" y="334" on="1"/>
        <pt x="193" y="100" on="1"/>
        <pt x="378" y="100" on="1"/>
        <pt x="427" y="100" on="0"/>
        <pt x="489" y="133" on="0"/>
        <pt x="517" y="187" on="0"/>
        <pt x="517" y="217" on="1"/>
        <pt x="517" y="247" on="0"/>
        <pt x="489" y="300" on="0"/>
        <pt x="427" y="334" on="0"/>
      </contour>
    </TTGlyph>
    <TTGlyph name="C" xMin="50" yMin="-10" xMax="727" yMax="750">
      <contour>
        <pt x="406" y="-10" on="1"/>
        <pt x="317" y="-10" on="0"/>
        <pt x="184" y="55" on="0"/>
        <pt x="95" y="164" on="0"/>
        <pt x="50" y="299" on="0"/>
        <pt x="50" y="370" on="1"/>
        <pt x="50" y="441" on="0"/>
        <pt x="95" y="577" on="0"/>
        <pt x="184" y="686" on="0"/>
        <pt x="317" y="750" on="0"/>
        <pt x="406" y="750" on="1"/>
        <pt x="479" y="750" on="0"/>
        <pt x="584" y="712" on="0"/>
        <pt x="655" y="653" on="0"/>
        <pt x="698" y="587" on="0"/>
        <pt x="719" y="527" on="0"/>
        <pt x="727" y="490" on="0"/>
        <pt x="727" y="490" on="1"/>
        <pt x="610" y="490" on="1"/>
        <pt x="610" y="490" on="0"/>
        <pt x="603" y="521" on="0"/>
        <pt x="580" y="567" on="0"/>
        <pt x="535" y="612" on="0"/>
        <pt x="462" y="643" on="0"/>
        <pt x="407" y="643" on="1"/>
        <pt x="348" y="643" on="0"/>
        <pt x="259" y="597" on="0"/>
        <pt x="199" y="519" on="0"/>
        <pt x="170" y="421" on="0"/>
        <pt x="170" y="370" on="1"/>
        <pt x="170" y="319" on="0"/>
        <pt x="199" y="222" on="0"/>
        <pt x="259" y="143" on="0"/>
        <pt x="348" y="97" on="0"/>
        <pt x="407" y="97" on="1"/>
        <pt x="462" y="97" on="0"/>
        <pt x="535" y="128" on="0"/>
        <pt x="580" y="174" on="0"/>
        <pt x="603" y="220" on="0"/>
        <pt x="610" y="251" on="0"/>
        <pt x="610" y="251" on="1"/>
        <pt x="727" y="251" on="1"/>
        <pt x="727" y="251" on="0"/>
        <pt x="719" y="213" on="0"/>
        <pt x="698" y="154" on="0"/>
        <pt x="655" y="87" on="0"/>
        <pt x="584" y="28" on="0"/>
        <pt x="479" y="-10" on="0"/>
      </contour>
    </TTGlyph>
    <TTGlyph name="Cacute" xMin="50" yMin="-10" xMax="727" yMax="998">
      <contour>
        <pt x="451" y="817" on="1"/>
        <pt x="360" y="818" on="1"/>
        <pt x="444" y="998" on="1"/>
        <pt x="556" y="998" on="1"/>
      </contour>
      <contour>
        <pt x="406" y="-10" on="1"/>
        <pt x="317" y="-10" on="0"/>
        <pt x="184" y="55" on="0"/>
        <pt x="95" y="164" on="0"/>
        <pt x="50" y="299" on="0"/>
        <pt x="50" y="370" on="1"/>
        <pt x="50" y="441" on="0"/>
        <pt x="95" y="577" on="0"/>
        <pt x="184" y="686" on="0"/>
        <pt x="317" y="750" on="0"/>
        <pt x="406" y="750" on="1"/>
        <pt x="479" y="750" on="0"/>
        <pt x="584" y="712" on="0"/>
        <pt x="655" y="653" on="0"/>
        <pt x="698" y="587" on="0"/>
        <pt x="719" y="527" on="0"/>
        <pt x="727" y="490" on="0"/>
        <pt x="727" y="490" on="1"/>
        <pt x="610" y="490" on="1"/>
        <pt x="610" y="490" on="0"/>
        <pt x="603" y="521" on="0"/>
        <pt x="580" y="567" on="0"/>
        <pt x="535" y="612" on="0"/>
        <pt x="462" y="643" on="0"/>
        <pt x="407" y="643" on="1"/>
        <pt x="348" y="643" on="0"/>
        <pt x="259" y="597" on="0"/>
        <pt x="199" y="519" on="0"/>
        <pt x="170" y="421" on="0"/>
        <pt x="170" y="370" on="1"/>
        <pt x="170" y="319" on="0"/>
        <pt x="199" y="222" on="0"/>
        <pt x="259" y="143" on="0"/>
        <pt x="348" y="97" on="0"/>
        <pt x="407" y="97" on="1"/>
        <pt x="462" y="97" on="0"/>
        <pt x="535" y="128" on="0"/>
        <pt x="580" y="174" on="0"/>
        <pt x="603" y="220" on="0"/>
        <pt x="610" y="251" on="0"/>
        <pt x="610" y="251" on="1"/>
        <pt x="727" y="251" on="1"/>
        <pt x="727" y="251" on="0"/>
        <pt x="719" y="213" on="0"/>
        <pt x="698" y="154" on="0"/>
        <pt x="655" y="87" on="0"/>
        <pt x="584" y="28" on="0"/>
        <pt x="479" y="-10" on="0"/>
      </contour>
    </TTGlyph>
    <TTGlyph name="Ccaron" xMin="50" yMin="-10" xMax="727" yMax="975">
      <contour>
        <pt x="359" y="804" on="1"/>
        <pt x="235" y="975" on="1"/>
        <pt x="332" y="975" on="1"/>
        <pt x="406" y="869" on="1"/>
        <pt x="480" y="975" on="1"/>
        <pt x="577" y="975" on="1"/>
        <pt x="453" y="804" on="1"/>
      </contour>
      <contour>
        <pt x="406" y="-10" on="1"/>
        <pt x="317" y="-10" on="0"/>
        <pt x="184" y="55" on="0"/>
        <pt x="95" y="164" on="0"/>
        <pt x="50" y="299" on="0"/>
        <pt x="50" y="370" on="1"/>
        <pt x="50" y="441" on="0"/>
        <pt x="95" y="577" on="0"/>
        <pt x="184" y="686" on="0"/>
        <pt x="317" y="750" on="0"/>
        <pt x="406" y="750" on="1"/>
        <pt x="479" y="750" on="0"/>
        <pt x="584" y="712" on="0"/>
        <pt x="655" y="653" on="0"/>
        <pt x="698" y="587" on="0"/>
        <pt x="719" y="527" on="0"/>
        <pt x="727" y="490" on="0"/>
        <pt x="727" y="490" on="1"/>
        <pt x="610" y="490" on="1"/>
        <pt x="610" y="490" on="0"/>
        <pt x="603" y="521" on="0"/>
        <pt x="580" y="567" on="0"/>
        <pt x="535" y="612" on="0"/>
        <pt x="462" y="643" on="0"/>
        <pt x="407" y="643" on="1"/>
        <pt x="348" y="643" on="0"/>
        <pt x="259" y="597" on="0"/>
        <pt x="199" y="519" on="0"/>
        <pt x="170" y="421" on="0"/>
        <pt x="170" y="370" on="1"/>
        <pt x="170" y="319" on="0"/>
        <pt x="199" y="222" on="0"/>
        <pt x="259" y="143" on="0"/>
        <pt x="348" y="97" on="0"/>
        <pt x="407" y="97" on="1"/>
        <pt x="462" y="97" on="0"/>
        <pt x="535" y="128" on="0"/>
        <pt x="580" y="174" on="0"/>
        <pt x="603" y="220" on="0"/>
        <pt x="610" y="251" on="0"/>
        <pt x="610" y="251" on="1"/>
        <pt x="727" y="251" on="1"/>
        <pt x="727" y="251" on="0"/>
        <pt x="719" y="213" on="0"/>
        <pt x="698" y="154" on="0"/>
        <pt x="655" y="87" on="0"/>
        <pt x="584" y="28" on="0"/>
        <pt x="479" y="-10" on="0"/>
      </contour>
    </TTGlyph>
    <TTGlyph name="Ccedilla" xMin="50" yMin="-260" xMax="727" yMax="750">
      <contour>
        <pt x="390" y="-260" on="1"/>
        <pt x="365" y="-260" on="0"/>
        <pt x="316" y="-253" on="0"/>
        <pt x="316" y="-253" on="1"/>
        <pt x="316" y="-189" on="1"/>
        <pt x="316" y="-189" on="0"/>
        <pt x="339" y="-192" on="0"/>
        <pt x="371" y="-195" on="0"/>
        <pt x="385" y="-195" on="1"/>
        <pt x="428" y="-195" on="0"/>
        <pt x="459" y="-163" on="0"/>
        <pt x="459" y="-147" on="1"/>
        <pt x="459" y="-131" on="0"/>
        <pt x="433" y="-107" on="0"/>
        <pt x="409" y="-107" on="1"/>
        <pt x="385" y="-107" on="0"/>
        <pt x="354" y="-126" on="0"/>
        <pt x="354" y="-126" on="1"/>
        <pt x="311" y="-84" on="1"/>
        <pt x="359" y="-7" on="1"/>
        <pt x="282" y="1" on="0"/>
        <pt x="166" y="71" on="0"/>
        <pt x="89" y="177" on="0"/>
        <pt x="50" y="304" on="0"/>
        <pt x="50" y="370" on="1"/>
        <pt x="50" y="441" on="0"/>
        <pt x="95" y="577" on="0"/>
        <pt x="184" y="686" on="0"/>
        <pt x="317" y="750" on="0"/>
        <pt x="406" y="750" on="1"/>
        <pt x="479" y="750" on="0"/>
        <pt x="584" y="712" on="0"/>
        <pt x="655" y="653" on="0"/>
        <pt x="698" y="587" on="0"/>
        <pt x="719" y="527" on="0"/>
        <pt x="727" y="490" on="0"/>
        <pt x="727" y="490" on="1"/>
        <pt x="610" y="490" on="1"/>
        <pt x="610" y="490" on="0"/>
        <pt x="603" y="521" on="0"/>
        <pt x="580" y="567" on="0"/>
        <pt x="535" y="612" on="0"/>
        <pt x="462" y="643" on="0"/>
        <pt x="407" y="643" on="1"/>
        <pt x="348" y="643" on="0"/>
        <pt x="259" y="597" on="0"/>
        <pt x="199" y="519" on="0"/>
        <pt x="170" y="421" on="0"/>
        <pt x="170" y="370" on="1"/>
        <pt x="170" y="319" on="0"/>
        <pt x="199" y="222" on="0"/>
        <pt x="259" y="143" on="0"/>
        <pt x="348" y="97" on="0"/>
        <pt x="407" y="97" on="1"/>
        <pt x="462" y="97" on="0"/>
        <pt x="535" y="128" on="0"/>
        <pt x="580" y="174" on="0"/>
        <pt x="603" y="220" on="0"/>
        <pt x="610" y="251" on="0"/>
        <pt x="610" y="251" on="1"/>
        <pt x="727" y="251" on="1"/>
        <pt x="727" y="251" on="0"/>
        <pt x="720" y="216" on="0"/>
        <pt x="700" y="159" on="0"/>
        <pt x="661" y="95" on="0"/>
        <pt x="597" y="36" on="0"/>
        <pt x="501" y="-5" on="0"/>
        <pt x="434" y="-9" on="1"/>
        <pt x="398" y="-64" on="1"/>
        <pt x="414" y="-59" on="0"/>
        <pt x="433" y="-59" on="1"/>
        <pt x="480" y="-59" on="0"/>
        <pt x="534" y="-107" on="0"/>
        <pt x="534" y="-146" on="1"/>
        <pt x="534" y="-174" on="0"/>
        <pt x="504" y="-226" on="0"/>
        <pt x="441" y="-260" on="0"/>
      </contour>
    </TTGlyph>
    <TTGlyph name="Cdotaccent" xMin="50" yMin="-10" xMax="727" yMax="971">
      <contour>
        <pt x="406" y="831" on="1"/>
        <pt x="374" y="831" on="0"/>
        <pt x="334" y="872" on="0"/>
        <pt x="334" y="901" on="1"/>
        <pt x="334" y="930" on="0"/>
        <pt x="374" y="971" on="0"/>
        <pt x="406" y="971" on="1"/>
        <pt x="436" y="971" on="0"/>
        <pt x="477" y="930" on="0"/>
        <pt x="477" y="901" on="1"/>
        <pt x="477" y="872" on="0"/>
        <pt x="436" y="831" on="0"/>
      </contour>
      <contour>
        <pt x="406" y="-10" on="1"/>
        <pt x="317" y="-10" on="0"/>
        <pt x="184" y="55" on="0"/>
        <pt x="95" y="164" on="0"/>
        <pt x="50" y="299" on="0"/>
        <pt x="50" y="370" on="1"/>
        <pt x="50" y="441" on="0"/>
        <pt x="95" y="577" on="0"/>
        <pt x="184" y="686" on="0"/>
        <pt x="317" y="750" on="0"/>
        <pt x="406" y="750" on="1"/>
        <pt x="479" y="750" on="0"/>
        <pt x="584" y="712" on="0"/>
        <pt x="655" y="653" on="0"/>
        <pt x="698" y="587" on="0"/>
        <pt x="719" y="527" on="0"/>
        <pt x="727" y="490" on="0"/>
        <pt x="727" y="490" on="1"/>
        <pt x="610" y="490" on="1"/>
        <pt x="610" y="490" on="0"/>
        <pt x="603" y="521" on="0"/>
        <pt x="580" y="567" on="0"/>
        <pt x="535" y="612" on="0"/>
        <pt x="462" y="643" on="0"/>
        <pt x="407" y="643" on="1"/>
        <pt x="348" y="643" on="0"/>
        <pt x="259" y="597" on="0"/>
        <pt x="199" y="519" on="0"/>
        <pt x="170" y="421" on="0"/>
        <pt x="170" y="370" on="1"/>
        <pt x="170" y="319" on="0"/>
        <pt x="199" y="222" on="0"/>
        <pt x="259" y="143" on="0"/>
        <pt x="348" y="97" on="0"/>
        <pt x="407" y="97" on="1"/>
        <pt x="462" y="97" on="0"/>
        <pt x="535" y="128" on="0"/>
        <pt x="580" y="174" on="0"/>
        <pt x="603" y="220" on="0"/>
        <pt x="610" y="251" on="0"/>
        <pt x="610" y="251" on="1"/>
        <pt x="727" y="251" on="1"/>
        <pt x="727" y="251" on="0"/>
        <pt x="719" y="213" on="0"/>
        <pt x="698" y="154" on="0"/>
        <pt x="655" y="87" on="0"/>
        <pt x="584" y="28" on="0"/>
        <pt x="479" y="-10" on="0"/>
      </contour>
    </TTGlyph>
    <TTGlyph name="D" xMin="76" yMin="0" xMax="686" yMax="740">
      <contour>
        <pt x="76" y="0" on="1"/>
        <pt x="76" y="740" on="1"/>
        <pt x="329" y="740" on="1"/>
        <pt x="418" y="740" on="0"/>
        <pt x="552" y="677" on="0"/>
        <pt x="641" y="571" on="0"/>
        <pt x="686" y="439" on="0"/>
        <pt x="686" y="370" on="1"/>
        <pt x="686" y="301" on="0"/>
        <pt x="641" y="169" on="0"/>
        <pt x="552" y="63" on="0"/>
        <pt x="418" y="0" on="0"/>
        <pt x="329" y="0" on="1"/>
      </contour>
      <contour>
        <pt x="324" y="638" on="1"/>
        <pt x="193" y="638" on="1"/>
        <pt x="193" y="103" on="1"/>
        <pt x="324" y="103" on="1"/>
        <pt x="386" y="103" on="0"/>
        <pt x="478" y="148" on="0"/>
        <pt x="538" y="225" on="0"/>
        <pt x="569" y="320" on="0"/>
        <pt x="569" y="370" on="1"/>
        <pt x="569" y="420" on="0"/>
        <pt x="538" y="516" on="0"/>
        <pt x="478" y="592" on="0"/>
        <pt x="386" y="638" on="0"/>
      </contour>
    </TTGlyph>
    <TTGlyph name="Dcaron" xMin="84" yMin="0" xMax="694" yMax="975">
      <contour>
        <pt x="290" y="804" on="1"/>
        <pt x="167" y="975" on="1"/>
        <pt x="264" y="975" on="1"/>
        <pt x="337" y="869" on="1"/>
        <pt x="411" y="975" on="1"/>
        <pt x="508" y="975" on="1"/>
        <pt x="385" y="804" on="1"/>
      </contour>
      <contour>
        <pt x="84" y="0" on="1"/>
        <pt x="84" y="740" on="1"/>
        <pt x="337" y="740" on="1"/>
        <pt x="426" y="740" on="0"/>
        <pt x="560" y="677" on="0"/>
        <pt x="649" y="571" on="0"/>
        <pt x="694" y="439" on="0"/>
        <pt x="694" y="370" on="1"/>
        <pt x="694" y="301" on="0"/>
        <pt x="649" y="169" on="0"/>
        <pt x="560" y="63" on="0"/>
        <pt x="426" y="0" on="0"/>
        <pt x="337" y="0" on="1"/>
      </contour>
      <contour>
        <pt x="332" y="638" on="1"/>
        <pt x="201" y="638" on="1"/>
        <pt x="201" y="103" on="1"/>
        <pt x="332" y="103" on="1"/>
        <pt x="394" y="103" on="0"/>
        <pt x="486" y="148" on="0"/>
        <pt x="546" y="225" on="0"/>
        <pt x="577" y="320" on="0"/>
        <pt x="577" y="370" on="1"/>
        <pt x="577" y="420" on="0"/>
        <pt x="546" y="516" on="0"/>
        <pt x="486" y="592" on="0"/>
        <pt x="394" y="638" on="0"/>
      </contour>
    </TTGlyph>
    <TTGlyph name="Dcroat" xMin="33" yMin="0" xMax="737" yMax="740">
      <contour>
        <pt x="127" y="0" on="1"/>
        <pt x="127" y="320" on="1"/>
        <pt x="33" y="320" on="1"/>
        <pt x="33" y="420" on="1"/>
        <pt x="127" y="420" on="1"/>
        <pt x="127" y="740" on="1"/>
        <pt x="380" y="740" on="1"/>
        <pt x="470" y="740" on="0"/>
        <pt x="603" y="677" on="0"/>
        <pt x="692" y="571" on="0"/>
        <pt x="737" y="439" on="0"/>
        <pt x="737" y="370" on="1"/>
        <pt x="737" y="301" on="0"/>
        <pt x="692" y="169" on="0"/>
        <pt x="603" y="63" on="0"/>
        <pt x="470" y="0" on="0"/>
        <pt x="380" y="0" on="1"/>
      </contour>
      <contour>
        <pt x="394" y="320" on="1"/>
        <pt x="244" y="320" on="1"/>
        <pt x="244" y="103" on="1"/>
        <pt x="375" y="103" on="1"/>
        <pt x="437" y="103" on="0"/>
        <pt x="529" y="148" on="0"/>
        <pt x="590" y="225" on="0"/>
        <pt x="620" y="320" on="0"/>
        <pt x="620" y="370" on="1"/>
        <pt x="620" y="420" on="0"/>
        <pt x="590" y="516" on="0"/>
        <pt x="529" y="592" on="0"/>
        <pt x="437" y="638" on="0"/>
        <pt x="375" y="638" on="1"/>
        <pt x="244" y="638" on="1"/>
        <pt x="244" y="420" on="1"/>
        <pt x="394" y="420" on="1"/>
      </contour>
    </TTGlyph>
    <TTGlyph name="E" xMin="76" yMin="0" xMax="564" yMax="740">
      <contour>
        <pt x="76" y="0" on="1"/>
        <pt x="76" y="740" on="1"/>
        <pt x="559" y="740" on="1"/>
        <pt x="559" y="638" on="1"/>
        <pt x="193" y="638" on="1"/>
        <pt x="193" y="427" on="1"/>
        <pt x="513" y="427" on="1"/>
        <pt x="513" y="326" on="1"/>
        <pt x="193" y="326" on="1"/>
        <pt x="193" y="102" on="1"/>
        <pt x="564" y="102" on="1"/>
        <pt x="564" y="0" on="1"/>
      </contour>
    </TTGlyph>
    <TTGlyph name="Eacute" xMin="84" yMin="0" xMax="572" yMax="999">
      <contour>
        <pt x="379" y="818" on="1"/>
        <pt x="288" y="819" on="1"/>
        <pt x="372" y="999" on="1"/>
        <pt x="484" y="999" on="1"/>
      </contour>
      <contour>
        <pt x="84" y="0" on="1"/>
        <pt x="84" y="740" on="1"/>
        <pt x="567" y="740" on="1"/>
        <pt x="567" y="638" on="1"/>
        <pt x="201" y="638" on="1"/>
        <pt x="201" y="427" on="1"/>
        <pt x="521" y="427" on="1"/>
        <pt x="521" y="326" on="1"/>
        <pt x="201" y="326" on="1"/>
        <pt x="201" y="102" on="1"/>
        <pt x="572" y="102" on="1"/>
        <pt x="572" y="0" on="1"/>
      </contour>
    </TTGlyph>
    <TTGlyph name="Ecaron" xMin="84" yMin="0" xMax="572" yMax="975">
      <contour>
        <pt x="287" y="804" on="1"/>
        <pt x="163" y="975" on="1"/>
        <pt x="260" y="975" on="1"/>
        <pt x="334" y="869" on="1"/>
        <pt x="408" y="975" on="1"/>
        <pt x="505" y="975" on="1"/>
        <pt x="381" y="804" on="1"/>
      </contour>
      <contour>
        <pt x="84" y="0" on="1"/>
        <pt x="84" y="740" on="1"/>
        <pt x="567" y="740" on="1"/>
        <pt x="567" y="638" on="1"/>
        <pt x="201" y="638" on="1"/>
        <pt x="201" y="427" on="1"/>
        <pt x="521" y="427" on="1"/>
        <pt x="521" y="326" on="1"/>
        <pt x="201" y="326" on="1"/>
        <pt x="201" y="102" on="1"/>
        <pt x="572" y="102" on="1"/>
        <pt x="572" y="0" on="1"/>
      </contour>
    </TTGlyph>
    <TTGlyph name="Ecircumflex" xMin="84" yMin="0" xMax="572" yMax="962">
      <contour>
        <pt x="163" y="813" on="1"/>
        <pt x="287" y="962" on="1"/>
        <pt x="381" y="962" on="1"/>
        <pt x="505" y="813" on="1"/>
        <pt x="408" y="813" on="1"/>
        <pt x="334" y="902" on="1"/>
        <pt x="260" y="813" on="1"/>
      </contour>
      <contour>
        <pt x="84" y="0" on="1"/>
        <pt x="84" y="740" on="1"/>
        <pt x="567" y="740" on="1"/>
        <pt x="567" y="638" on="1"/>
        <pt x="201" y="638" on="1"/>
        <pt x="201" y="427" on="1"/>
        <pt x="521" y="427" on="1"/>
        <pt x="521" y="326" on="1"/>
        <pt x="201" y="326" on="1"/>
        <pt x="201" y="102" on="1"/>
        <pt x="572" y="102" on="1"/>
        <pt x="572" y="0" on="1"/>
      </contour>
    </TTGlyph>
    <TTGlyph name="Edieresis" xMin="84" yMin="0" xMax="572" yMax="952">
      <contour>
        <pt x="434" y="814" on="1"/>
        <pt x="404" y="814" on="0"/>
        <pt x="365" y="855" on="0"/>
        <pt x="365" y="883" on="1"/>
        <pt x="365" y="912" on="0"/>
        <pt x="404" y="952" on="0"/>
        <pt x="434" y="952" on="1"/>
        <pt x="464" y="952" on="0"/>
        <pt x="504" y="912" on="0"/>
        <pt x="504" y="883" on="1"/>
        <pt x="504" y="854" on="0"/>
        <pt x="464" y="814" on="0"/>
      </contour>
      <contour>
        <pt x="232" y="814" on="1"/>
        <pt x="202" y="814" on="0"/>
        <pt x="162" y="855" on="0"/>
        <pt x="162" y="883" on="1"/>
        <pt x="162" y="912" on="0"/>
        <pt x="202" y="952" on="0"/>
        <pt x="232" y="952" on="1"/>
        <pt x="262" y="952" on="0"/>
        <pt x="302" y="912" on="0"/>
        <pt x="302" y="883" on="1"/>
        <pt x="302" y="854" on="0"/>
        <pt x="262" y="814" on="0"/>
      </contour>
      <contour>
        <pt x="84" y="0" on="1"/>
        <pt x="84" y="740" on="1"/>
        <pt x="567" y="740" on="1"/>
        <pt x="567" y="638" on="1"/>
        <pt x="201" y="638" on="1"/>
        <pt x="201" y="427" on="1"/>
        <pt x="521" y="427" on="1"/>
        <pt x="521" y="326" on="1"/>
        <pt x="201" y="326" on="1"/>
        <pt x="201" y="102" on="1"/>
        <pt x="572" y="102" on="1"/>
        <pt x="572" y="0" on="1"/>
      </contour>
    </TTGlyph>
    <TTGlyph name="Edotaccent" xMin="84" yMin="0" xMax="572" yMax="971">
      <contour>
        <pt x="334" y="831" on="1"/>
        <pt x="302" y="831" on="0"/>
        <pt x="262" y="873" on="0"/>
        <pt x="262" y="901" on="1"/>
        <pt x="262" y="930" on="0"/>
        <pt x="302" y="971" on="0"/>
        <pt x="334" y="971" on="1"/>
        <pt x="364" y="971" on="0"/>
        <pt x="405" y="930" on="0"/>
        <pt x="405" y="901" on="1"/>
        <pt x="405" y="872" on="0"/>
        <pt x="364" y="831" on="0"/>
      </contour>
      <contour>
        <pt x="84" y="0" on="1"/>
        <pt x="84" y="740" on="1"/>
        <pt x="567" y="740" on="1"/>
        <pt x="567" y="638" on="1"/>
        <pt x="201" y="638" on="1"/>
        <pt x="201" y="427" on="1"/>
        <pt x="521" y="427" on="1"/>
        <pt x="521" y="326" on="1"/>
        <pt x="201" y="326" on="1"/>
        <pt x="201" y="102" on="1"/>
        <pt x="572" y="102" on="1"/>
        <pt x="572" y="0" on="1"/>
      </contour>
    </TTGlyph>
    <TTGlyph name="Egrave" xMin="84" yMin="0" xMax="572" yMax="999">
      <contour>
        <pt x="292" y="818" on="1"/>
        <pt x="187" y="999" on="1"/>
        <pt x="299" y="999" on="1"/>
        <pt x="383" y="819" on="1"/>
      </contour>
      <contour>
        <pt x="84" y="0" on="1"/>
        <pt x="84" y="740" on="1"/>
        <pt x="567" y="740" on="1"/>
        <pt x="567" y="638" on="1"/>
        <pt x="201" y="638" on="1"/>
        <pt x="201" y="427" on="1"/>
        <pt x="521" y="427" on="1"/>
        <pt x="521" y="326" on="1"/>
        <pt x="201" y="326" on="1"/>
        <pt x="201" y="102" on="1"/>
        <pt x="572" y="102" on="1"/>
        <pt x="572" y="0" on="1"/>
      </contour>
    </TTGlyph>
    <TTGlyph name="Emacron" xMin="84" yMin="0" xMax="572" yMax="910">
      <contour>
        <pt x="178" y="832" on="1"/>
        <pt x="178" y="910" on="1"/>
        <pt x="489" y="910" on="1"/>
        <pt x="489" y="832" on="1"/>
      </contour>
      <contour>
        <pt x="84" y="0" on="1"/>
        <pt x="84" y="740" on="1"/>
        <pt x="567" y="740" on="1"/>
        <pt x="567" y="638" on="1"/>
        <pt x="201" y="638" on="1"/>
        <pt x="201" y="427" on="1"/>
        <pt x="521" y="427" on="1"/>
        <pt x="521" y="326" on="1"/>
        <pt x="201" y="326" on="1"/>
        <pt x="201" y="102" on="1"/>
        <pt x="572" y="102" on="1"/>
        <pt x="572" y="0" on="1"/>
      </contour>
    </TTGlyph>
    <TTGlyph name="Eogonek" xMin="84" yMin="-175" xMax="611" yMax="740">
      <contour>
        <pt x="84" y="0" on="1"/>
        <pt x="84" y="740" on="1"/>
        <pt x="567" y="740" on="1"/>
        <pt x="567" y="638" on="1"/>
        <pt x="201" y="638" on="1"/>
        <pt x="201" y="427" on="1"/>
        <pt x="521" y="427" on="1"/>
        <pt x="521" y="326" on="1"/>
        <pt x="201" y="326" on="1"/>
        <pt x="201" y="102" on="1"/>
        <pt x="572" y="102" on="1"/>
        <pt x="572" y="0" on="1"/>
        <pt x="572" y="0" on="0"/>
        <pt x="546" y="-14" on="0"/>
        <pt x="519" y="-41" on="0"/>
        <pt x="519" y="-61" on="1"/>
        <pt x="519" y="-78" on="0"/>
        <pt x="547" y="-103" on="0"/>
        <pt x="575" y="-103" on="1"/>
        <pt x="588" y="-103" on="0"/>
        <pt x="611" y="-98" on="0"/>
        <pt x="611" y="-98" on="1"/>
        <pt x="611" y="-169" on="1"/>
        <pt x="611" y="-169" on="0"/>
        <pt x="580" y="-175" on="0"/>
        <pt x="557" y="-175" on="1"/>
        <pt x="493" y="-175" on="0"/>
        <pt x="431" y="-120" on="0"/>
        <pt x="431" y="-81" on="1"/>
        <pt x="431" y="-52" on="0"/>
        <pt x="460" y="-12" on="0"/>
        <pt x="478" y="0" on="1"/>
      </contour>
    </TTGlyph>
    <TTGlyph name="Eth" xMin="33" yMin="0" xMax="737" yMax="740">
      <contour>
        <pt x="127" y="0" on="1"/>
        <pt x="127" y="320" on="1"/>
        <pt x="33" y="320" on="1"/>
        <pt x="33" y="420" on="1"/>
        <pt x="127" y="420" on="1"/>
        <pt x="127" y="740" on="1"/>
        <pt x="380" y="740" on="1"/>
        <pt x="470" y="740" on="0"/>
        <pt x="603" y="677" on="0"/>
        <pt x="692" y="571" on="0"/>
        <pt x="737" y="439" on="0"/>
        <pt x="737" y="370" on="1"/>
        <pt x="737" y="301" on="0"/>
        <pt x="692" y="169" on="0"/>
        <pt x="603" y="63" on="0"/>
        <pt x="470" y="0" on="0"/>
        <pt x="380" y="0" on="1"/>
      </contour>
      <contour>
        <pt x="394" y="320" on="1"/>
        <pt x="244" y="320" on="1"/>
        <pt x="244" y="103" on="1"/>
        <pt x="375" y="103" on="1"/>
        <pt x="437" y="103" on="0"/>
        <pt x="529" y="148" on="0"/>
        <pt x="590" y="225" on="0"/>
        <pt x="620" y="320" on="0"/>
        <pt x="620" y="370" on="1"/>
        <pt x="620" y="420" on="0"/>
        <pt x="590" y="516" on="0"/>
        <pt x="529" y="592" on="0"/>
        <pt x="437" y="638" on="0"/>
        <pt x="375" y="638" on="1"/>
        <pt x="244" y="638" on="1"/>
        <pt x="244" y="420" on="1"/>
        <pt x="394" y="420" on="1"/>
      </contour>
    </TTGlyph>
    <TTGlyph name="Euro" xMin="36" yMin="-10" xMax="665" yMax="750">
      <contour>
        <pt x="36" y="263" on="1"/>
        <pt x="36" y="336" on="1"/>
        <pt x="121" y="336" on="1"/>
        <pt x="120" y="353" on="0"/>
        <pt x="120" y="370" on="1"/>
        <pt x="120" y="386" on="0"/>
        <pt x="121" y="403" on="1"/>
        <pt x="36" y="403" on="1"/>
        <pt x="36" y="476" on="1"/>
        <pt x="134" y="476" on="1"/>
        <pt x="153" y="550" on="0"/>
        <pt x="249" y="675" on="0"/>
        <pt x="402" y="750" on="0"/>
        <pt x="509" y="750" on="1"/>
        <pt x="548" y="750" on="0"/>
        <pt x="620" y="741" on="0"/>
        <pt x="665" y="732" on="0"/>
        <pt x="665" y="732" on="1"/>
        <pt x="665" y="629" on="1"/>
        <pt x="665" y="629" on="0"/>
        <pt x="619" y="638" on="0"/>
        <pt x="549" y="647" on="0"/>
        <pt x="514" y="647" on="1"/>
        <pt x="444" y="647" on="0"/>
        <pt x="341" y="602" on="0"/>
        <pt x="273" y="524" on="0"/>
        <pt x="256" y="476" on="1"/>
        <pt x="545" y="476" on="1"/>
        <pt x="545" y="403" on="1"/>
        <pt x="240" y="403" on="1"/>
        <pt x="238" y="387" on="0"/>
        <pt x="238" y="370" on="1"/>
        <pt x="238" y="353" on="0"/>
        <pt x="240" y="336" on="1"/>
        <pt x="545" y="336" on="1"/>
        <pt x="545" y="263" on="1"/>
        <pt x="256" y="263" on="1"/>
        <pt x="273" y="215" on="0"/>
        <pt x="341" y="138" on="0"/>
        <pt x="444" y="92" on="0"/>
        <pt x="514" y="92" on="1"/>
        <pt x="549" y="92" on="0"/>
        <pt x="619" y="101" on="0"/>
        <pt x="665" y="110" on="0"/>
        <pt x="665" y="110" on="1"/>
        <pt x="665" y="7" on="1"/>
        <pt x="665" y="7" on="0"/>
        <pt x="620" y="-2" on="0"/>
        <pt x="548" y="-10" on="0"/>
        <pt x="509" y="-10" on="1"/>
        <pt x="402" y="-10" on="0"/>
        <pt x="249" y="65" on="0"/>
        <pt x="153" y="189" on="0"/>
        <pt x="134" y="263" on="1"/>
      </contour>
    </TTGlyph>
    <TTGlyph name="F" xMin="76" yMin="0" xMax="574" yMax="740">
      <contour>
        <pt x="76" y="0" on="1"/>
        <pt x="76" y="740" on="1"/>
        <pt x="574" y="740" on="1"/>
        <pt x="574" y="638" on="1"/>
        <pt x="193" y="638" on="1"/>
        <pt x="193" y="411" on="1"/>
        <pt x="528" y="411" on="1"/>
        <pt x="528" y="310" on="1"/>
        <pt x="193" y="310" on="1"/>
        <pt x="193" y="0" on="1"/>
      </contour>
    </TTGlyph>
    <TTGlyph name="G" xMin="50" yMin="-10" xMax="739" yMax="750">
      <contour>
        <pt x="411" y="-10" on="1"/>
        <pt x="319" y="-10" on="0"/>
        <pt x="184" y="54" on="0"/>
        <pt x="94" y="163" on="0"/>
        <pt x="50" y="298" on="0"/>
        <pt x="50" y="369" on="1"/>
        <pt x="50" y="440" on="0"/>
        <pt x="94" y="576" on="0"/>
        <pt x="185" y="685" on="0"/>
        <pt x="322" y="750" on="0"/>
        <pt x="414" y="750" on="1"/>
        <pt x="486" y="750" on="0"/>
        <pt x="588" y="714" on="0"/>
        <pt x="658" y="657" on="0"/>
        <pt x="700" y="593" on="0"/>
        <pt x="722" y="535" on="0"/>
        <pt x="730" y="499" on="0"/>
        <pt x="730" y="499" on="1"/>
        <pt x="613" y="499" on="1"/>
        <pt x="613" y="499" on="0"/>
        <pt x="605" y="529" on="0"/>
        <pt x="582" y="572" on="0"/>
        <pt x="538" y="616" on="0"/>
        <pt x="467" y="645" on="0"/>
        <pt x="415" y="645" on="1"/>
        <pt x="353" y="645" on="0"/>
        <pt x="260" y="598" on="0"/>
        <pt x="199" y="520" on="0"/>
        <pt x="169" y="422" on="0"/>
        <pt x="169" y="371" on="1"/>
        <pt x="169" y="319" on="0"/>
        <pt x="200" y="220" on="0"/>
        <pt x="261" y="141" on="0"/>
        <pt x="352" y="95" on="0"/>
        <pt x="413" y="95" on="1"/>
        <pt x="508" y="95" on="0"/>
        <pt x="620" y="203" on="0"/>
        <pt x="626" y="295" on="1"/>
        <pt x="415" y="295" on="1"/>
        <pt x="415" y="389" on="1"/>
        <pt x="739" y="389" on="1"/>
        <pt x="739" y="336" on="1"/>
        <pt x="739" y="222" on="0"/>
        <pt x="652" y="68" on="0"/>
        <pt x="503" y="-10" on="0"/>
      </contour>
    </TTGlyph>
    <TTGlyph name="Gbreve" xMin="50" yMin="-10" xMax="739" yMax="971">
      <contour>
        <pt x="414" y="812" on="1"/>
        <pt x="364" y="812" on="0"/>
        <pt x="300" y="844" on="0"/>
        <pt x="265" y="892" on="0"/>
        <pt x="250" y="939" on="0"/>
        <pt x="247" y="971" on="0"/>
        <pt x="247" y="971" on="1"/>
        <pt x="328" y="971" on="1"/>
        <pt x="328" y="971" on="0"/>
        <pt x="331" y="945" on="0"/>
        <pt x="347" y="911" on="0"/>
        <pt x="382" y="885" on="0"/>
        <pt x="414" y="885" on="1"/>
        <pt x="446" y="885" on="0"/>
        <pt x="482" y="911" on="0"/>
        <pt x="497" y="945" on="0"/>
        <pt x="500" y="971" on="0"/>
        <pt x="500" y="971" on="1"/>
        <pt x="581" y="971" on="1"/>
        <pt x="581" y="971" on="0"/>
        <pt x="578" y="939" on="0"/>
        <pt x="563" y="892" on="0"/>
        <pt x="528" y="844" on="0"/>
        <pt x="465" y="812" on="0"/>
      </contour>
      <contour>
        <pt x="411" y="-10" on="1"/>
        <pt x="319" y="-10" on="0"/>
        <pt x="184" y="54" on="0"/>
        <pt x="94" y="163" on="0"/>
        <pt x="50" y="298" on="0"/>
        <pt x="50" y="369" on="1"/>
        <pt x="50" y="440" on="0"/>
        <pt x="94" y="576" on="0"/>
        <pt x="185" y="685" on="0"/>
        <pt x="322" y="750" on="0"/>
        <pt x="414" y="750" on="1"/>
        <pt x="486" y="750" on="0"/>
        <pt x="588" y="714" on="0"/>
        <pt x="658" y="657" on="0"/>
        <pt x="700" y="593" on="0"/>
        <pt x="722" y="535" on="0"/>
        <pt x="730" y="499" on="0"/>
        <pt x="730" y="499" on="1"/>
        <pt x="613" y="499" on="1"/>
        <pt x="613" y="499" on="0"/>
        <pt x="605" y="529" on="0"/>
        <pt x="582" y="572" on="0"/>
        <pt x="538" y="616" on="0"/>
        <pt x="467" y="645" on="0"/>
        <pt x="415" y="645" on="1"/>
        <pt x="353" y="645" on="0"/>
        <pt x="260" y="598" on="0"/>
        <pt x="199" y="520" on="0"/>
        <pt x="169" y="422" on="0"/>
        <pt x="169" y="371" on="1"/>
        <pt x="169" y="319" on="0"/>
        <pt x="200" y="220" on="0"/>
        <pt x="261" y="141" on="0"/>
        <pt x="352" y="95" on="0"/>
        <pt x="413" y="95" on="1"/>
        <pt x="508" y="95" on="0"/>
        <pt x="620" y="203" on="0"/>
        <pt x="626" y="295" on="1"/>
        <pt x="415" y="295" on="1"/>
        <pt x="415" y="389" on="1"/>
        <pt x="739" y="389" on="1"/>
        <pt x="739" y="336" on="1"/>
        <pt x="739" y="222" on="0"/>
        <pt x="652" y="68" on="0"/>
        <pt x="503" y="-10" on="0"/>
      </contour>
    </TTGlyph>
    <TTGlyph name="Gcaron" xMin="50" yMin="-10" xMax="739" yMax="975">
      <contour>
        <pt x="367" y="804" on="1"/>
        <pt x="244" y="975" on="1"/>
        <pt x="341" y="975" on="1"/>
        <pt x="414" y="869" on="1"/>
        <pt x="488" y="975" on="1"/>
        <pt x="585" y="975" on="1"/>
        <pt x="462" y="804" on="1"/>
      </contour>
      <contour>
        <pt x="411" y="-10" on="1"/>
        <pt x="319" y="-10" on="0"/>
        <pt x="184" y="54" on="0"/>
        <pt x="94" y="163" on="0"/>
        <pt x="50" y="298" on="0"/>
        <pt x="50" y="369" on="1"/>
        <pt x="50" y="440" on="0"/>
        <pt x="94" y="576" on="0"/>
        <pt x="185" y="685" on="0"/>
        <pt x="322" y="750" on="0"/>
        <pt x="414" y="750" on="1"/>
        <pt x="486" y="750" on="0"/>
        <pt x="588" y="714" on="0"/>
        <pt x="658" y="657" on="0"/>
        <pt x="700" y="593" on="0"/>
        <pt x="722" y="535" on="0"/>
        <pt x="730" y="499" on="0"/>
        <pt x="730" y="499" on="1"/>
        <pt x="613" y="499" on="1"/>
        <pt x="613" y="499" on="0"/>
        <pt x="605" y="529" on="0"/>
        <pt x="582" y="572" on="0"/>
        <pt x="538" y="616" on="0"/>
        <pt x="467" y="645" on="0"/>
        <pt x="415" y="645" on="1"/>
        <pt x="353" y="645" on="0"/>
        <pt x="260" y="598" on="0"/>
        <pt x="199" y="520" on="0"/>
        <pt x="169" y="422" on="0"/>
        <pt x="169" y="371" on="1"/>
        <pt x="169" y="319" on="0"/>
        <pt x="200" y="220" on="0"/>
        <pt x="261" y="141" on="0"/>
        <pt x="352" y="95" on="0"/>
        <pt x="413" y="95" on="1"/>
        <pt x="508" y="95" on="0"/>
        <pt x="620" y="203" on="0"/>
        <pt x="626" y="295" on="1"/>
        <pt x="415" y="295" on="1"/>
        <pt x="415" y="389" on="1"/>
        <pt x="739" y="389" on="1"/>
        <pt x="739" y="336" on="1"/>
        <pt x="739" y="222" on="0"/>
        <pt x="652" y="68" on="0"/>
        <pt x="503" y="-10" on="0"/>
      </contour>
    </TTGlyph>
    <TTGlyph name="Gdotaccent" xMin="50" yMin="-10" xMax="739" yMax="971">
      <contour>
        <pt x="414" y="831" on="1"/>
        <pt x="383" y="831" on="0"/>
        <pt x="343" y="873" on="0"/>
        <pt x="343" y="901" on="1"/>
        <pt x="343" y="930" on="0"/>
        <pt x="383" y="971" on="0"/>
        <pt x="414" y="971" on="1"/>
        <pt x="445" y="971" on="0"/>
        <pt x="485" y="930" on="0"/>
        <pt x="485" y="901" on="1"/>
        <pt x="485" y="872" on="0"/>
        <pt x="445" y="831" on="0"/>
      </contour>
      <contour>
        <pt x="411" y="-10" on="1"/>
        <pt x="319" y="-10" on="0"/>
        <pt x="184" y="54" on="0"/>
        <pt x="94" y="163" on="0"/>
        <pt x="50" y="298" on="0"/>
        <pt x="50" y="369" on="1"/>
        <pt x="50" y="440" on="0"/>
        <pt x="94" y="576" on="0"/>
        <pt x="185" y="685" on="0"/>
        <pt x="322" y="750" on="0"/>
        <pt x="414" y="750" on="1"/>
        <pt x="486" y="750" on="0"/>
        <pt x="588" y="714" on="0"/>
        <pt x="658" y="657" on="0"/>
        <pt x="700" y="593" on="0"/>
        <pt x="722" y="535" on="0"/>
        <pt x="730" y="499" on="0"/>
        <pt x="730" y="499" on="1"/>
        <pt x="613" y="499" on="1"/>
        <pt x="613" y="499" on="0"/>
        <pt x="605" y="529" on="0"/>
        <pt x="582" y="572" on="0"/>
        <pt x="538" y="616" on="0"/>
        <pt x="467" y="645" on="0"/>
        <pt x="415" y="645" on="1"/>
        <pt x="353" y="645" on="0"/>
        <pt x="260" y="598" on="0"/>
        <pt x="199" y="520" on="0"/>
        <pt x="169" y="422" on="0"/>
        <pt x="169" y="371" on="1"/>
        <pt x="169" y="319" on="0"/>
        <pt x="200" y="220" on="0"/>
        <pt x="261" y="141" on="0"/>
        <pt x="352" y="95" on="0"/>
        <pt x="413" y="95" on="1"/>
        <pt x="508" y="95" on="0"/>
        <pt x="620" y="203" on="0"/>
        <pt x="626" y="295" on="1"/>
        <pt x="415" y="295" on="1"/>
        <pt x="415" y="389" on="1"/>
        <pt x="739" y="389" on="1"/>
        <pt x="739" y="336" on="1"/>
        <pt x="739" y="222" on="0"/>
        <pt x="652" y="68" on="0"/>
        <pt x="503" y="-10" on="0"/>
      </contour>
    </TTGlyph>
    <TTGlyph name="H" xMin="76" yMin="0" xMax="641" yMax="740">
      <contour>
        <pt x="76" y="0" on="1"/>
        <pt x="76" y="740" on="1"/>
        <pt x="193" y="740" on="1"/>
        <pt x="193" y="428" on="1"/>
        <pt x="524" y="428" on="1"/>
        <pt x="524" y="740" on="1"/>
        <pt x="641" y="740" on="1"/>
        <pt x="641" y="0" on="1"/>
        <pt x="524" y="0" on="1"/>
        <pt x="524" y="324" on="1"/>
        <pt x="193" y="324" on="1"/>
        <pt x="193" y="0" on="1"/>
      </contour>
    </TTGlyph>
    <TTGlyph name="Hbar" xMin="26" yMin="0" xMax="752" yMax="740">
      <contour>
        <pt x="115" y="0" on="1"/>
        <pt x="115" y="569" on="1"/>
        <pt x="26" y="569" on="1"/>
        <pt x="26" y="665" on="1"/>
        <pt x="115" y="665" on="1"/>
        <pt x="115" y="740" on="1"/>
        <pt x="232" y="740" on="1"/>
        <pt x="232" y="665" on="1"/>
        <pt x="563" y="665" on="1"/>
        <pt x="563" y="740" on="1"/>
        <pt x="680" y="740" on="1"/>
        <pt x="680" y="665" on="1"/>
        <pt x="752" y="665" on="1"/>
        <pt x="752" y="569" on="1"/>
        <pt x="680" y="569" on="1"/>
        <pt x="680" y="0" on="1"/>
        <pt x="563" y="0" on="1"/>
        <pt x="563" y="324" on="1"/>
        <pt x="232" y="324" on="1"/>
        <pt x="232" y="0" on="1"/>
      </contour>
      <contour>
        <pt x="232" y="428" on="1"/>
        <pt x="563" y="428" on="1"/>
        <pt x="563" y="569" on="1"/>
        <pt x="232" y="569" on="1"/>
      </contour>
    </TTGlyph>
    <TTGlyph name="I" xMin="76" yMin="0" xMax="193" yMax="740">
      <contour>
        <pt x="76" y="0" on="1"/>
        <pt x="76" y="740" on="1"/>
        <pt x="193" y="740" on="1"/>
        <pt x="193" y="0" on="1"/>
      </contour>
    </TTGlyph>
    <TTGlyph name="Iacute" xMin="84" yMin="0" xMax="293" yMax="999">
      <contour>
        <pt x="188" y="818" on="1"/>
        <pt x="97" y="819" on="1"/>
        <pt x="181" y="999" on="1"/>
        <pt x="293" y="999" on="1"/>
      </contour>
      <contour>
        <pt x="84" y="0" on="1"/>
        <pt x="84" y="740" on="1"/>
        <pt x="201" y="740" on="1"/>
        <pt x="201" y="0" on="1"/>
      </contour>
    </TTGlyph>
    <TTGlyph name="Icircumflex" xMin="-28" yMin="0" xMax="314" yMax="984">
      <contour>
        <pt x="-28" y="813" on="1"/>
        <pt x="96" y="984" on="1"/>
        <pt x="190" y="984" on="1"/>
        <pt x="314" y="813" on="1"/>
        <pt x="217" y="813" on="1"/>
        <pt x="143" y="919" on="1"/>
        <pt x="69" y="813" on="1"/>
      </contour>
      <contour>
        <pt x="84" y="0" on="1"/>
        <pt x="84" y="740" on="1"/>
        <pt x="201" y="740" on="1"/>
        <pt x="201" y="0" on="1"/>
      </contour>
    </TTGlyph>
    <TTGlyph name="Idieresis" xMin="-29" yMin="0" xMax="313" yMax="952">
      <contour>
        <pt x="243" y="814" on="1"/>
        <pt x="213" y="814" on="0"/>
        <pt x="173" y="855" on="0"/>
        <pt x="173" y="883" on="1"/>
        <pt x="173" y="912" on="0"/>
        <pt x="213" y="952" on="0"/>
        <pt x="243" y="952" on="1"/>
        <pt x="273" y="952" on="0"/>
        <pt x="313" y="912" on="0"/>
        <pt x="313" y="883" on="1"/>
        <pt x="313" y="854" on="0"/>
        <pt x="273" y="814" on="0"/>
      </contour>
      <contour>
        <pt x="41" y="814" on="1"/>
        <pt x="10" y="814" on="0"/>
        <pt x="-29" y="855" on="0"/>
        <pt x="-29" y="883" on="1"/>
        <pt x="-29" y="912" on="0"/>
        <pt x="10" y="952" on="0"/>
        <pt x="41" y="952" on="1"/>
        <pt x="71" y="952" on="0"/>
        <pt x="111" y="912" on="0"/>
        <pt x="111" y="883" on="1"/>
        <pt x="111" y="854" on="0"/>
        <pt x="71" y="814" on="0"/>
      </contour>
      <contour>
        <pt x="84" y="0" on="1"/>
        <pt x="84" y="740" on="1"/>
        <pt x="201" y="740" on="1"/>
        <pt x="201" y="0" on="1"/>
      </contour>
    </TTGlyph>
    <TTGlyph name="Idotaccent" xMin="71" yMin="0" xMax="214" yMax="971">
      <contour>
        <pt x="142" y="831" on="1"/>
        <pt x="111" y="831" on="0"/>
        <pt x="71" y="873" on="0"/>
        <pt x="71" y="901" on="1"/>
        <pt x="71" y="930" on="0"/>
        <pt x="111" y="971" on="0"/>
        <pt x="142" y="971" on="1"/>
        <pt x="173" y="971" on="0"/>
        <pt x="214" y="930" on="0"/>
        <pt x="214" y="901" on="1"/>
        <pt x="214" y="872" on="0"/>
        <pt x="173" y="831" on="0"/>
      </contour>
      <contour>
        <pt x="84" y="0" on="1"/>
        <pt x="84" y="740" on="1"/>
        <pt x="201" y="740" on="1"/>
        <pt x="201" y="0" on="1"/>
      </contour>
    </TTGlyph>
    <TTGlyph name="Igrave" xMin="-5" yMin="0" xMax="201" yMax="999">
      <contour>
        <pt x="101" y="818" on="1"/>
        <pt x="-5" y="999" on="1"/>
        <pt x="108" y="999" on="1"/>
        <pt x="192" y="819" on="1"/>
      </contour>
      <contour>
        <pt x="84" y="0" on="1"/>
        <pt x="84" y="740" on="1"/>
        <pt x="201" y="740" on="1"/>
        <pt x="201" y="0" on="1"/>
      </contour>
    </TTGlyph>
    <TTGlyph name="Imacron" xMin="-13" yMin="0" xMax="298" yMax="910">
      <contour>
        <pt x="-13" y="832" on="1"/>
        <pt x="-13" y="910" on="1"/>
        <pt x="298" y="910" on="1"/>
        <pt x="298" y="832" on="1"/>
      </contour>
      <contour>
        <pt x="84" y="0" on="1"/>
        <pt x="84" y="740" on="1"/>
        <pt x="201" y="740" on="1"/>
        <pt x="201" y="0" on="1"/>
      </contour>
    </TTGlyph>
    <TTGlyph name="Iogonek" xMin="59" yMin="-175" xMax="240" yMax="740">
      <contour>
        <pt x="84" y="0" on="1"/>
        <pt x="84" y="740" on="1"/>
        <pt x="201" y="740" on="1"/>
        <pt x="201" y="0" on="1"/>
        <pt x="201" y="0" on="0"/>
        <pt x="174" y="-14" on="0"/>
        <pt x="148" y="-41" on="0"/>
        <pt x="148" y="-61" on="1"/>
        <pt x="148" y="-78" on="0"/>
        <pt x="175" y="-103" on="0"/>
        <pt x="204" y="-103" on="1"/>
        <pt x="217" y="-103" on="0"/>
        <pt x="240" y="-98" on="0"/>
        <pt x="240" y="-98" on="1"/>
        <pt x="240" y="-169" on="1"/>
        <pt x="240" y="-169" on="0"/>
        <pt x="208" y="-175" on="0"/>
        <pt x="185" y="-175" on="1"/>
        <pt x="121" y="-175" on="0"/>
        <pt x="59" y="-120" on="0"/>
        <pt x="59" y="-81" on="1"/>
        <pt x="59" y="-52" on="0"/>
        <pt x="89" y="-12" on="0"/>
        <pt x="107" y="0" on="1"/>
      </contour>
    </TTGlyph>
    <TTGlyph name="Itilde" xMin="-19" yMin="0" xMax="305" yMax="967">
      <contour>
        <pt x="212" y="826" on="1"/>
        <pt x="185" y="826" on="0"/>
        <pt x="148" y="846" on="0"/>
        <pt x="120" y="871" on="0"/>
        <pt x="95" y="891" on="0"/>
        <pt x="82" y="891" on="1"/>
        <pt x="65" y="891" on="0"/>
        <pt x="51" y="859" on="0"/>
        <pt x="51" y="832" on="1"/>
        <pt x="-19" y="832" on="1"/>
        <pt x="-19" y="864" on="0"/>
        <pt x="-3" y="926" on="0"/>
        <pt x="37" y="967" on="0"/>
        <pt x="75" y="967" on="1"/>
        <pt x="102" y="967" on="0"/>
        <pt x="140" y="948" on="0"/>
        <pt x="168" y="922" on="0"/>
        <pt x="192" y="903" on="0"/>
        <pt x="206" y="903" on="1"/>
        <pt x="221" y="903" on="0"/>
        <pt x="235" y="934" on="0"/>
        <pt x="235" y="962" on="1"/>
        <pt x="305" y="962" on="1"/>
        <pt x="305" y="930" on="0"/>
        <pt x="290" y="867" on="0"/>
        <pt x="250" y="826" on="0"/>
      </contour>
      <contour>
        <pt x="84" y="0" on="1"/>
        <pt x="84" y="740" on="1"/>
        <pt x="201" y="740" on="1"/>
        <pt x="201" y="0" on="1"/>
      </contour>
    </TTGlyph>
    <TTGlyph name="J" xMin="40" yMin="-10" xMax="398" yMax="740">
      <contour>
        <pt x="136" y="-10" on="1"/>
        <pt x="99" y="-10" on="0"/>
        <pt x="40" y="-2" on="0"/>
        <pt x="40" y="-2" on="1"/>
        <pt x="40" y="99" on="1"/>
        <pt x="40" y="99" on="0"/>
        <pt x="92" y="94" on="0"/>
        <pt x="119" y="94" on="1"/>
        <pt x="193" y="94" on="0"/>
        <pt x="281" y="166" on="0"/>
        <pt x="281" y="257" on="1"/>
        <pt x="281" y="740" on="1"/>
        <pt x="398" y="740" on="1"/>
        <pt x="398" y="256" on="1"/>
        <pt x="398" y="177" on="0"/>
        <pt x="340" y="57" on="0"/>
        <pt x="225" y="-10" on="0"/>
      </contour>
    </TTGlyph>
    <TTGlyph name="K" xMin="76" yMin="0" xMax="657" yMax="740">
      <contour>
        <pt x="76" y="0" on="1"/>
        <pt x="76" y="740" on="1"/>
        <pt x="193" y="740" on="1"/>
        <pt x="193" y="412" on="1"/>
        <pt x="494" y="739" on="1"/>
        <pt x="643" y="739" on="1"/>
        <pt x="310" y="384" on="1"/>
        <pt x="657" y="0" on="1"/>
        <pt x="503" y="0" on="1"/>
        <pt x="193" y="346" on="1"/>
        <pt x="193" y="0" on="1"/>
      </contour>
    </TTGlyph>
    <TTGlyph name="L" xMin="76" yMin="0" xMax="567" yMax="740">
      <contour>
        <pt x="76" y="0" on="1"/>
        <pt x="76" y="740" on="1"/>
        <pt x="193" y="740" on="1"/>
        <pt x="193" y="102" on="1"/>
        <pt x="567" y="102" on="1"/>
        <pt x="567" y="0" on="1"/>
      </contour>
    </TTGlyph>
    <TTGlyph name="Lacute" xMin="84" yMin="0" xMax="575" yMax="999">
      <contour>
        <pt x="195" y="818" on="1"/>
        <pt x="104" y="819" on="1"/>
        <pt x="188" y="999" on="1"/>
        <pt x="300" y="999" on="1"/>
      </contour>
      <contour>
        <pt x="84" y="0" on="1"/>
        <pt x="84" y="740" on="1"/>
        <pt x="201" y="740" on="1"/>
        <pt x="201" y="102" on="1"/>
        <pt x="575" y="102" on="1"/>
        <pt x="575" y="0" on="1"/>
      </contour>
    </TTGlyph>
    <TTGlyph name="Lcaron" xMin="-21" yMin="0" xMax="575" yMax="975">
      <contour>
        <pt x="103" y="804" on="1"/>
        <pt x="-21" y="975" on="1"/>
        <pt x="76" y="975" on="1"/>
        <pt x="150" y="869" on="1"/>
        <pt x="224" y="975" on="1"/>
        <pt x="321" y="975" on="1"/>
        <pt x="197" y="804" on="1"/>
      </contour>
      <contour>
        <pt x="84" y="0" on="1"/>
        <pt x="84" y="740" on="1"/>
        <pt x="201" y="740" on="1"/>
        <pt x="201" y="102" on="1"/>
        <pt x="575" y="102" on="1"/>
        <pt x="575" y="0" on="1"/>
      </contour>
    </TTGlyph>
    <TTGlyph name="Lslash" xMin="7" yMin="0" xMax="590" yMax="740">
      <contour>
        <pt x="98" y="0" on="1"/>
        <pt x="98" y="316" on="1"/>
        <pt x="7" y="285" on="1"/>
        <pt x="7" y="378" on="1"/>
        <pt x="98" y="408" on="1"/>
        <pt x="98" y="740" on="1"/>
        <pt x="215" y="740" on="1"/>
        <pt x="215" y="448" on="1"/>
        <pt x="374" y="501" on="1"/>
        <pt x="374" y="409" on="1"/>
        <pt x="215" y="355" on="1"/>
        <pt x="215" y="102" on="1"/>
        <pt x="590" y="102" on="1"/>
        <pt x="590" y="0" on="1"/>
      </contour>
    </TTGlyph>
    <TTGlyph name="M" xMin="76" yMin="0" xMax="789" yMax="740">
      <contour>
        <pt x="76" y="0" on="1"/>
        <pt x="76" y="740" on="1"/>
        <pt x="231" y="740" on="1"/>
        <pt x="432" y="319" on="1"/>
        <pt x="636" y="740" on="1"/>
        <pt x="789" y="740" on="1"/>
        <pt x="789" y="0" on="1"/>
        <pt x="674" y="0" on="1"/>
        <pt x="674" y="566" on="1"/>
        <pt x="487" y="184" on="1"/>
        <pt x="378" y="184" on="1"/>
        <pt x="191" y="568" on="1"/>
        <pt x="191" y="0" on="1"/>
      </contour>
    </TTGlyph>
    <TTGlyph name="N" xMin="76" yMin="0" xMax="662" yMax="740">
      <contour>
        <pt x="76" y="0" on="1"/>
        <pt x="76" y="740" on="1"/>
        <pt x="182" y="740" on="1"/>
        <pt x="545" y="208" on="1"/>
        <pt x="545" y="740" on="1"/>
        <pt x="662" y="740" on="1"/>
        <pt x="662" y="0" on="1"/>
        <pt x="555" y="0" on="1"/>
        <pt x="192" y="527" on="1"/>
        <pt x="192" y="0" on="1"/>
      </contour>
    </TTGlyph>
    <TTGlyph name="Nacute" xMin="84" yMin="0" xMax="670" yMax="999">
      <contour>
        <pt x="420" y="818" on="1"/>
        <pt x="329" y="819" on="1"/>
        <pt x="413" y="999" on="1"/>
        <pt x="525" y="999" on="1"/>
      </contour>
      <contour>
        <pt x="84" y="0" on="1"/>
        <pt x="84" y="740" on="1"/>
        <pt x="190" y="740" on="1"/>
        <pt x="553" y="208" on="1"/>
        <pt x="553" y="740" on="1"/>
        <pt x="670" y="740" on="1"/>
        <pt x="670" y="0" on="1"/>
        <pt x="563" y="0" on="1"/>
        <pt x="200" y="527" on="1"/>
        <pt x="200" y="0" on="1"/>
      </contour>
    </TTGlyph>
    <TTGlyph name="Ncaron" xMin="84" yMin="0" xMax="670" yMax="975">
      <contour>
        <pt x="328" y="804" on="1"/>
        <pt x="204" y="975" on="1"/>
        <pt x="301" y="975" on="1"/>
        <pt x="375" y="869" on="1"/>
        <pt x="449" y="975" on="1"/>
        <pt x="546" y="975" on="1"/>
        <pt x="422" y="804" on="1"/>
      </contour>
      <contour>
        <pt x="84" y="0" on="1"/>
        <pt x="84" y="740" on="1"/>
        <pt x="190" y="740" on="1"/>
        <pt x="553" y="208" on="1"/>
        <pt x="553" y="740" on="1"/>
        <pt x="670" y="740" on="1"/>
        <pt x="670" y="0" on="1"/>
        <pt x="563" y="0" on="1"/>
        <pt x="200" y="527" on="1"/>
        <pt x="200" y="0" on="1"/>
      </contour>
    </TTGlyph>
    <TTGlyph name="Ntilde" xMin="84" yMin="0" xMax="670" yMax="967">
      <contour>
        <pt x="444" y="826" on="1"/>
        <pt x="417" y="826" on="0"/>
        <pt x="380" y="846" on="0"/>
        <pt x="352" y="871" on="0"/>
        <pt x="327" y="891" on="0"/>
        <pt x="314" y="891" on="1"/>
        <pt x="297" y="891" on="0"/>
        <pt x="283" y="859" on="0"/>
        <pt x="283" y="832" on="1"/>
        <pt x="213" y="832" on="1"/>
        <pt x="213" y="864" on="0"/>
        <pt x="229" y="926" on="0"/>
        <pt x="269" y="967" on="0"/>
        <pt x="307" y="967" on="1"/>
        <pt x="334" y="967" on="0"/>
        <pt x="372" y="948" on="0"/>
        <pt x="400" y="922" on="0"/>
        <pt x="424" y="903" on="0"/>
        <pt x="438" y="903" on="1"/>
        <pt x="453" y="903" on="0"/>
        <pt x="467" y="934" on="0"/>
        <pt x="467" y="962" on="1"/>
        <pt x="537" y="962" on="1"/>
        <pt x="537" y="930" on="0"/>
        <pt x="522" y="867" on="0"/>
        <pt x="482" y="826" on="0"/>
      </contour>
      <contour>
        <pt x="84" y="0" on="1"/>
        <pt x="84" y="740" on="1"/>
        <pt x="190" y="740" on="1"/>
        <pt x="553" y="208" on="1"/>
        <pt x="553" y="740" on="1"/>
        <pt x="670" y="740" on="1"/>
        <pt x="670" y="0" on="1"/>
        <pt x="563" y="0" on="1"/>
        <pt x="200" y="527" on="1"/>
        <pt x="200" y="0" on="1"/>
      </contour>
    </TTGlyph>
    <TTGlyph name="O" xMin="50" yMin="-10" xMax="777" yMax="750">
      <contour>
        <pt x="413" y="-10" on="1"/>
        <pt x="324" y="-10" on="0"/>
        <pt x="188" y="55" on="0"/>
        <pt x="96" y="164" on="0"/>
        <pt x="50" y="300" on="0"/>
        <pt x="50" y="371" on="1"/>
        <pt x="50" y="442" on="0"/>
        <pt x="96" y="577" on="0"/>
        <pt x="188" y="685" on="0"/>
        <pt x="324" y="750" on="0"/>
        <pt x="413" y="750" on="1"/>
        <pt x="503" y="750" on="0"/>
        <pt x="639" y="685" on="0"/>
        <pt x="731" y="577" on="0"/>
        <pt x="777" y="442" on="0"/>
        <pt x="777" y="371" on="1"/>
        <pt x="777" y="300" on="0"/>
        <pt x="731" y="164" on="0"/>
        <pt x="639" y="55" on="0"/>
        <pt x="503" y="-10" on="0"/>
      </contour>
      <contour>
        <pt x="413" y="97" on="1"/>
        <pt x="493" y="97" on="0"/>
        <pt x="601" y="176" on="0"/>
        <pt x="657" y="301" on="0"/>
        <pt x="657" y="371" on="1"/>
        <pt x="657" y="423" on="0"/>
        <pt x="625" y="520" on="0"/>
        <pt x="564" y="598" on="0"/>
        <pt x="473" y="643" on="0"/>
        <pt x="413" y="643" on="1"/>
        <pt x="354" y="643" on="0"/>
        <pt x="263" y="598" on="0"/>
        <pt x="202" y="520" on="0"/>
        <pt x="170" y="423" on="0"/>
        <pt x="170" y="371" on="1"/>
        <pt x="170" y="301" on="0"/>
        <pt x="226" y="176" on="0"/>
        <pt x="334" y="97" on="0"/>
      </contour>
    </TTGlyph>
    <TTGlyph name="OE" xMin="50" yMin="0" xMax="951" yMax="740">
      <contour>
        <pt x="946" y="740" on="1"/>
        <pt x="946" y="638" on="1"/>
        <pt x="588" y="638" on="1"/>
        <pt x="588" y="427" on="1"/>
        <pt x="900" y="427" on="1"/>
        <pt x="900" y="326" on="1"/>
        <pt x="588" y="326" on="1"/>
        <pt x="588" y="102" on="1"/>
        <pt x="951" y="102" on="1"/>
        <pt x="951" y="0" on="1"/>
        <pt x="428" y="0" on="1"/>
        <pt x="331" y="0" on="0"/>
        <pt x="188" y="63" on="0"/>
        <pt x="95" y="169" on="0"/>
        <pt x="50" y="301" on="0"/>
        <pt x="50" y="370" on="1"/>
        <pt x="50" y="439" on="0"/>
        <pt x="95" y="571" on="0"/>
        <pt x="188" y="677" on="0"/>
        <pt x="331" y="740" on="0"/>
        <pt x="428" y="740" on="1"/>
      </contour>
      <contour>
        <pt x="167" y="370" on="1"/>
        <pt x="167" y="320" on="0"/>
        <pt x="198" y="224" on="0"/>
        <pt x="262" y="148" on="0"/>
        <pt x="362" y="102" on="0"/>
        <pt x="431" y="102" on="1"/>
        <pt x="471" y="102" on="1"/>
        <pt x="471" y="637" on="1"/>
        <pt x="431" y="637" on="1"/>
        <pt x="362" y="637" on="0"/>
        <pt x="262" y="592" on="0"/>
        <pt x="198" y="515" on="0"/>
        <pt x="167" y="420" on="0"/>
      </contour>
    </TTGlyph>
    <TTGlyph name="Oacute" xMin="50" yMin="-10" xMax="777" yMax="1009">
      <contour>
        <pt x="459" y="828" on="1"/>
        <pt x="368" y="829" on="1"/>
        <pt x="452" y="1009" on="1"/>
        <pt x="564" y="1009" on="1"/>
      </contour>
      <contour>
        <pt x="413" y="-10" on="1"/>
        <pt x="324" y="-10" on="0"/>
        <pt x="188" y="55" on="0"/>
        <pt x="96" y="164" on="0"/>
        <pt x="50" y="300" on="0"/>
        <pt x="50" y="371" on="1"/>
        <pt x="50" y="442" on="0"/>
        <pt x="96" y="577" on="0"/>
        <pt x="188" y="685" on="0"/>
        <pt x="324" y="750" on="0"/>
        <pt x="413" y="750" on="1"/>
        <pt x="503" y="750" on="0"/>
        <pt x="639" y="685" on="0"/>
        <pt x="731" y="577" on="0"/>
        <pt x="777" y="442" on="0"/>
        <pt x="777" y="371" on="1"/>
        <pt x="777" y="300" on="0"/>
        <pt x="731" y="164" on="0"/>
        <pt x="639" y="55" on="0"/>
        <pt x="503" y="-10" on="0"/>
      </contour>
      <contour>
        <pt x="413" y="97" on="1"/>
        <pt x="493" y="97" on="0"/>
        <pt x="601" y="176" on="0"/>
        <pt x="657" y="301" on="0"/>
        <pt x="657" y="371" on="1"/>
        <pt x="657" y="423" on="0"/>
        <pt x="625" y="520" on="0"/>
        <pt x="564" y="598" on="0"/>
        <pt x="473" y="643" on="0"/>
        <pt x="413" y="643" on="1"/>
        <pt x="354" y="643" on="0"/>
        <pt x="263" y="598" on="0"/>
        <pt x="202" y="520" on="0"/>
        <pt x="170" y="423" on="0"/>
        <pt x="170" y="371" on="1"/>
        <pt x="170" y="301" on="0"/>
        <pt x="226" y="176" on="0"/>
        <pt x="334" y="97" on="0"/>
      </contour>
    </TTGlyph>
    <TTGlyph name="Ocircumflex" xMin="50" yMin="-10" xMax="777" yMax="972">
      <contour>
        <pt x="243" y="823" on="1"/>
        <pt x="367" y="972" on="1"/>
        <pt x="461" y="972" on="1"/>
        <pt x="585" y="823" on="1"/>
        <pt x="488" y="823" on="1"/>
        <pt x="414" y="912" on="1"/>
        <pt x="340" y="823" on="1"/>
      </contour>
      <contour>
        <pt x="413" y="-10" on="1"/>
        <pt x="324" y="-10" on="0"/>
        <pt x="188" y="55" on="0"/>
        <pt x="96" y="164" on="0"/>
        <pt x="50" y="300" on="0"/>
        <pt x="50" y="371" on="1"/>
        <pt x="50" y="442" on="0"/>
        <pt x="96" y="577" on="0"/>
        <pt x="188" y="685" on="0"/>
        <pt x="324" y="750" on="0"/>
        <pt x="413" y="750" on="1"/>
        <pt x="503" y="750" on="0"/>
        <pt x="639" y="685" on="0"/>
        <pt x="731" y="577" on="0"/>
        <pt x="777" y="442" on="0"/>
        <pt x="777" y="371" on="1"/>
        <pt x="777" y="300" on="0"/>
        <pt x="731" y="164" on="0"/>
        <pt x="639" y="55" on="0"/>
        <pt x="503" y="-10" on="0"/>
      </contour>
      <contour>
        <pt x="413" y="97" on="1"/>
        <pt x="493" y="97" on="0"/>
        <pt x="601" y="176" on="0"/>
        <pt x="657" y="301" on="0"/>
        <pt x="657" y="371" on="1"/>
        <pt x="657" y="423" on="0"/>
        <pt x="625" y="520" on="0"/>
        <pt x="564" y="598" on="0"/>
        <pt x="473" y="643" on="0"/>
        <pt x="413" y="643" on="1"/>
        <pt x="354" y="643" on="0"/>
        <pt x="263" y="598" on="0"/>
        <pt x="202" y="520" on="0"/>
        <pt x="170" y="423" on="0"/>
        <pt x="170" y="371" on="1"/>
        <pt x="170" y="301" on="0"/>
        <pt x="226" y="176" on="0"/>
        <pt x="334" y="97" on="0"/>
      </contour>
    </TTGlyph>
    <TTGlyph name="Odieresis" xMin="50" yMin="-10" xMax="777" yMax="962">
      <contour>
        <pt x="514" y="824" on="1"/>
        <pt x="484" y="824" on="0"/>
        <pt x="444" y="865" on="0"/>
        <pt x="444" y="893" on="1"/>
        <pt x="444" y="922" on="0"/>
        <pt x="484" y="962" on="0"/>
        <pt x="514" y="962" on="1"/>
        <pt x="544" y="962" on="0"/>
        <pt x="584" y="922" on="0"/>
        <pt x="584" y="893" on="1"/>
        <pt x="584" y="864" on="0"/>
        <pt x="544" y="824" on="0"/>
      </contour>
      <contour>
        <pt x="312" y="824" on="1"/>
        <pt x="281" y="824" on="0"/>
        <pt x="242" y="865" on="0"/>
        <pt x="242" y="893" on="1"/>
        <pt x="242" y="922" on="0"/>
        <pt x="281" y="962" on="0"/>
        <pt x="312" y="962" on="1"/>
        <pt x="342" y="962" on="0"/>
        <pt x="382" y="922" on="0"/>
        <pt x="382" y="893" on="1"/>
        <pt x="382" y="864" on="0"/>
        <pt x="342" y="824" on="0"/>
      </contour>
      <contour>
        <pt x="413" y="-10" on="1"/>
        <pt x="324" y="-10" on="0"/>
        <pt x="188" y="55" on="0"/>
        <pt x="96" y="164" on="0"/>
        <pt x="50" y="300" on="0"/>
        <pt x="50" y="371" on="1"/>
        <pt x="50" y="442" on="0"/>
        <pt x="96" y="577" on="0"/>
        <pt x="188" y="685" on="0"/>
        <pt x="324" y="750" on="0"/>
        <pt x="413" y="750" on="1"/>
        <pt x="503" y="750" on="0"/>
        <pt x="639" y="685" on="0"/>
        <pt x="731" y="577" on="0"/>
        <pt x="777" y="442" on="0"/>
        <pt x="777" y="371" on="1"/>
        <pt x="777" y="300" on="0"/>
        <pt x="731" y="164" on="0"/>
        <pt x="639" y="55" on="0"/>
        <pt x="503" y="-10" on="0"/>
      </contour>
      <contour>
        <pt x="413" y="97" on="1"/>
        <pt x="493" y="97" on="0"/>
        <pt x="601" y="176" on="0"/>
        <pt x="657" y="301" on="0"/>
        <pt x="657" y="371" on="1"/>
        <pt x="657" y="423" on="0"/>
        <pt x="625" y="520" on="0"/>
        <pt x="564" y="598" on="0"/>
        <pt x="473" y="643" on="0"/>
        <pt x="413" y="643" on="1"/>
        <pt x="354" y="643" on="0"/>
        <pt x="263" y="598" on="0"/>
        <pt x="202" y="520" on="0"/>
        <pt x="170" y="423" on="0"/>
        <pt x="170" y="371" on="1"/>
        <pt x="170" y="301" on="0"/>
        <pt x="226" y="176" on="0"/>
        <pt x="334" y="97" on="0"/>
      </contour>
    </TTGlyph>
    <TTGlyph name="Ograve" xMin="50" yMin="-10" xMax="777" yMax="1009">
      <contour>
        <pt x="372" y="828" on="1"/>
        <pt x="266" y="1009" on="1"/>
        <pt x="379" y="1009" on="1"/>
        <pt x="463" y="829" on="1"/>
      </contour>
      <contour>
        <pt x="413" y="-10" on="1"/>
        <pt x="324" y="-10" on="0"/>
        <pt x="188" y="55" on="0"/>
        <pt x="96" y="164" on="0"/>
        <pt x="50" y="300" on="0"/>
        <pt x="50" y="371" on="1"/>
        <pt x="50" y="442" on="0"/>
        <pt x="96" y="577" on="0"/>
        <pt x="188" y="685" on="0"/>
        <pt x="324" y="750" on="0"/>
        <pt x="413" y="750" on="1"/>
        <pt x="503" y="750" on="0"/>
        <pt x="639" y="685" on="0"/>
        <pt x="731" y="577" on="0"/>
        <pt x="777" y="442" on="0"/>
        <pt x="777" y="371" on="1"/>
        <pt x="777" y="300" on="0"/>
        <pt x="731" y="164" on="0"/>
        <pt x="639" y="55" on="0"/>
        <pt x="503" y="-10" on="0"/>
      </contour>
      <contour>
        <pt x="413" y="97" on="1"/>
        <pt x="493" y="97" on="0"/>
        <pt x="601" y="176" on="0"/>
        <pt x="657" y="301" on="0"/>
        <pt x="657" y="371" on="1"/>
        <pt x="657" y="423" on="0"/>
        <pt x="625" y="520" on="0"/>
        <pt x="564" y="598" on="0"/>
        <pt x="473" y="643" on="0"/>
        <pt x="413" y="643" on="1"/>
        <pt x="354" y="643" on="0"/>
        <pt x="263" y="598" on="0"/>
        <pt x="202" y="520" on="0"/>
        <pt x="170" y="423" on="0"/>
        <pt x="170" y="371" on="1"/>
        <pt x="170" y="301" on="0"/>
        <pt x="226" y="176" on="0"/>
        <pt x="334" y="97" on="0"/>
      </contour>
    </TTGlyph>
    <TTGlyph name="Ohorn" xMin="50" yMin="-10" xMax="777" yMax="854">
      <contour>
        <pt x="413" y="-10" on="1"/>
        <pt x="324" y="-10" on="0"/>
        <pt x="188" y="55" on="0"/>
        <pt x="96" y="164" on="0"/>
        <pt x="50" y="300" on="0"/>
        <pt x="50" y="371" on="1"/>
        <pt x="50" y="442" on="0"/>
        <pt x="96" y="577" on="0"/>
        <pt x="188" y="685" on="0"/>
        <pt x="324" y="750" on="0"/>
        <pt x="413" y="750" on="1"/>
        <pt x="420" y="750" on="0"/>
        <pt x="426" y="750" on="1"/>
        <pt x="585" y="750" on="1"/>
        <pt x="629" y="750" on="0"/>
        <pt x="629" y="795" on="1"/>
        <pt x="629" y="854" on="1"/>
        <pt x="733" y="854" on="1"/>
        <pt x="733" y="790" on="1"/>
        <pt x="733" y="739" on="0"/>
        <pt x="687" y="681" on="0"/>
        <pt x="636" y="677" on="1"/>
        <pt x="706" y="623" on="0"/>
        <pt x="777" y="458" on="0"/>
        <pt x="777" y="371" on="1"/>
        <pt x="777" y="300" on="0"/>
        <pt x="731" y="164" on="0"/>
        <pt x="639" y="55" on="0"/>
        <pt x="503" y="-10" on="0"/>
      </contour>
      <contour>
        <pt x="413" y="97" on="1"/>
        <pt x="493" y="97" on="0"/>
        <pt x="601" y="176" on="0"/>
        <pt x="657" y="301" on="0"/>
        <pt x="657" y="371" on="1"/>
        <pt x="657" y="423" on="0"/>
        <pt x="625" y="520" on="0"/>
        <pt x="564" y="598" on="0"/>
        <pt x="473" y="643" on="0"/>
        <pt x="413" y="643" on="1"/>
        <pt x="354" y="643" on="0"/>
        <pt x="263" y="598" on="0"/>
        <pt x="202" y="520" on="0"/>
        <pt x="170" y="423" on="0"/>
        <pt x="170" y="371" on="1"/>
        <pt x="170" y="301" on="0"/>
        <pt x="226" y="176" on="0"/>
        <pt x="334" y="97" on="0"/>
      </contour>
    </TTGlyph>
    <TTGlyph name="Ohungarumlaut" xMin="50" yMin="-10" xMax="777" yMax="1009">
      <contour>
        <pt x="372" y="828" on="1"/>
        <pt x="282" y="829" on="1"/>
        <pt x="328" y="1009" on="1"/>
        <pt x="439" y="1009" on="1"/>
      </contour>
      <contour>
        <pt x="541" y="828" on="1"/>
        <pt x="452" y="829" on="1"/>
        <pt x="498" y="1009" on="1"/>
        <pt x="609" y="1009" on="1"/>
      </contour>
      <contour>
        <pt x="413" y="-10" on="1"/>
        <pt x="324" y="-10" on="0"/>
        <pt x="188" y="55" on="0"/>
        <pt x="96" y="164" on="0"/>
        <pt x="50" y="300" on="0"/>
        <pt x="50" y="371" on="1"/>
        <pt x="50" y="442" on="0"/>
        <pt x="96" y="577" on="0"/>
        <pt x="188" y="685" on="0"/>
        <pt x="324" y="750" on="0"/>
        <pt x="413" y="750" on="1"/>
        <pt x="503" y="750" on="0"/>
        <pt x="639" y="685" on="0"/>
        <pt x="731" y="577" on="0"/>
        <pt x="777" y="442" on="0"/>
        <pt x="777" y="371" on="1"/>
        <pt x="777" y="300" on="0"/>
        <pt x="731" y="164" on="0"/>
        <pt x="639" y="55" on="0"/>
        <pt x="503" y="-10" on="0"/>
      </contour>
      <contour>
        <pt x="413" y="97" on="1"/>
        <pt x="493" y="97" on="0"/>
        <pt x="601" y="176" on="0"/>
        <pt x="657" y="301" on="0"/>
        <pt x="657" y="371" on="1"/>
        <pt x="657" y="423" on="0"/>
        <pt x="625" y="520" on="0"/>
        <pt x="564" y="598" on="0"/>
        <pt x="473" y="643" on="0"/>
        <pt x="413" y="643" on="1"/>
        <pt x="354" y="643" on="0"/>
        <pt x="263" y="598" on="0"/>
        <pt x="202" y="520" on="0"/>
        <pt x="170" y="423" on="0"/>
        <pt x="170" y="371" on="1"/>
        <pt x="170" y="301" on="0"/>
        <pt x="226" y="176" on="0"/>
        <pt x="334" y="97" on="0"/>
      </contour>
    </TTGlyph>
    <TTGlyph name="Omacron" xMin="50" yMin="-10" xMax="777" yMax="920">
      <contour>
        <pt x="258" y="842" on="1"/>
        <pt x="258" y="920" on="1"/>
        <pt x="569" y="920" on="1"/>
        <pt x="569" y="842" on="1"/>
      </contour>
      <contour>
        <pt x="413" y="-10" on="1"/>
        <pt x="324" y="-10" on="0"/>
        <pt x="188" y="55" on="0"/>
        <pt x="96" y="164" on="0"/>
        <pt x="50" y="300" on="0"/>
        <pt x="50" y="371" on="1"/>
        <pt x="50" y="442" on="0"/>
        <pt x="96" y="577" on="0"/>
        <pt x="188" y="685" on="0"/>
        <pt x="324" y="750" on="0"/>
        <pt x="413" y="750" on="1"/>
        <pt x="503" y="750" on="0"/>
        <pt x="639" y="685" on="0"/>
        <pt x="731" y="577" on="0"/>
        <pt x="777" y="442" on="0"/>
        <pt x="777" y="371" on="1"/>
        <pt x="777" y="300" on="0"/>
        <pt x="731" y="164" on="0"/>
        <pt x="639" y="55" on="0"/>
        <pt x="503" y="-10" on="0"/>
      </contour>
      <contour>
        <pt x="413" y="97" on="1"/>
        <pt x="493" y="97" on="0"/>
        <pt x="601" y="176" on="0"/>
        <pt x="657" y="301" on="0"/>
        <pt x="657" y="371" on="1"/>
        <pt x="657" y="423" on="0"/>
        <pt x="625" y="520" on="0"/>
        <pt x="564" y="598" on="0"/>
        <pt x="473" y="643" on="0"/>
        <pt x="413" y="643" on="1"/>
        <pt x="354" y="643" on="0"/>
        <pt x="263" y="598" on="0"/>
        <pt x="202" y="520" on="0"/>
        <pt x="170" y="423" on="0"/>
        <pt x="170" y="371" on="1"/>
        <pt x="170" y="301" on="0"/>
        <pt x="226" y="176" on="0"/>
        <pt x="334" y="97" on="0"/>
      </contour>
    </TTGlyph>
    <TTGlyph name="Oslash" xMin="50" yMin="-24" xMax="777" yMax="763">
      <contour>
        <pt x="101" y="-24" on="1"/>
        <pt x="169" y="82" on="1"/>
        <pt x="110" y="137" on="0"/>
        <pt x="50" y="290" on="0"/>
        <pt x="50" y="371" on="1"/>
        <pt x="50" y="442" on="0"/>
        <pt x="96" y="577" on="0"/>
        <pt x="188" y="685" on="0"/>
        <pt x="324" y="750" on="0"/>
        <pt x="413" y="750" on="1"/>
        <pt x="459" y="750" on="0"/>
        <pt x="540" y="732" on="0"/>
        <pt x="575" y="716" on="1"/>
        <pt x="605" y="763" on="1"/>
        <pt x="725" y="763" on="1"/>
        <pt x="658" y="659" on="1"/>
        <pt x="717" y="604" on="0"/>
        <pt x="777" y="451" on="0"/>
        <pt x="777" y="371" on="1"/>
        <pt x="777" y="300" on="0"/>
        <pt x="731" y="164" on="0"/>
        <pt x="639" y="55" on="0"/>
        <pt x="503" y="-10" on="0"/>
        <pt x="413" y="-10" on="1"/>
        <pt x="367" y="-10" on="0"/>
        <pt x="287" y="8" on="0"/>
        <pt x="252" y="25" on="1"/>
        <pt x="221" y="-24" on="1"/>
      </contour>
      <contour>
        <pt x="170" y="371" on="1"/>
        <pt x="170" y="318" on="0"/>
        <pt x="202" y="220" on="0"/>
        <pt x="233" y="181" on="1"/>
        <pt x="515" y="622" on="1"/>
        <pt x="469" y="643" on="0"/>
        <pt x="413" y="643" on="1"/>
        <pt x="354" y="643" on="0"/>
        <pt x="263" y="598" on="0"/>
        <pt x="202" y="520" on="0"/>
        <pt x="170" y="423" on="0"/>
      </contour>
      <contour>
        <pt x="413" y="97" on="1"/>
        <pt x="493" y="97" on="0"/>
        <pt x="601" y="176" on="0"/>
        <pt x="657" y="301" on="0"/>
        <pt x="657" y="371" on="1"/>
        <pt x="657" y="423" on="0"/>
        <pt x="625" y="521" on="0"/>
        <pt x="594" y="559" on="1"/>
        <pt x="312" y="118" on="1"/>
        <pt x="358" y="97" on="0"/>
      </contour>
    </TTGlyph>
    <TTGlyph name="Otilde" xMin="50" yMin="-10" xMax="777" yMax="977">
      <contour>
        <pt x="483" y="836" on="1"/>
        <pt x="456" y="836" on="0"/>
        <pt x="419" y="856" on="0"/>
        <pt x="391" y="881" on="0"/>
        <pt x="366" y="901" on="0"/>
        <pt x="353" y="901" on="1"/>
        <pt x="336" y="901" on="0"/>
        <pt x="322" y="869" on="0"/>
        <pt x="322" y="842" on="1"/>
        <pt x="252" y="842" on="1"/>
        <pt x="252" y="874" on="0"/>
        <pt x="268" y="936" on="0"/>
        <pt x="308" y="977" on="0"/>
        <pt x="346" y="977" on="1"/>
        <pt x="373" y="977" on="0"/>
        <pt x="411" y="958" on="0"/>
        <pt x="439" y="932" on="0"/>
        <pt x="463" y="913" on="0"/>
        <pt x="477" y="913" on="1"/>
        <pt x="492" y="913" on="0"/>
        <pt x="506" y="944" on="0"/>
        <pt x="506" y="972" on="1"/>
        <pt x="576" y="972" on="1"/>
        <pt x="576" y="940" on="0"/>
        <pt x="561" y="877" on="0"/>
        <pt x="521" y="836" on="0"/>
      </contour>
      <contour>
        <pt x="413" y="-10" on="1"/>
        <pt x="324" y="-10" on="0"/>
        <pt x="188" y="55" on="0"/>
        <pt x="96" y="164" on="0"/>
        <pt x="50" y="300" on="0"/>
        <pt x="50" y="371" on="1"/>
        <pt x="50" y="442" on="0"/>
        <pt x="96" y="577" on="0"/>
        <pt x="188" y="685" on="0"/>
        <pt x="324" y="750" on="0"/>
        <pt x="413" y="750" on="1"/>
        <pt x="503" y="750" on="0"/>
        <pt x="639" y="685" on="0"/>
        <pt x="731" y="577" on="0"/>
        <pt x="777" y="442" on="0"/>
        <pt x="777" y="371" on="1"/>
        <pt x="777" y="300" on="0"/>
        <pt x="731" y="164" on="0"/>
        <pt x="639" y="55" on="0"/>
        <pt x="503" y="-10" on="0"/>
      </contour>
      <contour>
        <pt x="413" y="97" on="1"/>
        <pt x="493" y="97" on="0"/>
        <pt x="601" y="176" on="0"/>
        <pt x="657" y="301" on="0"/>
        <pt x="657" y="371" on="1"/>
        <pt x="657" y="423" on="0"/>
        <pt x="625" y="520" on="0"/>
        <pt x="564" y="598" on="0"/>
        <pt x="473" y="643" on="0"/>
        <pt x="413" y="643" on="1"/>
        <pt x="354" y="643" on="0"/>
        <pt x="263" y="598" on="0"/>
        <pt x="202" y="520" on="0"/>
        <pt x="170" y="423" on="0"/>
        <pt x="170" y="371" on="1"/>
        <pt x="170" y="301" on="0"/>
        <pt x="226" y="176" on="0"/>
        <pt x="334" y="97" on="0"/>
      </contour>
    </TTGlyph>
    <TTGlyph name="P" xMin="76" yMin="0" xMax="615" yMax="740">
      <contour>
        <pt x="76" y="0" on="1"/>
        <pt x="76" y="740" on="1"/>
        <pt x="354" y="740" on="1"/>
        <pt x="441" y="740" on="0"/>
        <pt x="557" y="669" on="0"/>
        <pt x="615" y="558" on="0"/>
        <pt x="615" y="497" on="1"/>
        <pt x="615" y="436" on="0"/>
        <pt x="557" y="324" on="0"/>
        <pt x="441" y="253" on="0"/>
        <pt x="354" y="253" on="1"/>
        <pt x="193" y="253" on="1"/>
        <pt x="193" y="0" on="1"/>
      </contour>
      <contour>
        <pt x="354" y="638" on="1"/>
        <pt x="193" y="638" on="1"/>
        <pt x="193" y="355" on="1"/>
        <pt x="354" y="355" on="1"/>
        <pt x="402" y="355" on="0"/>
        <pt x="466" y="396" on="0"/>
        <pt x="498" y="461" on="0"/>
        <pt x="498" y="496" on="1"/>
        <pt x="498" y="532" on="0"/>
        <pt x="466" y="597" on="0"/>
        <pt x="402" y="638" on="0"/>
      </contour>
    </TTGlyph>
    <TTGlyph name="Q" xMin="50" yMin="-10" xMax="795" yMax="750">
      <contour>
        <pt x="413" y="-10" on="1"/>
        <pt x="324" y="-10" on="0"/>
        <pt x="188" y="55" on="0"/>
        <pt x="96" y="164" on="0"/>
        <pt x="50" y="300" on="0"/>
        <pt x="50" y="371" on="1"/>
        <pt x="50" y="442" on="0"/>
        <pt x="96" y="577" on="0"/>
        <pt x="188" y="685" on="0"/>
        <pt x="324" y="750" on="0"/>
        <pt x="413" y="750" on="1"/>
        <pt x="503" y="750" on="0"/>
        <pt x="639" y="685" on="0"/>
        <pt x="731" y="577" on="0"/>
        <pt x="777" y="442" on="0"/>
        <pt x="777" y="371" on="1"/>
        <pt x="777" y="301" on="0"/>
        <pt x="732" y="165" on="0"/>
        <pt x="687" y="112" on="1"/>
        <pt x="795" y="0" on="1"/>
        <pt x="658" y="0" on="1"/>
        <pt x="613" y="46" on="1"/>
        <pt x="573" y="20" on="0"/>
        <pt x="473" y="-10" on="0"/>
      </contour>
      <contour>
        <pt x="413" y="97" on="1"/>
        <pt x="448" y="97" on="0"/>
        <pt x="508" y="113" on="0"/>
        <pt x="533" y="128" on="1"/>
        <pt x="417" y="248" on="1"/>
        <pt x="491" y="315" on="1"/>
        <pt x="606" y="196" on="1"/>
        <pt x="631" y="233" on="0"/>
        <pt x="657" y="323" on="0"/>
        <pt x="657" y="371" on="1"/>
        <pt x="657" y="423" on="0"/>
        <pt x="625" y="520" on="0"/>
        <pt x="564" y="598" on="0"/>
        <pt x="473" y="643" on="0"/>
        <pt x="413" y="643" on="1"/>
        <pt x="354" y="643" on="0"/>
        <pt x="263" y="598" on="0"/>
        <pt x="202" y="520" on="0"/>
        <pt x="170" y="423" on="0"/>
        <pt x="170" y="371" on="1"/>
        <pt x="170" y="301" on="0"/>
        <pt x="226" y="176" on="0"/>
        <pt x="334" y="97" on="0"/>
      </contour>
    </TTGlyph>
    <TTGlyph name="R" xMin="76" yMin="0" xMax="618" yMax="740">
      <contour>
        <pt x="76" y="0" on="1"/>
        <pt x="76" y="740" on="1"/>
        <pt x="351" y="740" on="1"/>
        <pt x="430" y="740" on="0"/>
        <pt x="539" y="679" on="0"/>
        <pt x="595" y="580" on="0"/>
        <pt x="595" y="522" on="1"/>
        <pt x="595" y="452" on="0"/>
        <pt x="516" y="338" on="0"/>
        <pt x="440" y="315" on="1"/>
        <pt x="618" y="0" on="1"/>
        <pt x="487" y="0" on="1"/>
        <pt x="319" y="302" on="1"/>
        <pt x="193" y="302" on="1"/>
        <pt x="193" y="0" on="1"/>
      </contour>
      <contour>
        <pt x="349" y="638" on="1"/>
        <pt x="193" y="638" on="1"/>
        <pt x="193" y="400" on="1"/>
        <pt x="349" y="400" on="1"/>
        <pt x="412" y="400" on="0"/>
        <pt x="476" y="473" on="0"/>
        <pt x="476" y="519" on="1"/>
        <pt x="476" y="565" on="0"/>
        <pt x="412" y="638" on="0"/>
      </contour>
    </TTGlyph>
    <TTGlyph name="Racute" xMin="84" yMin="0" xMax="626" yMax="999">
      <contour>
        <pt x="325" y="818" on="1"/>
        <pt x="233" y="819" on="1"/>
        <pt x="317" y="999" on="1"/>
        <pt x="430" y="999" on="1"/>
      </contour>
      <contour>
        <pt x="84" y="0" on="1"/>
        <pt x="84" y="740" on="1"/>
        <pt x="359" y="740" on="1"/>
        <pt x="438" y="740" on="0"/>
        <pt x="547" y="679" on="0"/>
        <pt x="603" y="580" on="0"/>
        <pt x="603" y="522" on="1"/>
        <pt x="603" y="452" on="0"/>
        <pt x="524" y="338" on="0"/>
        <pt x="448" y="315" on="1"/>
        <pt x="626" y="0" on="1"/>
        <pt x="495" y="0" on="1"/>
        <pt x="327" y="302" on="1"/>
        <pt x="201" y="302" on="1"/>
        <pt x="201" y="0" on="1"/>
      </contour>
      <contour>
        <pt x="357" y="638" on="1"/>
        <pt x="201" y="638" on="1"/>
        <pt x="201" y="400" on="1"/>
        <pt x="357" y="400" on="1"/>
        <pt x="420" y="400" on="0"/>
        <pt x="484" y="473" on="0"/>
        <pt x="484" y="519" on="1"/>
        <pt x="484" y="565" on="0"/>
        <pt x="420" y="638" on="0"/>
      </contour>
    </TTGlyph>
    <TTGlyph name="Rcaron" xMin="84" yMin="0" xMax="626" yMax="975">
      <contour>
        <pt x="232" y="804" on="1"/>
        <pt x="108" y="975" on="1"/>
        <pt x="205" y="975" on="1"/>
        <pt x="279" y="869" on="1"/>
        <pt x="353" y="975" on="1"/>
        <pt x="450" y="975" on="1"/>
        <pt x="326" y="804" on="1"/>
      </contour>
      <contour>
        <pt x="84" y="0" on="1"/>
        <pt x="84" y="740" on="1"/>
        <pt x="359" y="740" on="1"/>
        <pt x="438" y="740" on="0"/>
        <pt x="547" y="679" on="0"/>
        <pt x="603" y="580" on="0"/>
        <pt x="603" y="522" on="1"/>
        <pt x="603" y="452" on="0"/>
        <pt x="524" y="338" on="0"/>
        <pt x="448" y="315" on="1"/>
        <pt x="626" y="0" on="1"/>
        <pt x="495" y="0" on="1"/>
        <pt x="327" y="302" on="1"/>
        <pt x="201" y="302" on="1"/>
        <pt x="201" y="0" on="1"/>
      </contour>
      <contour>
        <pt x="357" y="638" on="1"/>
        <pt x="201" y="638" on="1"/>
        <pt x="201" y="400" on="1"/>
        <pt x="357" y="400" on="1"/>
        <pt x="420" y="400" on="0"/>
        <pt x="484" y="473" on="0"/>
        <pt x="484" y="519" on="1"/>
        <pt x="484" y="565" on="0"/>
        <pt x="420" y="638" on="0"/>
      </contour>
    </TTGlyph>
    <TTGlyph name="S" xMin="49" yMin="-10" xMax="602" yMax="750">
      <contour>
        <pt x="333" y="-10" on="1"/>
        <pt x="267" y="-10" on="0"/>
        <pt x="172" y="24" on="0"/>
        <pt x="110" y="77" on="0"/>
        <pt x="73" y="137" on="0"/>
        <pt x="55" y="190" on="0"/>
        <pt x="49" y="224" on="0"/>
        <pt x="49" y="224" on="1"/>
        <pt x="168" y="224" on="1"/>
        <pt x="168" y="224" on="0"/>
        <pt x="174" y="197" on="0"/>
        <pt x="192" y="158" on="0"/>
        <pt x="229" y="119" on="0"/>
        <pt x="290" y="92" on="0"/>
        <pt x="337" y="92" on="1"/>
        <pt x="407" y="92" on="0"/>
        <pt x="486" y="158" on="0"/>
        <pt x="486" y="209" on="1"/>
        <pt x="486" y="253" on="0"/>
        <pt x="427" y="302" on="0"/>
        <pt x="370" y="315" on="1"/>
        <pt x="272" y="338" on="1"/>
        <pt x="217" y="350" on="0"/>
        <pt x="124" y="397" on="0"/>
        <pt x="67" y="477" on="0"/>
        <pt x="67" y="538" on="1"/>
        <pt x="67" y="604" on="0"/>
        <pt x="132" y="699" on="0"/>
        <pt x="247" y="750" on="0"/>
        <pt x="321" y="750" on="1"/>
        <pt x="393" y="750" on="0"/>
        <pt x="487" y="707" on="0"/>
        <pt x="543" y="645" on="0"/>
        <pt x="570" y="582" on="0"/>
        <pt x="578" y="539" on="0"/>
        <pt x="578" y="539" on="1"/>
        <pt x="464" y="539" on="1"/>
        <pt x="464" y="539" on="0"/>
        <pt x="456" y="572" on="0"/>
        <pt x="427" y="616" on="0"/>
        <pt x="368" y="649" on="0"/>
        <pt x="318" y="649" on="1"/>
        <pt x="249" y="649" on="0"/>
        <pt x="181" y="585" on="0"/>
        <pt x="181" y="546" on="1"/>
        <pt x="181" y="508" on="0"/>
        <pt x="239" y="463" on="0"/>
        <pt x="288" y="452" on="1"/>
        <pt x="393" y="427" on="1"/>
        <pt x="451" y="414" on="0"/>
        <pt x="546" y="362" on="0"/>
        <pt x="602" y="277" on="0"/>
        <pt x="602" y="216" on="1"/>
        <pt x="602" y="154" on="0"/>
        <pt x="541" y="51" on="0"/>
        <pt x="421" y="-10" on="0"/>
      </contour>
    </TTGlyph>
    <TTGlyph name="Sacute" xMin="49" yMin="-10" xMax="602" yMax="999">
      <contour>
        <pt x="369" y="818" on="1"/>
        <pt x="277" y="819" on="1"/>
        <pt x="362" y="999" on="1"/>
        <pt x="474" y="999" on="1"/>
      </contour>
      <contour>
        <pt x="333" y="-10" on="1"/>
        <pt x="267" y="-10" on="0"/>
        <pt x="172" y="24" on="0"/>
        <pt x="110" y="77" on="0"/>
        <pt x="73" y="137" on="0"/>
        <pt x="55" y="190" on="0"/>
        <pt x="49" y="224" on="0"/>
        <pt x="49" y="224" on="1"/>
        <pt x="168" y="224" on="1"/>
        <pt x="168" y="224" on="0"/>
        <pt x="174" y="197" on="0"/>
        <pt x="192" y="158" on="0"/>
        <pt x="229" y="119" on="0"/>
        <pt x="290" y="92" on="0"/>
        <pt x="337" y="92" on="1"/>
        <pt x="407" y="92" on="0"/>
        <pt x="486" y="158" on="0"/>
        <pt x="486" y="209" on="1"/>
        <pt x="486" y="253" on="0"/>
        <pt x="427" y="302" on="0"/>
        <pt x="370" y="315" on="1"/>
        <pt x="272" y="338" on="1"/>
        <pt x="217" y="350" on="0"/>
        <pt x="124" y="397" on="0"/>
        <pt x="67" y="477" on="0"/>
        <pt x="67" y="538" on="1"/>
        <pt x="67" y="604" on="0"/>
        <pt x="132" y="699" on="0"/>
        <pt x="247" y="750" on="0"/>
        <pt x="321" y="750" on="1"/>
        <pt x="393" y="750" on="0"/>
        <pt x="487" y="707" on="0"/>
        <pt x="543" y="645" on="0"/>
        <pt x="570" y="582" on="0"/>
        <pt x="578" y="539" on="0"/>
        <pt x="578" y="539" on="1"/>
        <pt x="464" y="539" on="1"/>
        <pt x="464" y="539" on="0"/>
        <pt x="456" y="572" on="0"/>
        <pt x="427" y="616" on="0"/>
        <pt x="368" y="649" on="0"/>
        <pt x="318" y="649" on="1"/>
        <pt x="249" y="649" on="0"/>
        <pt x="181" y="585" on="0"/>
        <pt x="181" y="546" on="1"/>
        <pt x="181" y="508" on="0"/>
        <pt x="239" y="463" on="0"/>
        <pt x="288" y="452" on="1"/>
        <pt x="393" y="427" on="1"/>
        <pt x="451" y="414" on="0"/>
        <pt x="546" y="362" on="0"/>
        <pt x="602" y="277" on="0"/>
        <pt x="602" y="216" on="1"/>
        <pt x="602" y="154" on="0"/>
        <pt x="541" y="51" on="0"/>
        <pt x="421" y="-10" on="0"/>
      </contour>
    </TTGlyph>
    <TTGlyph name="Scaron" xMin="49" yMin="-10" xMax="602" yMax="975">
      <contour>
        <pt x="276" y="804" on="1"/>
        <pt x="153" y="975" on="1"/>
        <pt x="250" y="975" on="1"/>
        <pt x="323" y="869" on="1"/>
        <pt x="397" y="975" on="1"/>
        <pt x="494" y="975" on="1"/>
        <pt x="371" y="804" on="1"/>
      </contour>
      <contour>
        <pt x="333" y="-10" on="1"/>
        <pt x="267" y="-10" on="0"/>
        <pt x="172" y="24" on="0"/>
        <pt x="110" y="77" on="0"/>
        <pt x="73" y="137" on="0"/>
        <pt x="55" y="190" on="0"/>
        <pt x="49" y="224" on="0"/>
        <pt x="49" y="224" on="1"/>
        <pt x="168" y="224" on="1"/>
        <pt x="168" y="224" on="0"/>
        <pt x="174" y="197" on="0"/>
        <pt x="192" y="158" on="0"/>
        <pt x="229" y="119" on="0"/>
        <pt x="290" y="92" on="0"/>
        <pt x="337" y="92" on="1"/>
        <pt x="407" y="92" on="0"/>
        <pt x="486" y="158" on="0"/>
        <pt x="486" y="209" on="1"/>
        <pt x="486" y="253" on="0"/>
        <pt x="427" y="302" on="0"/>
        <pt x="370" y="315" on="1"/>
        <pt x="272" y="338" on="1"/>
        <pt x="217" y="350" on="0"/>
        <pt x="124" y="397" on="0"/>
        <pt x="67" y="477" on="0"/>
        <pt x="67" y="538" on="1"/>
        <pt x="67" y="604" on="0"/>
        <pt x="132" y="699" on="0"/>
        <pt x="247" y="750" on="0"/>
        <pt x="321" y="750" on="1"/>
        <pt x="393" y="750" on="0"/>
        <pt x="487" y="707" on="0"/>
        <pt x="543" y="645" on="0"/>
        <pt x="570" y="582" on="0"/>
        <pt x="578" y="539" on="0"/>
        <pt x="578" y="539" on="1"/>
        <pt x="464" y="539" on="1"/>
        <pt x="464" y="539" on="0"/>
        <pt x="456" y="572" on="0"/>
        <pt x="427" y="616" on="0"/>
        <pt x="368" y="649" on="0"/>
        <pt x="318" y="649" on="1"/>
        <pt x="249" y="649" on="0"/>
        <pt x="181" y="585" on="0"/>
        <pt x="181" y="546" on="1"/>
        <pt x="181" y="508" on="0"/>
        <pt x="239" y="463" on="0"/>
        <pt x="288" y="452" on="1"/>
        <pt x="393" y="427" on="1"/>
        <pt x="451" y="414" on="0"/>
        <pt x="546" y="362" on="0"/>
        <pt x="602" y="277" on="0"/>
        <pt x="602" y="216" on="1"/>
        <pt x="602" y="154" on="0"/>
        <pt x="541" y="51" on="0"/>
        <pt x="421" y="-10" on="0"/>
      </contour>
    </TTGlyph>
    <TTGlyph name="Scedilla" xMin="49" yMin="-260" xMax="602" yMax="750">
      <contour>
        <pt x="299" y="-260" on="1"/>
        <pt x="274" y="-260" on="0"/>
        <pt x="225" y="-253" on="0"/>
        <pt x="225" y="-253" on="1"/>
        <pt x="225" y="-189" on="1"/>
        <pt x="225" y="-189" on="0"/>
        <pt x="248" y="-192" on="0"/>
        <pt x="280" y="-195" on="0"/>
        <pt x="294" y="-195" on="1"/>
        <pt x="337" y="-195" on="0"/>
        <pt x="367" y="-163" on="0"/>
        <pt x="367" y="-147" on="1"/>
        <pt x="367" y="-131" on="0"/>
        <pt x="342" y="-107" on="0"/>
        <pt x="318" y="-107" on="1"/>
        <pt x="294" y="-107" on="0"/>
        <pt x="262" y="-126" on="0"/>
        <pt x="262" y="-126" on="1"/>
        <pt x="220" y="-84" on="1"/>
        <pt x="269" y="-5" on="1"/>
        <pt x="208" y="5" on="0"/>
        <pt x="127" y="57" on="0"/>
        <pt x="79" y="122" on="0"/>
        <pt x="56" y="184" on="0"/>
        <pt x="49" y="224" on="0"/>
        <pt x="49" y="224" on="1"/>
        <pt x="168" y="224" on="1"/>
        <pt x="168" y="224" on="0"/>
        <pt x="174" y="197" on="0"/>
        <pt x="192" y="158" on="0"/>
        <pt x="229" y="119" on="0"/>
        <pt x="290" y="92" on="0"/>
        <pt x="337" y="92" on="1"/>
        <pt x="407" y="92" on="0"/>
        <pt x="486" y="158" on="0"/>
        <pt x="486" y="209" on="1"/>
        <pt x="486" y="253" on="0"/>
        <pt x="427" y="302" on="0"/>
        <pt x="370" y="315" on="1"/>
        <pt x="272" y="338" on="1"/>
        <pt x="217" y="350" on="0"/>
        <pt x="124" y="397" on="0"/>
        <pt x="67" y="477" on="0"/>
        <pt x="67" y="538" on="1"/>
        <pt x="67" y="604" on="0"/>
        <pt x="132" y="699" on="0"/>
        <pt x="247" y="750" on="0"/>
        <pt x="321" y="750" on="1"/>
        <pt x="393" y="750" on="0"/>
        <pt x="487" y="707" on="0"/>
        <pt x="543" y="645" on="0"/>
        <pt x="570" y="582" on="0"/>
        <pt x="578" y="539" on="0"/>
        <pt x="578" y="539" on="1"/>
        <pt x="464" y="539" on="1"/>
        <pt x="464" y="539" on="0"/>
        <pt x="456" y="572" on="0"/>
        <pt x="427" y="616" on="0"/>
        <pt x="368" y="649" on="0"/>
        <pt x="318" y="649" on="1"/>
        <pt x="249" y="649" on="0"/>
        <pt x="181" y="585" on="0"/>
        <pt x="181" y="546" on="1"/>
        <pt x="181" y="508" on="0"/>
        <pt x="239" y="463" on="0"/>
        <pt x="288" y="452" on="1"/>
        <pt x="393" y="427" on="1"/>
        <pt x="451" y="414" on="0"/>
        <pt x="546" y="362" on="0"/>
        <pt x="602" y="277" on="0"/>
        <pt x="602" y="216" on="1"/>
        <pt x="602" y="155" on="0"/>
        <pt x="543" y="54" on="0"/>
        <pt x="427" y="-8" on="0"/>
        <pt x="342" y="-10" on="1"/>
        <pt x="315" y="-51" on="1"/>
        <pt x="328" y="-48" on="0"/>
        <pt x="342" y="-48" on="1"/>
        <pt x="389" y="-48" on="0"/>
        <pt x="442" y="-107" on="0"/>
        <pt x="442" y="-146" on="1"/>
        <pt x="442" y="-174" on="0"/>
        <pt x="413" y="-226" on="0"/>
        <pt x="350" y="-260" on="0"/>
      </contour>
    </TTGlyph>
    <TTGlyph name="T" xMin="43" yMin="0" xMax="619" yMax="740">
      <contour>
        <pt x="273" y="0" on="1"/>
        <pt x="273" y="638" on="1"/>
        <pt x="43" y="638" on="1"/>
        <pt x="43" y="740" on="1"/>
        <pt x="619" y="740" on="1"/>
        <pt x="619" y="638" on="1"/>
        <pt x="389" y="638" on="1"/>
        <pt x="389" y="0" on="1"/>
      </contour>
    </TTGlyph>
    <TTGlyph name="Tbar" xMin="43" yMin="0" xMax="619" yMax="740">
      <contour>
        <pt x="273" y="0" on="1"/>
        <pt x="273" y="323" on="1"/>
        <pt x="82" y="323" on="1"/>
        <pt x="82" y="417" on="1"/>
        <pt x="273" y="417" on="1"/>
        <pt x="273" y="638" on="1"/>
        <pt x="43" y="638" on="1"/>
        <pt x="43" y="740" on="1"/>
        <pt x="619" y="740" on="1"/>
        <pt x="619" y="638" on="1"/>
        <pt x="389" y="638" on="1"/>
        <pt x="389" y="417" on="1"/>
        <pt x="579" y="417" on="1"/>
        <pt x="579" y="323" on="1"/>
        <pt x="389" y="323" on="1"/>
        <pt x="389" y="0" on="1"/>
      </contour>
    </TTGlyph>
    <TTGlyph name="Tcaron" xMin="43" yMin="0" xMax="619" yMax="973">
      <contour>
        <pt x="284" y="802" on="1"/>
        <pt x="160" y="973" on="1"/>
        <pt x="257" y="973" on="1"/>
        <pt x="331" y="867" on="1"/>
        <pt x="405" y="973" on="1"/>
        <pt x="502" y="973" on="1"/>
        <pt x="378" y="802" on="1"/>
      </contour>
      <contour>
        <pt x="273" y="0" on="1"/>
        <pt x="273" y="638" on="1"/>
        <pt x="43" y="638" on="1"/>
        <pt x="43" y="740" on="1"/>
        <pt x="619" y="740" on="1"/>
        <pt x="619" y="638" on="1"/>
        <pt x="389" y="638" on="1"/>
        <pt x="389" y="0" on="1"/>
      </contour>
    </TTGlyph>
    <TTGlyph name="Thorn" xMin="76" yMin="0" xMax="615" yMax="740">
      <contour>
        <pt x="76" y="0" on="1"/>
        <pt x="76" y="740" on="1"/>
        <pt x="193" y="740" on="1"/>
        <pt x="193" y="614" on="1"/>
        <pt x="354" y="614" on="1"/>
        <pt x="441" y="614" on="0"/>
        <pt x="557" y="543" on="0"/>
        <pt x="615" y="431" on="0"/>
        <pt x="615" y="371" on="1"/>
        <pt x="615" y="309" on="0"/>
        <pt x="557" y="197" on="0"/>
        <pt x="441" y="126" on="0"/>
        <pt x="354" y="126" on="1"/>
        <pt x="193" y="126" on="1"/>
        <pt x="193" y="0" on="1"/>
      </contour>
      <contour>
        <pt x="354" y="511" on="1"/>
        <pt x="193" y="511" on="1"/>
        <pt x="193" y="228" on="1"/>
        <pt x="354" y="228" on="1"/>
        <pt x="402" y="228" on="0"/>
        <pt x="466" y="270" on="0"/>
        <pt x="498" y="334" on="0"/>
        <pt x="498" y="370" on="1"/>
        <pt x="498" y="405" on="0"/>
        <pt x="466" y="470" on="0"/>
        <pt x="402" y="511" on="0"/>
      </contour>
    </TTGlyph>
    <TTGlyph name="U" xMin="76" yMin="-10" xMax="653" yMax="740">
      <contour>
        <pt x="364" y="-10" on="1"/>
        <pt x="279" y="-10" on="0"/>
        <pt x="149" y="55" on="0"/>
        <pt x="76" y="180" on="0"/>
        <pt x="76" y="271" on="1"/>
        <pt x="76" y="740" on="1"/>
        <pt x="193" y="740" on="1"/>
        <pt x="193" y="271" on="1"/>
        <pt x="193" y="199" on="0"/>
        <pt x="277" y="100" on="0"/>
        <pt x="364" y="100" on="1"/>
        <pt x="452" y="100" on="0"/>
        <pt x="536" y="199" on="0"/>
        <pt x="536" y="271" on="1"/>
        <pt x="536" y="740" on="1"/>
        <pt x="653" y="740" on="1"/>
        <pt x="653" y="271" on="1"/>
        <pt x="653" y="180" on="0"/>
        <pt x="580" y="55" on="0"/>
        <pt x="449" y="-10" on="0"/>
      </contour>
    </TTGlyph>
    <TTGlyph name="Uacute" xMin="84" yMin="-10" xMax="661" yMax="999">
      <contour>
        <pt x="415" y="818" on="1"/>
        <pt x="323" y="819" on="1"/>
        <pt x="407" y="999" on="1"/>
        <pt x="520" y="999" on="1"/>
      </contour>
      <contour>
        <pt x="372" y="-10" on="1"/>
        <pt x="287" y="-10" on="0"/>
        <pt x="157" y="55" on="0"/>
        <pt x="84" y="180" on="0"/>
        <pt x="84" y="271" on="1"/>
        <pt x="84" y="740" on="1"/>
        <pt x="201" y="740" on="1"/>
        <pt x="201" y="271" on="1"/>
        <pt x="201" y="199" on="0"/>
        <pt x="285" y="100" on="0"/>
        <pt x="372" y="100" on="1"/>
        <pt x="460" y="100" on="0"/>
        <pt x="544" y="199" on="0"/>
        <pt x="544" y="271" on="1"/>
        <pt x="544" y="740" on="1"/>
        <pt x="661" y="740" on="1"/>
        <pt x="661" y="271" on="1"/>
        <pt x="661" y="180" on="0"/>
        <pt x="588" y="55" on="0"/>
        <pt x="457" y="-10" on="0"/>
      </contour>
    </TTGlyph>
    <TTGlyph name="Ucircumflex" xMin="84" yMin="-10" xMax="661" yMax="984">
      <contour>
        <pt x="199" y="813" on="1"/>
        <pt x="322" y="984" on="1"/>
        <pt x="417" y="984" on="1"/>
        <pt x="540" y="813" on="1"/>
        <pt x="443" y="813" on="1"/>
        <pt x="369" y="919" on="1"/>
        <pt x="296" y="813" on="1"/>
      </contour>
      <contour>
        <pt x="372" y="-10" on="1"/>
        <pt x="287" y="-10" on="0"/>
        <pt x="157" y="55" on="0"/>
        <pt x="84" y="180" on="0"/>
        <pt x="84" y="271" on="1"/>
        <pt x="84" y="740" on="1"/>
        <pt x="201" y="740" on="1"/>
        <pt x="201" y="271" on="1"/>
        <pt x="201" y="199" on="0"/>
        <pt x="285" y="100" on="0"/>
        <pt x="372" y="100" on="1"/>
        <pt x="460" y="100" on="0"/>
        <pt x="544" y="199" on="0"/>
        <pt x="544" y="271" on="1"/>
        <pt x="544" y="740" on="1"/>
        <pt x="661" y="740" on="1"/>
        <pt x="661" y="271" on="1"/>
        <pt x="661" y="180" on="0"/>
        <pt x="588" y="55" on="0"/>
        <pt x="457" y="-10" on="0"/>
      </contour>
    </TTGlyph>
    <TTGlyph name="Udieresis" xMin="84" yMin="-10" xMax="661" yMax="952">
      <contour>
        <pt x="470" y="814" on="1"/>
        <pt x="439" y="814" on="0"/>
        <pt x="400" y="855" on="0"/>
        <pt x="400" y="883" on="1"/>
        <pt x="400" y="912" on="0"/>
        <pt x="439" y="952" on="0"/>
        <pt x="470" y="952" on="1"/>
        <pt x="500" y="952" on="0"/>
        <pt x="540" y="912" on="0"/>
        <pt x="540" y="883" on="1"/>
        <pt x="540" y="854" on="0"/>
        <pt x="500" y="814" on="0"/>
      </contour>
      <contour>
        <pt x="268" y="814" on="1"/>
        <pt x="237" y="814" on="0"/>
        <pt x="198" y="855" on="0"/>
        <pt x="198" y="883" on="1"/>
        <pt x="198" y="912" on="0"/>
        <pt x="237" y="952" on="0"/>
        <pt x="268" y="952" on="1"/>
        <pt x="298" y="952" on="0"/>
        <pt x="338" y="912" on="0"/>
        <pt x="338" y="883" on="1"/>
        <pt x="338" y="854" on="0"/>
        <pt x="298" y="814" on="0"/>
      </contour>
      <contour>
        <pt x="372" y="-10" on="1"/>
        <pt x="287" y="-10" on="0"/>
        <pt x="157" y="55" on="0"/>
        <pt x="84" y="180" on="0"/>
        <pt x="84" y="271" on="1"/>
        <pt x="84" y="740" on="1"/>
        <pt x="201" y="740" on="1"/>
        <pt x="201" y="271" on="1"/>
        <pt x="201" y="199" on="0"/>
        <pt x="285" y="100" on="0"/>
        <pt x="372" y="100" on="1"/>
        <pt x="460" y="100" on="0"/>
        <pt x="544" y="199" on="0"/>
        <pt x="544" y="271" on="1"/>
        <pt x="544" y="740" on="1"/>
        <pt x="661" y="740" on="1"/>
        <pt x="661" y="271" on="1"/>
        <pt x="661" y="180" on="0"/>
        <pt x="588" y="55" on="0"/>
        <pt x="457" y="-10" on="0"/>
      </contour>
    </TTGlyph>
    <TTGlyph name="Ugrave" xMin="84" yMin="-10" xMax="661" yMax="999">
      <contour>
        <pt x="327" y="818" on="1"/>
        <pt x="222" y="999" on="1"/>
        <pt x="334" y="999" on="1"/>
        <pt x="419" y="819" on="1"/>
      </contour>
      <contour>
        <pt x="372" y="-10" on="1"/>
        <pt x="287" y="-10" on="0"/>
        <pt x="157" y="55" on="0"/>
        <pt x="84" y="180" on="0"/>
        <pt x="84" y="271" on="1"/>
        <pt x="84" y="740" on="1"/>
        <pt x="201" y="740" on="1"/>
        <pt x="201" y="271" on="1"/>
        <pt x="201" y="199" on="0"/>
        <pt x="285" y="100" on="0"/>
        <pt x="372" y="100" on="1"/>
        <pt x="460" y="100" on="0"/>
        <pt x="544" y="199" on="0"/>
        <pt x="544" y="271" on="1"/>
        <pt x="544" y="740" on="1"/>
        <pt x="661" y="740" on="1"/>
        <pt x="661" y="271" on="1"/>
        <pt x="661" y="180" on="0"/>
        <pt x="588" y="55" on="0"/>
        <pt x="457" y="-10" on="0"/>
      </contour>
    </TTGlyph>
    <TTGlyph name="Uhorn" xMin="84" yMin="-10" xMax="779" yMax="844">
      <contour>
        <pt x="372" y="-10" on="1"/>
        <pt x="287" y="-10" on="0"/>
        <pt x="157" y="55" on="0"/>
        <pt x="84" y="180" on="0"/>
        <pt x="84" y="271" on="1"/>
        <pt x="84" y="740" on="1"/>
        <pt x="201" y="740" on="1"/>
        <pt x="201" y="271" on="1"/>
        <pt x="201" y="199" on="0"/>
        <pt x="285" y="100" on="0"/>
        <pt x="372" y="100" on="1"/>
        <pt x="460" y="100" on="0"/>
        <pt x="544" y="199" on="0"/>
        <pt x="544" y="271" on="1"/>
        <pt x="544" y="740" on="1"/>
        <pt x="637" y="740" on="1"/>
        <pt x="677" y="740" on="0"/>
        <pt x="677" y="781" on="1"/>
        <pt x="677" y="844" on="1"/>
        <pt x="779" y="844" on="1"/>
        <pt x="779" y="780" on="1"/>
        <pt x="779" y="733" on="0"/>
        <pt x="727" y="671" on="0"/>
        <pt x="674" y="671" on="1"/>
        <pt x="661" y="671" on="1"/>
        <pt x="661" y="271" on="1"/>
        <pt x="661" y="180" on="0"/>
        <pt x="588" y="55" on="0"/>
        <pt x="457" y="-10" on="0"/>
      </contour>
    </TTGlyph>
    <TTGlyph name="Uhungarumlaut" xMin="84" yMin="-10" xMax="661" yMax="999">
      <contour>
        <pt x="327" y="818" on="1"/>
        <pt x="238" y="819" on="1"/>
        <pt x="284" y="999" on="1"/>
        <pt x="394" y="999" on="1"/>
      </contour>
      <contour>
        <pt x="497" y="818" on="1"/>
        <pt x="408" y="819" on="1"/>
        <pt x="454" y="999" on="1"/>
        <pt x="564" y="999" on="1"/>
      </contour>
      <contour>
        <pt x="372" y="-10" on="1"/>
        <pt x="287" y="-10" on="0"/>
        <pt x="157" y="55" on="0"/>
        <pt x="84" y="180" on="0"/>
        <pt x="84" y="271" on="1"/>
        <pt x="84" y="740" on="1"/>
        <pt x="201" y="740" on="1"/>
        <pt x="201" y="271" on="1"/>
        <pt x="201" y="199" on="0"/>
        <pt x="285" y="100" on="0"/>
        <pt x="372" y="100" on="1"/>
        <pt x="460" y="100" on="0"/>
        <pt x="544" y="199" on="0"/>
        <pt x="544" y="271" on="1"/>
        <pt x="544" y="740" on="1"/>
        <pt x="661" y="740" on="1"/>
        <pt x="661" y="271" on="1"/>
        <pt x="661" y="180" on="0"/>
        <pt x="588" y="55" on="0"/>
        <pt x="457" y="-10" on="0"/>
      </contour>
    </TTGlyph>
    <TTGlyph name="Umacron" xMin="84" yMin="-10" xMax="661" yMax="910">
      <contour>
        <pt x="213" y="832" on="1"/>
        <pt x="213" y="910" on="1"/>
        <pt x="525" y="910" on="1"/>
        <pt x="525" y="832" on="1"/>
      </contour>
      <contour>
        <pt x="372" y="-10" on="1"/>
        <pt x="287" y="-10" on="0"/>
        <pt x="157" y="55" on="0"/>
        <pt x="84" y="180" on="0"/>
        <pt x="84" y="271" on="1"/>
        <pt x="84" y="740" on="1"/>
        <pt x="201" y="740" on="1"/>
        <pt x="201" y="271" on="1"/>
        <pt x="201" y="199" on="0"/>
        <pt x="285" y="100" on="0"/>
        <pt x="372" y="100" on="1"/>
        <pt x="460" y="100" on="0"/>
        <pt x="544" y="199" on="0"/>
        <pt x="544" y="271" on="1"/>
        <pt x="544" y="740" on="1"/>
        <pt x="661" y="740" on="1"/>
        <pt x="661" y="271" on="1"/>
        <pt x="661" y="180" on="0"/>
        <pt x="588" y="55" on="0"/>
        <pt x="457" y="-10" on="0"/>
      </contour>
    </TTGlyph>
    <TTGlyph name="Uogonek" xMin="84" yMin="-180" xMax="661" yMax="740">
      <contour>
        <pt x="409" y="-180" on="1"/>
        <pt x="345" y="-180" on="0"/>
        <pt x="283" y="-126" on="0"/>
        <pt x="283" y="-87" on="1"/>
        <pt x="283" y="-58" on="0"/>
        <pt x="311" y="-20" on="0"/>
        <pt x="328" y="-8" on="1"/>
        <pt x="219" y="4" on="0"/>
        <pt x="84" y="147" on="0"/>
        <pt x="84" y="271" on="1"/>
        <pt x="84" y="740" on="1"/>
        <pt x="201" y="740" on="1"/>
        <pt x="201" y="271" on="1"/>
        <pt x="201" y="199" on="0"/>
        <pt x="285" y="100" on="0"/>
        <pt x="372" y="100" on="1"/>
        <pt x="460" y="100" on="0"/>
        <pt x="544" y="199" on="0"/>
        <pt x="544" y="271" on="1"/>
        <pt x="544" y="740" on="1"/>
        <pt x="661" y="740" on="1"/>
        <pt x="661" y="271" on="1"/>
        <pt x="661" y="148" on="0"/>
        <pt x="529" y="6" on="0"/>
        <pt x="421" y="-7" on="1"/>
        <pt x="415" y="-10" on="0"/>
        <pt x="392" y="-25" on="0"/>
        <pt x="372" y="-50" on="0"/>
        <pt x="372" y="-67" on="1"/>
        <pt x="372" y="-84" on="0"/>
        <pt x="399" y="-108" on="0"/>
        <pt x="428" y="-108" on="1"/>
        <pt x="441" y="-108" on="0"/>
        <pt x="464" y="-104" on="0"/>
        <pt x="464" y="-104" on="1"/>
        <pt x="464" y="-175" on="1"/>
        <pt x="464" y="-175" on="0"/>
        <pt x="432" y="-180" on="0"/>
      </contour>
    </TTGlyph>
    <TTGlyph name="Uring" xMin="84" yMin="-10" xMax="661" yMax="1068">
      <contour>
        <pt x="369" y="807" on="1"/>
        <pt x="333" y="807" on="0"/>
        <pt x="273" y="842" on="0"/>
        <pt x="238" y="902" on="0"/>
        <pt x="238" y="938" on="1"/>
        <pt x="238" y="974" on="0"/>
        <pt x="273" y="1033" on="0"/>
        <pt x="333" y="1068" on="0"/>
        <pt x="369" y="1068" on="1"/>
        <pt x="405" y="1068" on="0"/>
        <pt x="464" y="1033" on="0"/>
        <pt x="500" y="974" on="0"/>
        <pt x="500" y="938" on="1"/>
        <pt x="500" y="902" on="0"/>
        <pt x="464" y="842" on="0"/>
        <pt x="405" y="807" on="0"/>
      </contour>
      <contour>
        <pt x="369" y="880" on="1"/>
        <pt x="393" y="880" on="0"/>
        <pt x="427" y="914" on="0"/>
        <pt x="427" y="938" on="1"/>
        <pt x="427" y="962" on="0"/>
        <pt x="393" y="996" on="0"/>
        <pt x="369" y="996" on="1"/>
        <pt x="344" y="996" on="0"/>
        <pt x="310" y="962" on="0"/>
        <pt x="310" y="938" on="1"/>
        <pt x="310" y="914" on="0"/>
        <pt x="344" y="880" on="0"/>
      </contour>
      <contour>
        <pt x="372" y="-10" on="1"/>
        <pt x="287" y="-10" on="0"/>
        <pt x="157" y="55" on="0"/>
        <pt x="84" y="180" on="0"/>
        <pt x="84" y="271" on="1"/>
        <pt x="84" y="740" on="1"/>
        <pt x="201" y="740" on="1"/>
        <pt x="201" y="271" on="1"/>
        <pt x="201" y="199" on="0"/>
        <pt x="285" y="100" on="0"/>
        <pt x="372" y="100" on="1"/>
        <pt x="460" y="100" on="0"/>
        <pt x="544" y="199" on="0"/>
        <pt x="544" y="271" on="1"/>
        <pt x="544" y="740" on="1"/>
        <pt x="661" y="740" on="1"/>
        <pt x="661" y="271" on="1"/>
        <pt x="661" y="180" on="0"/>
        <pt x="588" y="55" on="0"/>
        <pt x="457" y="-10" on="0"/>
      </contour>
    </TTGlyph>
    <TTGlyph name="Utilde" xMin="84" yMin="-10" xMax="661" yMax="967">
      <contour>
        <pt x="439" y="826" on="1"/>
        <pt x="412" y="826" on="0"/>
        <pt x="374" y="846" on="0"/>
        <pt x="346" y="871" on="0"/>
        <pt x="322" y="891" on="0"/>
        <pt x="308" y="891" on="1"/>
        <pt x="291" y="891" on="0"/>
        <pt x="277" y="859" on="0"/>
        <pt x="277" y="832" on="1"/>
        <pt x="208" y="832" on="1"/>
        <pt x="208" y="864" on="0"/>
        <pt x="223" y="926" on="0"/>
        <pt x="264" y="967" on="0"/>
        <pt x="301" y="967" on="1"/>
        <pt x="329" y="967" on="0"/>
        <pt x="367" y="948" on="0"/>
        <pt x="395" y="922" on="0"/>
        <pt x="419" y="903" on="0"/>
        <pt x="432" y="903" on="1"/>
        <pt x="448" y="903" on="0"/>
        <pt x="462" y="934" on="0"/>
        <pt x="462" y="962" on="1"/>
        <pt x="532" y="962" on="1"/>
        <pt x="532" y="930" on="0"/>
        <pt x="516" y="867" on="0"/>
        <pt x="476" y="826" on="0"/>
      </contour>
      <contour>
        <pt x="372" y="-10" on="1"/>
        <pt x="287" y="-10" on="0"/>
        <pt x="157" y="55" on="0"/>
        <pt x="84" y="180" on="0"/>
        <pt x="84" y="271" on="1"/>
        <pt x="84" y="740" on="1"/>
        <pt x="201" y="740" on="1"/>
        <pt x="201" y="271" on="1"/>
        <pt x="201" y="199" on="0"/>
        <pt x="285" y="100" on="0"/>
        <pt x="372" y="100" on="1"/>
        <pt x="460" y="100" on="0"/>
        <pt x="544" y="199" on="0"/>
        <pt x="544" y="271" on="1"/>
        <pt x="544" y="740" on="1"/>
        <pt x="661" y="740" on="1"/>
        <pt x="661" y="271" on="1"/>
        <pt x="661" y="180" on="0"/>
        <pt x="588" y="55" on="0"/>
        <pt x="457" y="-10" on="0"/>
      </contour>
    </TTGlyph>
    <TTGlyph name="V" xMin="26" yMin="0" xMax="693" yMax="740">
      <contour>
        <pt x="284" y="0" on="1"/>
        <pt x="26" y="740" on="1"/>
        <pt x="149" y="740" on="1"/>
        <pt x="360" y="125" on="1"/>
        <pt x="570" y="740" on="1"/>
        <pt x="693" y="740" on="1"/>
        <pt x="434" y="0" on="1"/>
      </contour>
    </TTGlyph>
    <TTGlyph name="W" xMin="36" yMin="0" xMax="986" yMax="740">
      <contour>
        <pt x="229" y="0" on="1"/>
        <pt x="36" y="740" on="1"/>
        <pt x="155" y="740" on="1"/>
        <pt x="300" y="164" on="1"/>
        <pt x="453" y="740" on="1"/>
        <pt x="570" y="740" on="1"/>
        <pt x="723" y="165" on="1"/>
        <pt x="867" y="740" on="1"/>
        <pt x="986" y="740" on="1"/>
        <pt x="793" y="0" on="1"/>
        <pt x="653" y="0" on="1"/>
        <pt x="511" y="536" on="1"/>
        <pt x="369" y="0" on="1"/>
      </contour>
    </TTGlyph>
    <TTGlyph name="Wacute" xMin="22" yMin="0" xMax="972" yMax="999">
      <contour>
        <pt x="543" y="818" on="1"/>
        <pt x="452" y="819" on="1"/>
        <pt x="536" y="999" on="1"/>
        <pt x="648" y="999" on="1"/>
      </contour>
      <contour>
        <pt x="215" y="0" on="1"/>
        <pt x="22" y="740" on="1"/>
        <pt x="141" y="740" on="1"/>
        <pt x="286" y="164" on="1"/>
        <pt x="439" y="740" on="1"/>
        <pt x="556" y="740" on="1"/>
        <pt x="709" y="165" on="1"/>
        <pt x="853" y="740" on="1"/>
        <pt x="972" y="740" on="1"/>
        <pt x="779" y="0" on="1"/>
        <pt x="639" y="0" on="1"/>
        <pt x="497" y="536" on="1"/>
        <pt x="355" y="0" on="1"/>
      </contour>
    </TTGlyph>
    <TTGlyph name="Wcircumflex" xMin="22" yMin="0" xMax="972" yMax="984">
      <contour>
        <pt x="327" y="813" on="1"/>
        <pt x="451" y="984" on="1"/>
        <pt x="545" y="984" on="1"/>
        <pt x="669" y="813" on="1"/>
        <pt x="572" y="813" on="1"/>
        <pt x="498" y="919" on="1"/>
        <pt x="424" y="813" on="1"/>
      </contour>
      <contour>
        <pt x="215" y="0" on="1"/>
        <pt x="22" y="740" on="1"/>
        <pt x="141" y="740" on="1"/>
        <pt x="286" y="164" on="1"/>
        <pt x="439" y="740" on="1"/>
        <pt x="556" y="740" on="1"/>
        <pt x="709" y="165" on="1"/>
        <pt x="853" y="740" on="1"/>
        <pt x="972" y="740" on="1"/>
        <pt x="779" y="0" on="1"/>
        <pt x="639" y="0" on="1"/>
        <pt x="497" y="536" on="1"/>
        <pt x="355" y="0" on="1"/>
      </contour>
    </TTGlyph>
    <TTGlyph name="Wdieresis" xMin="22" yMin="0" xMax="972" yMax="952">
      <contour>
        <pt x="598" y="814" on="1"/>
        <pt x="568" y="814" on="0"/>
        <pt x="529" y="855" on="0"/>
        <pt x="529" y="883" on="1"/>
        <pt x="529" y="912" on="0"/>
        <pt x="568" y="952" on="0"/>
        <pt x="598" y="952" on="1"/>
        <pt x="628" y="952" on="0"/>
        <pt x="668" y="912" on="0"/>
        <pt x="668" y="883" on="1"/>
        <pt x="668" y="854" on="0"/>
        <pt x="628" y="814" on="0"/>
      </contour>
      <contour>
        <pt x="396" y="814" on="1"/>
        <pt x="366" y="814" on="0"/>
        <pt x="326" y="855" on="0"/>
        <pt x="326" y="883" on="1"/>
        <pt x="326" y="912" on="0"/>
        <pt x="366" y="952" on="0"/>
        <pt x="396" y="952" on="1"/>
        <pt x="426" y="952" on="0"/>
        <pt x="466" y="912" on="0"/>
        <pt x="466" y="883" on="1"/>
        <pt x="466" y="854" on="0"/>
        <pt x="426" y="814" on="0"/>
      </contour>
      <contour>
        <pt x="215" y="0" on="1"/>
        <pt x="22" y="740" on="1"/>
        <pt x="141" y="740" on="1"/>
        <pt x="286" y="164" on="1"/>
        <pt x="439" y="740" on="1"/>
        <pt x="556" y="740" on="1"/>
        <pt x="709" y="165" on="1"/>
        <pt x="853" y="740" on="1"/>
        <pt x="972" y="740" on="1"/>
        <pt x="779" y="0" on="1"/>
        <pt x="639" y="0" on="1"/>
        <pt x="497" y="536" on="1"/>
        <pt x="355" y="0" on="1"/>
      </contour>
    </TTGlyph>
    <TTGlyph name="Wgrave" xMin="22" yMin="0" xMax="972" yMax="999">
      <contour>
        <pt x="456" y="818" on="1"/>
        <pt x="351" y="999" on="1"/>
        <pt x="463" y="999" on="1"/>
        <pt x="547" y="819" on="1"/>
      </contour>
      <contour>
        <pt x="215" y="0" on="1"/>
        <pt x="22" y="740" on="1"/>
        <pt x="141" y="740" on="1"/>
        <pt x="286" y="164" on="1"/>
        <pt x="439" y="740" on="1"/>
        <pt x="556" y="740" on="1"/>
        <pt x="709" y="165" on="1"/>
        <pt x="853" y="740" on="1"/>
        <pt x="972" y="740" on="1"/>
        <pt x="779" y="0" on="1"/>
        <pt x="639" y="0" on="1"/>
        <pt x="497" y="536" on="1"/>
        <pt x="355" y="0" on="1"/>
      </contour>
    </TTGlyph>
    <TTGlyph name="X" xMin="53" yMin="0" xMax="683" yMax="740">
      <contour>
        <pt x="53" y="0" on="1"/>
        <pt x="288" y="370" on="1"/>
        <pt x="53" y="740" on="1"/>
        <pt x="192" y="740" on="1"/>
        <pt x="368" y="457" on="1"/>
        <pt x="544" y="740" on="1"/>
        <pt x="683" y="740" on="1"/>
        <pt x="446" y="370" on="1"/>
        <pt x="683" y="0" on="1"/>
        <pt x="544" y="0" on="1"/>
        <pt x="368" y="284" on="1"/>
        <pt x="192" y="0" on="1"/>
      </contour>
    </TTGlyph>
    <TTGlyph name="Y" xMin="24" yMin="0" xMax="659" yMax="740">
      <contour>
        <pt x="283" y="0" on="1"/>
        <pt x="283" y="260" on="1"/>
        <pt x="24" y="740" on="1"/>
        <pt x="152" y="740" on="1"/>
        <pt x="341" y="379" on="1"/>
        <pt x="531" y="740" on="1"/>
        <pt x="659" y="740" on="1"/>
        <pt x="399" y="260" on="1"/>
        <pt x="399" y="0" on="1"/>
      </contour>
    </TTGlyph>
    <TTGlyph name="Yacute" xMin="24" yMin="0" xMax="659" yMax="996">
      <contour>
        <pt x="390" y="815" on="1"/>
        <pt x="298" y="816" on="1"/>
        <pt x="383" y="996" on="1"/>
        <pt x="495" y="996" on="1"/>
      </contour>
      <contour>
        <pt x="283" y="0" on="1"/>
        <pt x="283" y="260" on="1"/>
        <pt x="24" y="740" on="1"/>
        <pt x="152" y="740" on="1"/>
        <pt x="341" y="379" on="1"/>
        <pt x="531" y="740" on="1"/>
        <pt x="659" y="740" on="1"/>
        <pt x="399" y="260" on="1"/>
        <pt x="399" y="0" on="1"/>
      </contour>
    </TTGlyph>
    <TTGlyph name="Ycircumflex" xMin="24" yMin="0" xMax="659" yMax="982">
      <contour>
        <pt x="174" y="810" on="1"/>
        <pt x="298" y="982" on="1"/>
        <pt x="392" y="982" on="1"/>
        <pt x="516" y="810" on="1"/>
        <pt x="419" y="810" on="1"/>
        <pt x="344" y="916" on="1"/>
        <pt x="271" y="810" on="1"/>
      </contour>
      <contour>
        <pt x="283" y="0" on="1"/>
        <pt x="283" y="260" on="1"/>
        <pt x="24" y="740" on="1"/>
        <pt x="152" y="740" on="1"/>
        <pt x="341" y="379" on="1"/>
        <pt x="531" y="740" on="1"/>
        <pt x="659" y="740" on="1"/>
        <pt x="399" y="260" on="1"/>
        <pt x="399" y="0" on="1"/>
      </contour>
    </TTGlyph>
    <TTGlyph name="Ydieresis" xMin="24" yMin="0" xMax="659" yMax="949">
      <contour>
        <pt x="445" y="812" on="1"/>
        <pt x="414" y="812" on="0"/>
        <pt x="375" y="853" on="0"/>
        <pt x="375" y="880" on="1"/>
        <pt x="375" y="909" on="0"/>
        <pt x="414" y="949" on="0"/>
        <pt x="445" y="949" on="1"/>
        <pt x="475" y="949" on="0"/>
        <pt x="515" y="909" on="0"/>
        <pt x="515" y="880" on="1"/>
        <pt x="515" y="852" on="0"/>
        <pt x="475" y="812" on="0"/>
      </contour>
      <contour>
        <pt x="243" y="812" on="1"/>
        <pt x="212" y="812" on="0"/>
        <pt x="173" y="853" on="0"/>
        <pt x="173" y="880" on="1"/>
        <pt x="173" y="909" on="0"/>
        <pt x="212" y="949" on="0"/>
        <pt x="243" y="949" on="1"/>
        <pt x="273" y="949" on="0"/>
        <pt x="313" y="909" on="0"/>
        <pt x="313" y="880" on="1"/>
        <pt x="313" y="852" on="0"/>
        <pt x="273" y="812" on="0"/>
      </contour>
      <contour>
        <pt x="283" y="0" on="1"/>
        <pt x="283" y="260" on="1"/>
        <pt x="24" y="740" on="1"/>
        <pt x="152" y="740" on="1"/>
        <pt x="341" y="379" on="1"/>
        <pt x="531" y="740" on="1"/>
        <pt x="659" y="740" on="1"/>
        <pt x="399" y="260" on="1"/>
        <pt x="399" y="0" on="1"/>
      </contour>
    </TTGlyph>
    <TTGlyph name="Ygrave" xMin="24" yMin="0" xMax="659" yMax="996">
      <contour>
        <pt x="302" y="815" on="1"/>
        <pt x="197" y="996" on="1"/>
        <pt x="310" y="996" on="1"/>
        <pt x="394" y="816" on="1"/>
      </contour>
      <contour>
        <pt x="283" y="0" on="1"/>
        <pt x="283" y="260" on="1"/>
        <pt x="24" y="740" on="1"/>
        <pt x="152" y="740" on="1"/>
        <pt x="341" y="379" on="1"/>
        <pt x="531" y="740" on="1"/>
        <pt x="659" y="740" on="1"/>
        <pt x="399" y="260" on="1"/>
        <pt x="399" y="0" on="1"/>
      </contour>
    </TTGlyph>
    <TTGlyph name="Z" xMin="59" yMin="0" xMax="601" yMax="740">
      <contour>
        <pt x="59" y="0" on="1"/>
        <pt x="59" y="87" on="1"/>
        <pt x="454" y="638" on="1"/>
        <pt x="59" y="638" on="1"/>
        <pt x="59" y="740" on="1"/>
        <pt x="601" y="740" on="1"/>
        <pt x="601" y="654" on="1"/>
        <pt x="205" y="102" on="1"/>
        <pt x="601" y="102" on="1"/>
        <pt x="601" y="0" on="1"/>
      </contour>
    </TTGlyph>
    <TTGlyph name="Zacute" xMin="59" yMin="0" xMax="601" yMax="999">
      <contour>
        <pt x="366" y="818" on="1"/>
        <pt x="275" y="819" on="1"/>
        <pt x="359" y="999" on="1"/>
        <pt x="471" y="999" on="1"/>
      </contour>
      <contour>
        <pt x="59" y="0" on="1"/>
        <pt x="59" y="87" on="1"/>
        <pt x="454" y="638" on="1"/>
        <pt x="59" y="638" on="1"/>
        <pt x="59" y="740" on="1"/>
        <pt x="601" y="740" on="1"/>
        <pt x="601" y="654" on="1"/>
        <pt x="205" y="102" on="1"/>
        <pt x="601" y="102" on="1"/>
        <pt x="601" y="0" on="1"/>
      </contour>
    </TTGlyph>
    <TTGlyph name="Zcaron" xMin="59" yMin="0" xMax="601" yMax="975">
      <contour>
        <pt x="274" y="804" on="1"/>
        <pt x="150" y="975" on="1"/>
        <pt x="247" y="975" on="1"/>
        <pt x="321" y="869" on="1"/>
        <pt x="395" y="975" on="1"/>
        <pt x="492" y="975" on="1"/>
        <pt x="368" y="804" on="1"/>
      </contour>
      <contour>
        <pt x="59" y="0" on="1"/>
        <pt x="59" y="87" on="1"/>
        <pt x="454" y="638" on="1"/>
        <pt x="59" y="638" on="1"/>
        <pt x="59" y="740" on="1"/>
        <pt x="601" y="740" on="1"/>
        <pt x="601" y="654" on="1"/>
        <pt x="205" y="102" on="1"/>
        <pt x="601" y="102" on="1"/>
        <pt x="601" y="0" on="1"/>
      </contour>
    </TTGlyph>
    <TTGlyph name="Zdotaccent" xMin="59" yMin="0" xMax="601" yMax="971">
      <contour>
        <pt x="321" y="831" on="1"/>
        <pt x="289" y="831" on="0"/>
        <pt x="249" y="873" on="0"/>
        <pt x="249" y="901" on="1"/>
        <pt x="249" y="930" on="0"/>
        <pt x="289" y="971" on="0"/>
        <pt x="321" y="971" on="1"/>
        <pt x="351" y="971" on="0"/>
        <pt x="392" y="930" on="0"/>
        <pt x="392" y="901" on="1"/>
        <pt x="392" y="872" on="0"/>
        <pt x="351" y="831" on="0"/>
      </contour>
      <contour>
        <pt x="59" y="0" on="1"/>
        <pt x="59" y="87" on="1"/>
        <pt x="454" y="638" on="1"/>
        <pt x="59" y="638" on="1"/>
        <pt x="59" y="740" on="1"/>
        <pt x="601" y="740" on="1"/>
        <pt x="601" y="654" on="1"/>
        <pt x="205" y="102" on="1"/>
        <pt x="601" y="102" on="1"/>
        <pt x="601" y="0" on="1"/>
      </contour>
    </TTGlyph>
    <TTGlyph name="a" xMin="57" yMin="-10" xMax="581" yMax="540">
      <contour>
        <pt x="295" y="540" on="1"/>
        <pt x="345" y="540" on="0"/>
        <pt x="412" y="508" on="0"/>
        <pt x="452" y="466" on="0"/>
        <pt x="461" y="451" on="1"/>
        <pt x="467" y="451" on="1"/>
        <pt x="467" y="530" on="1"/>
        <pt x="581" y="530" on="1"/>
        <pt x="581" y="0" on="1"/>
        <pt x="467" y="0" on="1"/>
        <pt x="467" y="79" on="1"/>
        <pt x="461" y="79" on="1"/>
        <pt x="452" y="64" on="0"/>
        <pt x="412" y="22" on="0"/>
        <pt x="345" y="-10" on="0"/>
        <pt x="295" y="-10" on="1"/>
        <pt x="235" y="-10" on="0"/>
        <pt x="146" y="37" on="0"/>
        <pt x="86" y="116" on="0"/>
        <pt x="57" y="214" on="0"/>
        <pt x="57" y="265" on="1"/>
        <pt x="57" y="316" on="0"/>
        <pt x="86" y="414" on="0"/>
        <pt x="146" y="493" on="0"/>
        <pt x="235" y="540" on="0"/>
      </contour>
      <contour>
        <pt x="320" y="445" on="1"/>
        <pt x="271" y="445" on="0"/>
        <pt x="205" y="392" on="0"/>
        <pt x="172" y="310" on="0"/>
        <pt x="172" y="265" on="1"/>
        <pt x="172" y="220" on="0"/>
        <pt x="205" y="138" on="0"/>
        <pt x="271" y="85" on="0"/>
        <pt x="320" y="85" on="1"/>
        <pt x="369" y="85" on="0"/>
        <pt x="434" y="138" on="0"/>
        <pt x="467" y="220" on="0"/>
        <pt x="467" y="265" on="1"/>
        <pt x="467" y="310" on="0"/>
        <pt x="434" y="392" on="0"/>
        <pt x="369" y="445" on="0"/>
      </contour>
    </TTGlyph>
    <TTGlyph name="a.ss01" xMin="51" yMin="-10" xMax="507" yMax="540">
      <contour>
        <pt x="386" y="69" on="1"/>
        <pt x="384" y="66" on="0"/>
        <pt x="365" y="42" on="0"/>
        <pt x="328" y="12" on="0"/>
        <pt x="269" y="-10" on="0"/>
        <pt x="227" y="-10" on="1"/>
        <pt x="149" y="-10" on="0"/>
        <pt x="51" y="72" on="0"/>
        <pt x="51" y="142" on="1"/>
        <pt x="51" y="195" on="0"/>
        <pt x="105" y="262" on="0"/>
        <pt x="194" y="299" on="0"/>
        <pt x="247" y="306" on="1"/>
        <pt x="393" y="328" on="1"/>
        <pt x="393" y="343" on="1"/>
        <pt x="393" y="366" on="0"/>
        <pt x="375" y="415" on="0"/>
        <pt x="328" y="449" on="0"/>
        <pt x="286" y="449" on="1"/>
        <pt x="248" y="449" on="0"/>
        <pt x="202" y="423" on="0"/>
        <pt x="181" y="390" on="0"/>
        <pt x="174" y="365" on="0"/>
        <pt x="174" y="365" on="1"/>
        <pt x="65" y="365" on="1"/>
        <pt x="65" y="365" on="0"/>
        <pt x="72" y="400" on="0"/>
        <pt x="95" y="452" on="0"/>
        <pt x="143" y="505" on="0"/>
        <pt x="225" y="540" on="0"/>
        <pt x="287" y="540" on="1"/>
        <pt x="361" y="540" on="0"/>
        <pt x="458" y="486" on="0"/>
        <pt x="507" y="396" on="0"/>
        <pt x="507" y="344" on="1"/>
        <pt x="507" y="0" on="1"/>
        <pt x="393" y="0" on="1"/>
        <pt x="393" y="69" on="1"/>
      </contour>
      <contour>
        <pt x="163" y="149" on="1"/>
        <pt x="163" y="110" on="0"/>
        <pt x="219" y="73" on="0"/>
        <pt x="256" y="73" on="1"/>
        <pt x="315" y="73" on="0"/>
        <pt x="393" y="159" on="0"/>
        <pt x="393" y="229" on="1"/>
        <pt x="393" y="247" on="1"/>
        <pt x="262" y="227" on="1"/>
        <pt x="220" y="220" on="0"/>
        <pt x="163" y="187" on="0"/>
      </contour>
    </TTGlyph>
    <TTGlyph name="aacute" xMin="61" yMin="-10" xMax="585" yMax="789">
      <contour>
        <pt x="374" y="608" on="1"/>
        <pt x="283" y="609" on="1"/>
        <pt x="367" y="789" on="1"/>
        <pt x="479" y="789" on="1"/>
      </contour>
      <contour>
        <pt x="299" y="540" on="1"/>
        <pt x="349" y="540" on="0"/>
        <pt x="416" y="508" on="0"/>
        <pt x="456" y="466" on="0"/>
        <pt x="465" y="451" on="1"/>
        <pt x="471" y="451" on="1"/>
        <pt x="471" y="530" on="1"/>
        <pt x="585" y="530" on="1"/>
        <pt x="585" y="0" on="1"/>
        <pt x="471" y="0" on="1"/>
        <pt x="471" y="79" on="1"/>
        <pt x="465" y="79" on="1"/>
        <pt x="456" y="64" on="0"/>
        <pt x="416" y="22" on="0"/>
        <pt x="349" y="-10" on="0"/>
        <pt x="299" y="-10" on="1"/>
        <pt x="239" y="-10" on="0"/>
        <pt x="150" y="37" on="0"/>
        <pt x="90" y="116" on="0"/>
        <pt x="61" y="214" on="0"/>
        <pt x="61" y="265" on="1"/>
        <pt x="61" y="316" on="0"/>
        <pt x="90" y="414" on="0"/>
        <pt x="150" y="493" on="0"/>
        <pt x="239" y="540" on="0"/>
      </contour>
      <contour>
        <pt x="324" y="445" on="1"/>
        <pt x="275" y="445" on="0"/>
        <pt x="209" y="392" on="0"/>
        <pt x="176" y="310" on="0"/>
        <pt x="176" y="265" on="1"/>
        <pt x="176" y="220" on="0"/>
        <pt x="209" y="138" on="0"/>
        <pt x="275" y="85" on="0"/>
        <pt x="324" y="85" on="1"/>
        <pt x="373" y="85" on="0"/>
        <pt x="438" y="138" on="0"/>
        <pt x="471" y="220" on="0"/>
        <pt x="471" y="265" on="1"/>
        <pt x="471" y="310" on="0"/>
        <pt x="438" y="392" on="0"/>
        <pt x="373" y="445" on="0"/>
      </contour>
    </TTGlyph>
    <TTGlyph name="aacute.ss01" xMin="61" yMin="-10" xMax="516" yMax="789">
      <contour>
        <pt x="344" y="608" on="1"/>
        <pt x="252" y="609" on="1"/>
        <pt x="337" y="789" on="1"/>
        <pt x="449" y="789" on="1"/>
      </contour>
      <contour>
        <pt x="395" y="69" on="1"/>
        <pt x="394" y="66" on="0"/>
        <pt x="375" y="42" on="0"/>
        <pt x="338" y="12" on="0"/>
        <pt x="279" y="-10" on="0"/>
        <pt x="236" y="-10" on="1"/>
        <pt x="158" y="-10" on="0"/>
        <pt x="61" y="72" on="0"/>
        <pt x="61" y="142" on="1"/>
        <pt x="61" y="195" on="0"/>
        <pt x="114" y="262" on="0"/>
        <pt x="204" y="299" on="0"/>
        <pt x="257" y="306" on="1"/>
        <pt x="403" y="328" on="1"/>
        <pt x="403" y="343" on="1"/>
        <pt x="403" y="366" on="0"/>
        <pt x="384" y="415" on="0"/>
        <pt x="338" y="449" on="0"/>
        <pt x="296" y="449" on="1"/>
        <pt x="257" y="449" on="0"/>
        <pt x="212" y="423" on="0"/>
        <pt x="190" y="390" on="0"/>
        <pt x="184" y="365" on="0"/>
        <pt x="184" y="365" on="1"/>
        <pt x="75" y="365" on="1"/>
        <pt x="75" y="365" on="0"/>
        <pt x="82" y="400" on="0"/>
        <pt x="105" y="452" on="0"/>
        <pt x="153" y="505" on="0"/>
        <pt x="234" y="540" on="0"/>
        <pt x="297" y="540" on="1"/>
        <pt x="371" y="540" on="0"/>
        <pt x="468" y="486" on="0"/>
        <pt x="516" y="396" on="0"/>
        <pt x="516" y="344" on="1"/>
        <pt x="516" y="0" on="1"/>
        <pt x="403" y="0" on="1"/>
        <pt x="403" y="69" on="1"/>
      </contour>
      <contour>
        <pt x="172" y="149" on="1"/>
        <pt x="172" y="110" on="0"/>
        <pt x="228" y="73" on="0"/>
        <pt x="266" y="73" on="1"/>
        <pt x="325" y="73" on="0"/>
        <pt x="403" y="159" on="0"/>
        <pt x="403" y="229" on="1"/>
        <pt x="403" y="247" on="1"/>
        <pt x="272" y="227" on="1"/>
        <pt x="230" y="220" on="0"/>
        <pt x="172" y="187" on="0"/>
      </contour>
    </TTGlyph>
    <TTGlyph name="abreve" xMin="61" yMin="-10" xMax="585" yMax="761">
      <contour>
        <pt x="329" y="602" on="1"/>
        <pt x="278" y="602" on="0"/>
        <pt x="214" y="634" on="0"/>
        <pt x="179" y="682" on="0"/>
        <pt x="165" y="729" on="0"/>
        <pt x="162" y="761" on="0"/>
        <pt x="162" y="761" on="1"/>
        <pt x="242" y="761" on="1"/>
        <pt x="242" y="761" on="0"/>
        <pt x="246" y="735" on="0"/>
        <pt x="261" y="701" on="0"/>
        <pt x="297" y="675" on="0"/>
        <pt x="329" y="675" on="1"/>
        <pt x="361" y="675" on="0"/>
        <pt x="396" y="701" on="0"/>
        <pt x="411" y="735" on="0"/>
        <pt x="415" y="761" on="0"/>
        <pt x="415" y="761" on="1"/>
        <pt x="495" y="761" on="1"/>
        <pt x="495" y="761" on="0"/>
        <pt x="493" y="729" on="0"/>
        <pt x="478" y="682" on="0"/>
        <pt x="443" y="634" on="0"/>
        <pt x="379" y="602" on="0"/>
      </contour>
      <contour>
        <pt x="299" y="540" on="1"/>
        <pt x="349" y="540" on="0"/>
        <pt x="416" y="508" on="0"/>
        <pt x="456" y="466" on="0"/>
        <pt x="465" y="451" on="1"/>
        <pt x="471" y="451" on="1"/>
        <pt x="471" y="530" on="1"/>
        <pt x="585" y="530" on="1"/>
        <pt x="585" y="0" on="1"/>
        <pt x="471" y="0" on="1"/>
        <pt x="471" y="79" on="1"/>
        <pt x="465" y="79" on="1"/>
        <pt x="456" y="64" on="0"/>
        <pt x="416" y="22" on="0"/>
        <pt x="349" y="-10" on="0"/>
        <pt x="299" y="-10" on="1"/>
        <pt x="239" y="-10" on="0"/>
        <pt x="150" y="37" on="0"/>
        <pt x="90" y="116" on="0"/>
        <pt x="61" y="214" on="0"/>
        <pt x="61" y="265" on="1"/>
        <pt x="61" y="316" on="0"/>
        <pt x="90" y="414" on="0"/>
        <pt x="150" y="493" on="0"/>
        <pt x="239" y="540" on="0"/>
      </contour>
      <contour>
        <pt x="324" y="445" on="1"/>
        <pt x="275" y="445" on="0"/>
        <pt x="209" y="392" on="0"/>
        <pt x="176" y="310" on="0"/>
        <pt x="176" y="265" on="1"/>
        <pt x="176" y="220" on="0"/>
        <pt x="209" y="138" on="0"/>
        <pt x="275" y="85" on="0"/>
        <pt x="324" y="85" on="1"/>
        <pt x="373" y="85" on="0"/>
        <pt x="438" y="138" on="0"/>
        <pt x="471" y="220" on="0"/>
        <pt x="471" y="265" on="1"/>
        <pt x="471" y="310" on="0"/>
        <pt x="438" y="392" on="0"/>
        <pt x="373" y="445" on="0"/>
      </contour>
    </TTGlyph>
    <TTGlyph name="abreve.ss01" xMin="61" yMin="-10" xMax="516" yMax="761">
      <contour>
        <pt x="298" y="602" on="1"/>
        <pt x="248" y="602" on="0"/>
        <pt x="184" y="634" on="0"/>
        <pt x="149" y="682" on="0"/>
        <pt x="134" y="729" on="0"/>
        <pt x="131" y="761" on="0"/>
        <pt x="131" y="761" on="1"/>
        <pt x="212" y="761" on="1"/>
        <pt x="212" y="761" on="0"/>
        <pt x="215" y="735" on="0"/>
        <pt x="231" y="701" on="0"/>
        <pt x="266" y="675" on="0"/>
        <pt x="298" y="675" on="1"/>
        <pt x="330" y="675" on="0"/>
        <pt x="366" y="701" on="0"/>
        <pt x="381" y="735" on="0"/>
        <pt x="384" y="761" on="0"/>
        <pt x="384" y="761" on="1"/>
        <pt x="465" y="761" on="1"/>
        <pt x="465" y="761" on="0"/>
        <pt x="462" y="729" on="0"/>
        <pt x="447" y="682" on="0"/>
        <pt x="412" y="634" on="0"/>
        <pt x="349" y="602" on="0"/>
      </contour>
      <contour>
        <pt x="395" y="69" on="1"/>
        <pt x="394" y="66" on="0"/>
        <pt x="375" y="42" on="0"/>
        <pt x="338" y="12" on="0"/>
        <pt x="279" y="-10" on="0"/>
        <pt x="236" y="-10" on="1"/>
        <pt x="158" y="-10" on="0"/>
        <pt x="61" y="72" on="0"/>
        <pt x="61" y="142" on="1"/>
        <pt x="61" y="195" on="0"/>
        <pt x="114" y="262" on="0"/>
        <pt x="204" y="299" on="0"/>
        <pt x="257" y="306" on="1"/>
        <pt x="403" y="328" on="1"/>
        <pt x="403" y="343" on="1"/>
        <pt x="403" y="366" on="0"/>
        <pt x="384" y="415" on="0"/>
        <pt x="338" y="449" on="0"/>
        <pt x="296" y="449" on="1"/>
        <pt x="257" y="449" on="0"/>
        <pt x="212" y="423" on="0"/>
        <pt x="190" y="390" on="0"/>
        <pt x="184" y="365" on="0"/>
        <pt x="184" y="365" on="1"/>
        <pt x="75" y="365" on="1"/>
        <pt x="75" y="365" on="0"/>
        <pt x="82" y="400" on="0"/>
        <pt x="105" y="452" on="0"/>
        <pt x="153" y="505" on="0"/>
        <pt x="234" y="540" on="0"/>
        <pt x="297" y="540" on="1"/>
        <pt x="371" y="540" on="0"/>
        <pt x="468" y="486" on="0"/>
        <pt x="516" y="396" on="0"/>
        <pt x="516" y="344" on="1"/>
        <pt x="516" y="0" on="1"/>
        <pt x="403" y="0" on="1"/>
        <pt x="403" y="69" on="1"/>
      </contour>
      <contour>
        <pt x="172" y="149" on="1"/>
        <pt x="172" y="110" on="0"/>
        <pt x="228" y="73" on="0"/>
        <pt x="266" y="73" on="1"/>
        <pt x="325" y="73" on="0"/>
        <pt x="403" y="159" on="0"/>
        <pt x="403" y="229" on="1"/>
        <pt x="403" y="247" on="1"/>
        <pt x="272" y="227" on="1"/>
        <pt x="230" y="220" on="0"/>
        <pt x="172" y="187" on="0"/>
      </contour>
    </TTGlyph>
    <TTGlyph name="acircumflex" xMin="61" yMin="-10" xMax="585" yMax="774">
      <contour>
        <pt x="158" y="603" on="1"/>
        <pt x="282" y="774" on="1"/>
        <pt x="376" y="774" on="1"/>
        <pt x="500" y="603" on="1"/>
        <pt x="403" y="603" on="1"/>
        <pt x="329" y="709" on="1"/>
        <pt x="255" y="603" on="1"/>
      </contour>
      <contour>
        <pt x="299" y="540" on="1"/>
        <pt x="349" y="540" on="0"/>
        <pt x="416" y="508" on="0"/>
        <pt x="456" y="466" on="0"/>
        <pt x="465" y="451" on="1"/>
        <pt x="471" y="451" on="1"/>
        <pt x="471" y="530" on="1"/>
        <pt x="585" y="530" on="1"/>
        <pt x="585" y="0" on="1"/>
        <pt x="471" y="0" on="1"/>
        <pt x="471" y="79" on="1"/>
        <pt x="465" y="79" on="1"/>
        <pt x="456" y="64" on="0"/>
        <pt x="416" y="22" on="0"/>
        <pt x="349" y="-10" on="0"/>
        <pt x="299" y="-10" on="1"/>
        <pt x="239" y="-10" on="0"/>
        <pt x="150" y="37" on="0"/>
        <pt x="90" y="116" on="0"/>
        <pt x="61" y="214" on="0"/>
        <pt x="61" y="265" on="1"/>
        <pt x="61" y="316" on="0"/>
        <pt x="90" y="414" on="0"/>
        <pt x="150" y="493" on="0"/>
        <pt x="239" y="540" on="0"/>
      </contour>
      <contour>
        <pt x="324" y="445" on="1"/>
        <pt x="275" y="445" on="0"/>
        <pt x="209" y="392" on="0"/>
        <pt x="176" y="310" on="0"/>
        <pt x="176" y="265" on="1"/>
        <pt x="176" y="220" on="0"/>
        <pt x="209" y="138" on="0"/>
        <pt x="275" y="85" on="0"/>
        <pt x="324" y="85" on="1"/>
        <pt x="373" y="85" on="0"/>
        <pt x="438" y="138" on="0"/>
        <pt x="471" y="220" on="0"/>
        <pt x="471" y="265" on="1"/>
        <pt x="471" y="310" on="0"/>
        <pt x="438" y="392" on="0"/>
        <pt x="373" y="445" on="0"/>
      </contour>
    </TTGlyph>
    <TTGlyph name="acircumflex.ss01" xMin="61" yMin="-10" xMax="516" yMax="774">
      <contour>
        <pt x="128" y="603" on="1"/>
        <pt x="252" y="774" on="1"/>
        <pt x="346" y="774" on="1"/>
        <pt x="470" y="603" on="1"/>
        <pt x="373" y="603" on="1"/>
        <pt x="298" y="709" on="1"/>
        <pt x="225" y="603" on="1"/>
      </contour>
      <contour>
        <pt x="395" y="69" on="1"/>
        <pt x="394" y="66" on="0"/>
        <pt x="375" y="42" on="0"/>
        <pt x="338" y="12" on="0"/>
        <pt x="279" y="-10" on="0"/>
        <pt x="236" y="-10" on="1"/>
        <pt x="158" y="-10" on="0"/>
        <pt x="61" y="72" on="0"/>
        <pt x="61" y="142" on="1"/>
        <pt x="61" y="195" on="0"/>
        <pt x="114" y="262" on="0"/>
        <pt x="204" y="299" on="0"/>
        <pt x="257" y="306" on="1"/>
        <pt x="403" y="328" on="1"/>
        <pt x="403" y="343" on="1"/>
        <pt x="403" y="366" on="0"/>
        <pt x="384" y="415" on="0"/>
        <pt x="338" y="449" on="0"/>
        <pt x="296" y="449" on="1"/>
        <pt x="257" y="449" on="0"/>
        <pt x="212" y="423" on="0"/>
        <pt x="190" y="390" on="0"/>
        <pt x="184" y="365" on="0"/>
        <pt x="184" y="365" on="1"/>
        <pt x="75" y="365" on="1"/>
        <pt x="75" y="365" on="0"/>
        <pt x="82" y="400" on="0"/>
        <pt x="105" y="452" on="0"/>
        <pt x="153" y="505" on="0"/>
        <pt x="234" y="540" on="0"/>
        <pt x="297" y="540" on="1"/>
        <pt x="371" y="540" on="0"/>
        <pt x="468" y="486" on="0"/>
        <pt x="516" y="396" on="0"/>
        <pt x="516" y="344" on="1"/>
        <pt x="516" y="0" on="1"/>
        <pt x="403" y="0" on="1"/>
        <pt x="403" y="69" on="1"/>
      </contour>
      <contour>
        <pt x="172" y="149" on="1"/>
        <pt x="172" y="110" on="0"/>
        <pt x="228" y="73" on="0"/>
        <pt x="266" y="73" on="1"/>
        <pt x="325" y="73" on="0"/>
        <pt x="403" y="159" on="0"/>
        <pt x="403" y="229" on="1"/>
        <pt x="403" y="247" on="1"/>
        <pt x="272" y="227" on="1"/>
        <pt x="230" y="220" on="0"/>
        <pt x="172" y="187" on="0"/>
      </contour>
    </TTGlyph>
    <TTGlyph name="acute" xMin="3" yMin="608" xMax="200" yMax="789">
      <contour>
        <pt x="95" y="608" on="1"/>
        <pt x="3" y="609" on="1"/>
        <pt x="87" y="789" on="1"/>
        <pt x="200" y="789" on="1"/>
      </contour>
    </TTGlyph>
    <TTGlyph name="acutecomb" xMin="19" yMin="608" xMax="216" yMax="789">
      <contour>
        <pt x="111" y="608" on="1"/>
        <pt x="19" y="609" on="1"/>
        <pt x="103" y="789" on="1"/>
        <pt x="216" y="789" on="1"/>
      </contour>
    </TTGlyph>
    <TTGlyph name="adieresis" xMin="61" yMin="-10" xMax="585" yMax="742">
      <contour>
        <pt x="430" y="604" on="1"/>
        <pt x="399" y="604" on="0"/>
        <pt x="360" y="645" on="0"/>
        <pt x="360" y="673" on="1"/>
        <pt x="360" y="701" on="0"/>
        <pt x="399" y="742" on="0"/>
        <pt x="430" y="742" on="1"/>
        <pt x="459" y="742" on="0"/>
        <pt x="500" y="701" on="0"/>
        <pt x="500" y="673" on="1"/>
        <pt x="500" y="644" on="0"/>
        <pt x="459" y="604" on="0"/>
      </contour>
      <contour>
        <pt x="227" y="604" on="1"/>
        <pt x="197" y="604" on="0"/>
        <pt x="157" y="645" on="0"/>
        <pt x="157" y="673" on="1"/>
        <pt x="157" y="701" on="0"/>
        <pt x="197" y="742" on="0"/>
        <pt x="227" y="742" on="1"/>
        <pt x="257" y="742" on="0"/>
        <pt x="297" y="701" on="0"/>
        <pt x="297" y="673" on="1"/>
        <pt x="297" y="644" on="0"/>
        <pt x="257" y="604" on="0"/>
      </contour>
      <contour>
        <pt x="299" y="540" on="1"/>
        <pt x="349" y="540" on="0"/>
        <pt x="416" y="508" on="0"/>
        <pt x="456" y="466" on="0"/>
        <pt x="465" y="451" on="1"/>
        <pt x="471" y="451" on="1"/>
        <pt x="471" y="530" on="1"/>
        <pt x="585" y="530" on="1"/>
        <pt x="585" y="0" on="1"/>
        <pt x="471" y="0" on="1"/>
        <pt x="471" y="79" on="1"/>
        <pt x="465" y="79" on="1"/>
        <pt x="456" y="64" on="0"/>
        <pt x="416" y="22" on="0"/>
        <pt x="349" y="-10" on="0"/>
        <pt x="299" y="-10" on="1"/>
        <pt x="239" y="-10" on="0"/>
        <pt x="150" y="37" on="0"/>
        <pt x="90" y="116" on="0"/>
        <pt x="61" y="214" on="0"/>
        <pt x="61" y="265" on="1"/>
        <pt x="61" y="316" on="0"/>
        <pt x="90" y="414" on="0"/>
        <pt x="150" y="493" on="0"/>
        <pt x="239" y="540" on="0"/>
      </contour>
      <contour>
        <pt x="324" y="445" on="1"/>
        <pt x="275" y="445" on="0"/>
        <pt x="209" y="392" on="0"/>
        <pt x="176" y="310" on="0"/>
        <pt x="176" y="265" on="1"/>
        <pt x="176" y="220" on="0"/>
        <pt x="209" y="138" on="0"/>
        <pt x="275" y="85" on="0"/>
        <pt x="324" y="85" on="1"/>
        <pt x="373" y="85" on="0"/>
        <pt x="438" y="138" on="0"/>
        <pt x="471" y="220" on="0"/>
        <pt x="471" y="265" on="1"/>
        <pt x="471" y="310" on="0"/>
        <pt x="438" y="392" on="0"/>
        <pt x="373" y="445" on="0"/>
      </contour>
    </TTGlyph>
    <TTGlyph name="adieresis.ss01" xMin="61" yMin="-10" xMax="516" yMax="742">
      <contour>
        <pt x="399" y="604" on="1"/>
        <pt x="368" y="604" on="0"/>
        <pt x="329" y="645" on="0"/>
        <pt x="329" y="673" on="1"/>
        <pt x="329" y="702" on="0"/>
        <pt x="368" y="742" on="0"/>
        <pt x="399" y="742" on="1"/>
        <pt x="429" y="742" on="0"/>
        <pt x="469" y="702" on="0"/>
        <pt x="469" y="673" on="1"/>
        <pt x="469" y="644" on="0"/>
        <pt x="429" y="604" on="0"/>
      </contour>
      <contour>
        <pt x="197" y="604" on="1"/>
        <pt x="166" y="604" on="0"/>
        <pt x="127" y="645" on="0"/>
        <pt x="127" y="673" on="1"/>
        <pt x="127" y="702" on="0"/>
        <pt x="166" y="742" on="0"/>
        <pt x="197" y="742" on="1"/>
        <pt x="227" y="742" on="0"/>
        <pt x="267" y="702" on="0"/>
        <pt x="267" y="673" on="1"/>
        <pt x="267" y="644" on="0"/>
        <pt x="227" y="604" on="0"/>
      </contour>
      <contour>
        <pt x="395" y="69" on="1"/>
        <pt x="394" y="66" on="0"/>
        <pt x="375" y="42" on="0"/>
        <pt x="338" y="12" on="0"/>
        <pt x="279" y="-10" on="0"/>
        <pt x="236" y="-10" on="1"/>
        <pt x="158" y="-10" on="0"/>
        <pt x="61" y="72" on="0"/>
        <pt x="61" y="142" on="1"/>
        <pt x="61" y="195" on="0"/>
        <pt x="114" y="262" on="0"/>
        <pt x="204" y="299" on="0"/>
        <pt x="257" y="306" on="1"/>
        <pt x="403" y="328" on="1"/>
        <pt x="403" y="343" on="1"/>
        <pt x="403" y="366" on="0"/>
        <pt x="384" y="415" on="0"/>
        <pt x="338" y="449" on="0"/>
        <pt x="296" y="449" on="1"/>
        <pt x="257" y="449" on="0"/>
        <pt x="212" y="423" on="0"/>
        <pt x="190" y="390" on="0"/>
        <pt x="184" y="365" on="0"/>
        <pt x="184" y="365" on="1"/>
        <pt x="75" y="365" on="1"/>
        <pt x="75" y="365" on="0"/>
        <pt x="82" y="400" on="0"/>
        <pt x="105" y="452" on="0"/>
        <pt x="153" y="505" on="0"/>
        <pt x="234" y="540" on="0"/>
        <pt x="297" y="540" on="1"/>
        <pt x="371" y="540" on="0"/>
        <pt x="468" y="486" on="0"/>
        <pt x="516" y="396" on="0"/>
        <pt x="516" y="344" on="1"/>
        <pt x="516" y="0" on="1"/>
        <pt x="403" y="0" on="1"/>
        <pt x="403" y="69" on="1"/>
      </contour>
      <contour>
        <pt x="172" y="149" on="1"/>
        <pt x="172" y="110" on="0"/>
        <pt x="228" y="73" on="0"/>
        <pt x="266" y="73" on="1"/>
        <pt x="325" y="73" on="0"/>
        <pt x="403" y="159" on="0"/>
        <pt x="403" y="229" on="1"/>
        <pt x="403" y="247" on="1"/>
        <pt x="272" y="227" on="1"/>
        <pt x="230" y="220" on="0"/>
        <pt x="172" y="187" on="0"/>
      </contour>
    </TTGlyph>
    <TTGlyph name="ae" xMin="55" yMin="-10" xMax="906" yMax="540">
      <contour>
        <pt x="242" y="-10" on="1"/>
        <pt x="190" y="-10" on="0"/>
        <pt x="105" y="27" on="0"/>
        <pt x="55" y="98" on="0"/>
        <pt x="55" y="151" on="1"/>
        <pt x="55" y="224" on="0"/>
        <pt x="165" y="310" on="0"/>
        <pt x="261" y="311" on="1"/>
        <pt x="403" y="311" on="1"/>
        <pt x="403" y="339" on="1"/>
        <pt x="403" y="363" on="0"/>
        <pt x="384" y="415" on="0"/>
        <pt x="335" y="451" on="0"/>
        <pt x="291" y="451" on="1"/>
        <pt x="252" y="451" on="0"/>
        <pt x="206" y="425" on="0"/>
        <pt x="183" y="391" on="0"/>
        <pt x="176" y="365" on="0"/>
        <pt x="176" y="365" on="1"/>
        <pt x="67" y="365" on="1"/>
        <pt x="67" y="365" on="0"/>
        <pt x="75" y="400" on="0"/>
        <pt x="99" y="452" on="0"/>
        <pt x="147" y="505" on="0"/>
        <pt x="226" y="540" on="0"/>
        <pt x="286" y="540" on="1"/>
        <pt x="342" y="540" on="0"/>
        <pt x="418" y="508" on="0"/>
        <pt x="462" y="461" on="0"/>
        <pt x="469" y="438" on="1"/>
        <pt x="472" y="438" on="1"/>
        <pt x="482" y="460" on="0"/>
        <pt x="530" y="507" on="0"/>
        <pt x="609" y="540" on="0"/>
        <pt x="665" y="540" on="1"/>
        <pt x="734" y="540" on="0"/>
        <pt x="843" y="478" on="0"/>
        <pt x="906" y="354" on="0"/>
        <pt x="906" y="262" on="1"/>
        <pt x="906" y="231" on="1"/>
        <pt x="518" y="231" on="1"/>
        <pt x="520" y="191" on="0"/>
        <pt x="556" y="122" on="0"/>
        <pt x="622" y="80" on="0"/>
        <pt x="668" y="80" on="1"/>
        <pt x="706" y="80" on="0"/>
        <pt x="755" y="105" on="0"/>
        <pt x="783" y="139" on="0"/>
        <pt x="794" y="164" on="0"/>
        <pt x="794" y="164" on="1"/>
        <pt x="900" y="164" on="1"/>
        <pt x="900" y="164" on="0"/>
        <pt x="890" y="129" on="0"/>
        <pt x="862" y="77" on="0"/>
        <pt x="810" y="25" on="0"/>
        <pt x="727" y="-10" on="0"/>
        <pt x="666" y="-10" on="1"/>
        <pt x="615" y="-10" on="0"/>
        <pt x="538" y="17" on="0"/>
        <pt x="486" y="57" on="0"/>
        <pt x="456" y="97" on="0"/>
        <pt x="450" y="110" on="1"/>
        <pt x="445" y="110" on="1"/>
        <pt x="445" y="110" on="0"/>
        <pt x="428" y="74" on="0"/>
        <pt x="384" y="26" on="0"/>
        <pt x="304" y="-10" on="0"/>
      </contour>
      <contour>
        <pt x="517" y="310" on="1"/>
        <pt x="796" y="310" on="1"/>
        <pt x="792" y="388" on="0"/>
        <pt x="715" y="452" on="0"/>
        <pt x="662" y="452" on="1"/>
        <pt x="602" y="452" on="0"/>
        <pt x="522" y="377" on="0"/>
      </contour>
      <contour>
        <pt x="266" y="73" on="1"/>
        <pt x="308" y="73" on="0"/>
        <pt x="370" y="112" on="0"/>
        <pt x="403" y="178" on="0"/>
        <pt x="403" y="217" on="1"/>
        <pt x="403" y="231" on="1"/>
        <pt x="265" y="231" on="1"/>
        <pt x="214" y="230" on="0"/>
        <pt x="165" y="185" on="0"/>
        <pt x="165" y="152" on="1"/>
        <pt x="165" y="112" on="0"/>
        <pt x="226" y="73" on="0"/>
      </contour>
    </TTGlyph>
    <TTGlyph name="agrave" xMin="61" yMin="-10" xMax="585" yMax="789">
      <contour>
        <pt x="287" y="608" on="1"/>
        <pt x="182" y="789" on="1"/>
        <pt x="294" y="789" on="1"/>
        <pt x="378" y="609" on="1"/>
      </contour>
      <contour>
        <pt x="299" y="540" on="1"/>
        <pt x="349" y="540" on="0"/>
        <pt x="416" y="508" on="0"/>
        <pt x="456" y="466" on="0"/>
        <pt x="465" y="451" on="1"/>
        <pt x="471" y="451" on="1"/>
        <pt x="471" y="530" on="1"/>
        <pt x="585" y="530" on="1"/>
        <pt x="585" y="0" on="1"/>
        <pt x="471" y="0" on="1"/>
        <pt x="471" y="79" on="1"/>
        <pt x="465" y="79" on="1"/>
        <pt x="456" y="64" on="0"/>
        <pt x="416" y="22" on="0"/>
        <pt x="349" y="-10" on="0"/>
        <pt x="299" y="-10" on="1"/>
        <pt x="239" y="-10" on="0"/>
        <pt x="150" y="37" on="0"/>
        <pt x="90" y="116" on="0"/>
        <pt x="61" y="214" on="0"/>
        <pt x="61" y="265" on="1"/>
        <pt x="61" y="316" on="0"/>
        <pt x="90" y="414" on="0"/>
        <pt x="150" y="493" on="0"/>
        <pt x="239" y="540" on="0"/>
      </contour>
      <contour>
        <pt x="324" y="445" on="1"/>
        <pt x="275" y="445" on="0"/>
        <pt x="209" y="392" on="0"/>
        <pt x="176" y="310" on="0"/>
        <pt x="176" y="265" on="1"/>
        <pt x="176" y="220" on="0"/>
        <pt x="209" y="138" on="0"/>
        <pt x="275" y="85" on="0"/>
        <pt x="324" y="85" on="1"/>
        <pt x="373" y="85" on="0"/>
        <pt x="438" y="138" on="0"/>
        <pt x="471" y="220" on="0"/>
        <pt x="471" y="265" on="1"/>
        <pt x="471" y="310" on="0"/>
        <pt x="438" y="392" on="0"/>
        <pt x="373" y="445" on="0"/>
      </contour>
    </TTGlyph>
    <TTGlyph name="agrave.ss01" xMin="61" yMin="-10" xMax="516" yMax="789">
      <contour>
        <pt x="256" y="608" on="1"/>
        <pt x="151" y="789" on="1"/>
        <pt x="264" y="789" on="1"/>
        <pt x="348" y="609" on="1"/>
      </contour>
      <contour>
        <pt x="395" y="69" on="1"/>
        <pt x="394" y="66" on="0"/>
        <pt x="375" y="42" on="0"/>
        <pt x="338" y="12" on="0"/>
        <pt x="279" y="-10" on="0"/>
        <pt x="236" y="-10" on="1"/>
        <pt x="158" y="-10" on="0"/>
        <pt x="61" y="72" on="0"/>
        <pt x="61" y="142" on="1"/>
        <pt x="61" y="195" on="0"/>
        <pt x="114" y="262" on="0"/>
        <pt x="204" y="299" on="0"/>
        <pt x="257" y="306" on="1"/>
        <pt x="403" y="328" on="1"/>
        <pt x="403" y="343" on="1"/>
        <pt x="403" y="366" on="0"/>
        <pt x="384" y="415" on="0"/>
        <pt x="338" y="449" on="0"/>
        <pt x="296" y="449" on="1"/>
        <pt x="257" y="449" on="0"/>
        <pt x="212" y="423" on="0"/>
        <pt x="190" y="390" on="0"/>
        <pt x="184" y="365" on="0"/>
        <pt x="184" y="365" on="1"/>
        <pt x="75" y="365" on="1"/>
        <pt x="75" y="365" on="0"/>
        <pt x="82" y="400" on="0"/>
        <pt x="105" y="452" on="0"/>
        <pt x="153" y="505" on="0"/>
        <pt x="234" y="540" on="0"/>
        <pt x="297" y="540" on="1"/>
        <pt x="371" y="540" on="0"/>
        <pt x="468" y="486" on="0"/>
        <pt x="516" y="396" on="0"/>
        <pt x="516" y="344" on="1"/>
        <pt x="516" y="0" on="1"/>
        <pt x="403" y="0" on="1"/>
        <pt x="403" y="69" on="1"/>
      </contour>
      <contour>
        <pt x="172" y="149" on="1"/>
        <pt x="172" y="110" on="0"/>
        <pt x="228" y="73" on="0"/>
        <pt x="266" y="73" on="1"/>
        <pt x="325" y="73" on="0"/>
        <pt x="403" y="159" on="0"/>
        <pt x="403" y="229" on="1"/>
        <pt x="403" y="247" on="1"/>
        <pt x="272" y="227" on="1"/>
        <pt x="230" y="220" on="0"/>
        <pt x="172" y="187" on="0"/>
      </contour>
    </TTGlyph>
    <TTGlyph name="amacron" xMin="61" yMin="-10" xMax="585" yMax="700">
      <contour>
        <pt x="173" y="622" on="1"/>
        <pt x="173" y="700" on="1"/>
        <pt x="484" y="700" on="1"/>
        <pt x="484" y="622" on="1"/>
      </contour>
      <contour>
        <pt x="299" y="540" on="1"/>
        <pt x="349" y="540" on="0"/>
        <pt x="416" y="508" on="0"/>
        <pt x="456" y="466" on="0"/>
        <pt x="465" y="451" on="1"/>
        <pt x="471" y="451" on="1"/>
        <pt x="471" y="530" on="1"/>
        <pt x="585" y="530" on="1"/>
        <pt x="585" y="0" on="1"/>
        <pt x="471" y="0" on="1"/>
        <pt x="471" y="79" on="1"/>
        <pt x="465" y="79" on="1"/>
        <pt x="456" y="64" on="0"/>
        <pt x="416" y="22" on="0"/>
        <pt x="349" y="-10" on="0"/>
        <pt x="299" y="-10" on="1"/>
        <pt x="239" y="-10" on="0"/>
        <pt x="150" y="37" on="0"/>
        <pt x="90" y="116" on="0"/>
        <pt x="61" y="214" on="0"/>
        <pt x="61" y="265" on="1"/>
        <pt x="61" y="316" on="0"/>
        <pt x="90" y="414" on="0"/>
        <pt x="150" y="493" on="0"/>
        <pt x="239" y="540" on="0"/>
      </contour>
      <contour>
        <pt x="324" y="445" on="1"/>
        <pt x="275" y="445" on="0"/>
        <pt x="209" y="392" on="0"/>
        <pt x="176" y="310" on="0"/>
        <pt x="176" y="265" on="1"/>
        <pt x="176" y="220" on="0"/>
        <pt x="209" y="138" on="0"/>
        <pt x="275" y="85" on="0"/>
        <pt x="324" y="85" on="1"/>
        <pt x="373" y="85" on="0"/>
        <pt x="438" y="138" on="0"/>
        <pt x="471" y="220" on="0"/>
        <pt x="471" y="265" on="1"/>
        <pt x="471" y="310" on="0"/>
        <pt x="438" y="392" on="0"/>
        <pt x="373" y="445" on="0"/>
      </contour>
    </TTGlyph>
    <TTGlyph name="amacron.ss01" xMin="61" yMin="-10" xMax="516" yMax="700">
      <contour>
        <pt x="143" y="622" on="1"/>
        <pt x="143" y="700" on="1"/>
        <pt x="454" y="700" on="1"/>
        <pt x="454" y="622" on="1"/>
      </contour>
      <contour>
        <pt x="395" y="69" on="1"/>
        <pt x="394" y="66" on="0"/>
        <pt x="375" y="42" on="0"/>
        <pt x="338" y="12" on="0"/>
        <pt x="279" y="-10" on="0"/>
        <pt x="236" y="-10" on="1"/>
        <pt x="158" y="-10" on="0"/>
        <pt x="61" y="72" on="0"/>
        <pt x="61" y="142" on="1"/>
        <pt x="61" y="195" on="0"/>
        <pt x="114" y="262" on="0"/>
        <pt x="204" y="299" on="0"/>
        <pt x="257" y="306" on="1"/>
        <pt x="403" y="328" on="1"/>
        <pt x="403" y="343" on="1"/>
        <pt x="403" y="366" on="0"/>
        <pt x="384" y="415" on="0"/>
        <pt x="338" y="449" on="0"/>
        <pt x="296" y="449" on="1"/>
        <pt x="257" y="449" on="0"/>
        <pt x="212" y="423" on="0"/>
        <pt x="190" y="390" on="0"/>
        <pt x="184" y="365" on="0"/>
        <pt x="184" y="365" on="1"/>
        <pt x="75" y="365" on="1"/>
        <pt x="75" y="365" on="0"/>
        <pt x="82" y="400" on="0"/>
        <pt x="105" y="452" on="0"/>
        <pt x="153" y="505" on="0"/>
        <pt x="234" y="540" on="0"/>
        <pt x="297" y="540" on="1"/>
        <pt x="371" y="540" on="0"/>
        <pt x="468" y="486" on="0"/>
        <pt x="516" y="396" on="0"/>
        <pt x="516" y="344" on="1"/>
        <pt x="516" y="0" on="1"/>
        <pt x="403" y="0" on="1"/>
        <pt x="403" y="69" on="1"/>
      </contour>
      <contour>
        <pt x="172" y="149" on="1"/>
        <pt x="172" y="110" on="0"/>
        <pt x="228" y="73" on="0"/>
        <pt x="266" y="73" on="1"/>
        <pt x="325" y="73" on="0"/>
        <pt x="403" y="159" on="0"/>
        <pt x="403" y="229" on="1"/>
        <pt x="403" y="247" on="1"/>
        <pt x="272" y="227" on="1"/>
        <pt x="230" y="220" on="0"/>
        <pt x="172" y="187" on="0"/>
      </contour>
    </TTGlyph>
    <TTGlyph name="ampersand" xMin="57" yMin="-10" xMax="708" yMax="750">
      <contour>
        <pt x="315" y="-10" on="1"/>
        <pt x="245" y="-10" on="0"/>
        <pt x="127" y="41" on="0"/>
        <pt x="57" y="137" on="0"/>
        <pt x="57" y="205" on="1"/>
        <pt x="57" y="275" on="0"/>
        <pt x="136" y="376" on="0"/>
        <pt x="204" y="414" on="1"/>
        <pt x="204" y="415" on="1"/>
        <pt x="178" y="444" on="0"/>
        <pt x="131" y="521" on="0"/>
        <pt x="131" y="577" on="1"/>
        <pt x="131" y="634" on="0"/>
        <pt x="184" y="711" on="0"/>
        <pt x="269" y="750" on="0"/>
        <pt x="316" y="750" on="1"/>
        <pt x="362" y="750" on="0"/>
        <pt x="444" y="713" on="0"/>
        <pt x="496" y="641" on="0"/>
        <pt x="496" y="589" on="1"/>
        <pt x="496" y="527" on="0"/>
        <pt x="418" y="433" on="0"/>
        <pt x="352" y="398" on="1"/>
        <pt x="517" y="214" on="1"/>
        <pt x="535" y="254" on="0"/>
        <pt x="555" y="358" on="0"/>
        <pt x="555" y="424" on="1"/>
        <pt x="650" y="424" on="1"/>
        <pt x="650" y="332" on="0"/>
        <pt x="615" y="191" on="0"/>
        <pt x="584" y="139" on="1"/>
        <pt x="708" y="1" on="1"/>
        <pt x="566" y="1" on="1"/>
        <pt x="516" y="58" on="1"/>
        <pt x="473" y="23" on="0"/>
        <pt x="371" y="-10" on="0"/>
      </contour>
      <contour>
        <pt x="229" y="581" on="1"/>
        <pt x="229" y="549" on="0"/>
        <pt x="269" y="492" on="0"/>
        <pt x="297" y="461" on="1"/>
        <pt x="299" y="461" on="1"/>
        <pt x="343" y="483" on="0"/>
        <pt x="398" y="544" on="0"/>
        <pt x="398" y="584" on="1"/>
        <pt x="398" y="624" on="0"/>
        <pt x="349" y="665" on="0"/>
        <pt x="316" y="665" on="1"/>
        <pt x="282" y="665" on="0"/>
        <pt x="229" y="620" on="0"/>
      </contour>
      <contour>
        <pt x="163" y="214" on="1"/>
        <pt x="163" y="153" on="0"/>
        <pt x="254" y="83" on="0"/>
        <pt x="321" y="83" on="1"/>
        <pt x="358" y="83" on="0"/>
        <pt x="426" y="105" on="0"/>
        <pt x="454" y="129" on="1"/>
        <pt x="259" y="351" on="1"/>
        <pt x="215" y="325" on="0"/>
        <pt x="163" y="258" on="0"/>
      </contour>
    </TTGlyph>
    <TTGlyph name="aogonek" xMin="61" yMin="-175" xMax="624" yMax="540">
      <contour>
        <pt x="570" y="-175" on="1"/>
        <pt x="506" y="-175" on="0"/>
        <pt x="444" y="-120" on="0"/>
        <pt x="444" y="-81" on="1"/>
        <pt x="444" y="-52" on="0"/>
        <pt x="473" y="-12" on="0"/>
        <pt x="491" y="0" on="1"/>
        <pt x="471" y="0" on="1"/>
        <pt x="471" y="79" on="1"/>
        <pt x="465" y="79" on="1"/>
        <pt x="456" y="64" on="0"/>
        <pt x="416" y="22" on="0"/>
        <pt x="349" y="-10" on="0"/>
        <pt x="299" y="-10" on="1"/>
        <pt x="239" y="-10" on="0"/>
        <pt x="150" y="37" on="0"/>
        <pt x="90" y="116" on="0"/>
        <pt x="61" y="214" on="0"/>
        <pt x="61" y="265" on="1"/>
        <pt x="61" y="316" on="0"/>
        <pt x="90" y="414" on="0"/>
        <pt x="150" y="493" on="0"/>
        <pt x="239" y="540" on="0"/>
        <pt x="299" y="540" on="1"/>
        <pt x="349" y="540" on="0"/>
        <pt x="416" y="508" on="0"/>
        <pt x="456" y="466" on="0"/>
        <pt x="465" y="451" on="1"/>
        <pt x="471" y="451" on="1"/>
        <pt x="471" y="530" on="1"/>
        <pt x="585" y="530" on="1"/>
        <pt x="585" y="0" on="1"/>
        <pt x="585" y="0" on="0"/>
        <pt x="559" y="-14" on="0"/>
        <pt x="532" y="-41" on="0"/>
        <pt x="532" y="-61" on="1"/>
        <pt x="532" y="-78" on="0"/>
        <pt x="560" y="-103" on="0"/>
        <pt x="588" y="-103" on="1"/>
        <pt x="601" y="-103" on="0"/>
        <pt x="624" y="-98" on="0"/>
        <pt x="624" y="-98" on="1"/>
        <pt x="624" y="-169" on="1"/>
        <pt x="624" y="-169" on="0"/>
        <pt x="593" y="-175" on="0"/>
      </contour>
      <contour>
        <pt x="324" y="445" on="1"/>
        <pt x="275" y="445" on="0"/>
        <pt x="209" y="392" on="0"/>
        <pt x="176" y="310" on="0"/>
        <pt x="176" y="265" on="1"/>
        <pt x="176" y="220" on="0"/>
        <pt x="209" y="138" on="0"/>
        <pt x="275" y="85" on="0"/>
        <pt x="324" y="85" on="1"/>
        <pt x="373" y="85" on="0"/>
        <pt x="438" y="138" on="0"/>
        <pt x="471" y="220" on="0"/>
        <pt x="471" y="265" on="1"/>
        <pt x="471" y="310" on="0"/>
        <pt x="438" y="392" on="0"/>
        <pt x="373" y="445" on="0"/>
      </contour>
    </TTGlyph>
    <TTGlyph name="aogonek.ss01" xMin="61" yMin="-175" xMax="555" yMax="540">
      <contour>
        <pt x="501" y="-175" on="1"/>
        <pt x="437" y="-175" on="0"/>
        <pt x="375" y="-120" on="0"/>
        <pt x="375" y="-81" on="1"/>
        <pt x="375" y="-52" on="0"/>
        <pt x="404" y="-12" on="0"/>
        <pt x="422" y="0" on="1"/>
        <pt x="403" y="0" on="1"/>
        <pt x="403" y="69" on="1"/>
        <pt x="395" y="69" on="1"/>
        <pt x="394" y="66" on="0"/>
        <pt x="375" y="42" on="0"/>
        <pt x="338" y="12" on="0"/>
        <pt x="279" y="-10" on="0"/>
        <pt x="236" y="-10" on="1"/>
        <pt x="158" y="-10" on="0"/>
        <pt x="61" y="72" on="0"/>
        <pt x="61" y="142" on="1"/>
        <pt x="61" y="195" on="0"/>
        <pt x="114" y="262" on="0"/>
        <pt x="204" y="299" on="0"/>
        <pt x="257" y="306" on="1"/>
        <pt x="403" y="328" on="1"/>
        <pt x="403" y="343" on="1"/>
        <pt x="403" y="366" on="0"/>
        <pt x="384" y="415" on="0"/>
        <pt x="338" y="449" on="0"/>
        <pt x="296" y="449" on="1"/>
        <pt x="257" y="449" on="0"/>
        <pt x="212" y="423" on="0"/>
        <pt x="190" y="390" on="0"/>
        <pt x="184" y="365" on="0"/>
        <pt x="184" y="365" on="1"/>
        <pt x="75" y="365" on="1"/>
        <pt x="75" y="365" on="0"/>
        <pt x="82" y="400" on="0"/>
        <pt x="105" y="452" on="0"/>
        <pt x="153" y="505" on="0"/>
        <pt x="234" y="540" on="0"/>
        <pt x="297" y="540" on="1"/>
        <pt x="371" y="540" on="0"/>
        <pt x="468" y="486" on="0"/>
        <pt x="516" y="396" on="0"/>
        <pt x="516" y="344" on="1"/>
        <pt x="516" y="0" on="1"/>
        <pt x="516" y="0" on="0"/>
        <pt x="490" y="-14" on="0"/>
        <pt x="463" y="-41" on="0"/>
        <pt x="463" y="-61" on="1"/>
        <pt x="463" y="-78" on="0"/>
        <pt x="491" y="-103" on="0"/>
        <pt x="519" y="-103" on="1"/>
        <pt x="532" y="-103" on="0"/>
        <pt x="555" y="-98" on="0"/>
        <pt x="555" y="-98" on="1"/>
        <pt x="555" y="-169" on="1"/>
        <pt x="555" y="-169" on="0"/>
        <pt x="524" y="-175" on="0"/>
      </contour>
      <contour>
        <pt x="172" y="149" on="1"/>
        <pt x="172" y="110" on="0"/>
        <pt x="228" y="73" on="0"/>
        <pt x="266" y="73" on="1"/>
        <pt x="325" y="73" on="0"/>
        <pt x="403" y="159" on="0"/>
        <pt x="403" y="229" on="1"/>
        <pt x="403" y="247" on="1"/>
        <pt x="272" y="227" on="1"/>
        <pt x="230" y="220" on="0"/>
        <pt x="172" y="187" on="0"/>
      </contour>
    </TTGlyph>
    <TTGlyph name="approxequal" xMin="117" yMin="161" xMax="457" yMax="513">
      <contour>
        <pt x="359" y="375" on="1"/>
        <pt x="331" y="375" on="0"/>
        <pt x="292" y="395" on="0"/>
        <pt x="262" y="420" on="0"/>
        <pt x="236" y="440" on="0"/>
        <pt x="221" y="440" on="1"/>
        <pt x="202" y="440" on="0"/>
        <pt x="187" y="408" on="0"/>
        <pt x="187" y="380" on="1"/>
        <pt x="117" y="380" on="1"/>
        <pt x="117" y="412" on="0"/>
        <pt x="134" y="473" on="0"/>
        <pt x="176" y="513" on="0"/>
        <pt x="215" y="513" on="1"/>
        <pt x="244" y="513" on="0"/>
        <pt x="284" y="493" on="0"/>
        <pt x="314" y="468" on="0"/>
        <pt x="340" y="448" on="0"/>
        <pt x="355" y="448" on="1"/>
        <pt x="371" y="448" on="0"/>
        <pt x="387" y="480" on="0"/>
        <pt x="387" y="508" on="1"/>
        <pt x="457" y="508" on="1"/>
        <pt x="457" y="477" on="0"/>
        <pt x="440" y="416" on="0"/>
        <pt x="398" y="375" on="0"/>
      </contour>
      <contour>
        <pt x="359" y="161" on="1"/>
        <pt x="331" y="161" on="0"/>
        <pt x="292" y="180" on="0"/>
        <pt x="262" y="206" on="0"/>
        <pt x="236" y="225" on="0"/>
        <pt x="221" y="225" on="1"/>
        <pt x="202" y="225" on="0"/>
        <pt x="187" y="193" on="0"/>
        <pt x="187" y="166" on="1"/>
        <pt x="117" y="166" on="1"/>
        <pt x="117" y="197" on="0"/>
        <pt x="134" y="258" on="0"/>
        <pt x="176" y="299" on="0"/>
        <pt x="215" y="299" on="1"/>
        <pt x="244" y="299" on="0"/>
        <pt x="284" y="279" on="0"/>
        <pt x="314" y="254" on="0"/>
        <pt x="340" y="234" on="0"/>
        <pt x="355" y="234" on="1"/>
        <pt x="371" y="234" on="0"/>
        <pt x="387" y="265" on="0"/>
        <pt x="387" y="293" on="1"/>
        <pt x="457" y="293" on="1"/>
        <pt x="457" y="262" on="0"/>
        <pt x="440" y="201" on="0"/>
        <pt x="398" y="161" on="0"/>
      </contour>
    </TTGlyph>
    <TTGlyph name="aring" xMin="61" yMin="-10" xMax="585" yMax="858">
      <contour>
        <pt x="329" y="597" on="1"/>
        <pt x="292" y="597" on="0"/>
        <pt x="233" y="632" on="0"/>
        <pt x="197" y="692" on="0"/>
        <pt x="197" y="728" on="1"/>
        <pt x="197" y="764" on="0"/>
        <pt x="233" y="823" on="0"/>
        <pt x="292" y="858" on="0"/>
        <pt x="329" y="858" on="1"/>
        <pt x="364" y="858" on="0"/>
        <pt x="424" y="823" on="0"/>
        <pt x="459" y="764" on="0"/>
        <pt x="459" y="728" on="1"/>
        <pt x="459" y="692" on="0"/>
        <pt x="424" y="632" on="0"/>
        <pt x="364" y="597" on="0"/>
      </contour>
      <contour>
        <pt x="329" y="670" on="1"/>
        <pt x="353" y="670" on="0"/>
        <pt x="387" y="704" on="0"/>
        <pt x="387" y="728" on="1"/>
        <pt x="387" y="752" on="0"/>
        <pt x="353" y="786" on="0"/>
        <pt x="329" y="786" on="1"/>
        <pt x="304" y="786" on="0"/>
        <pt x="270" y="752" on="0"/>
        <pt x="270" y="728" on="1"/>
        <pt x="270" y="704" on="0"/>
        <pt x="304" y="670" on="0"/>
      </contour>
      <contour>
        <pt x="299" y="540" on="1"/>
        <pt x="349" y="540" on="0"/>
        <pt x="416" y="508" on="0"/>
        <pt x="456" y="466" on="0"/>
        <pt x="465" y="451" on="1"/>
        <pt x="471" y="451" on="1"/>
        <pt x="471" y="530" on="1"/>
        <pt x="585" y="530" on="1"/>
        <pt x="585" y="0" on="1"/>
        <pt x="471" y="0" on="1"/>
        <pt x="471" y="79" on="1"/>
        <pt x="465" y="79" on="1"/>
        <pt x="456" y="64" on="0"/>
        <pt x="416" y="22" on="0"/>
        <pt x="349" y="-10" on="0"/>
        <pt x="299" y="-10" on="1"/>
        <pt x="239" y="-10" on="0"/>
        <pt x="150" y="37" on="0"/>
        <pt x="90" y="116" on="0"/>
        <pt x="61" y="214" on="0"/>
        <pt x="61" y="265" on="1"/>
        <pt x="61" y="316" on="0"/>
        <pt x="90" y="414" on="0"/>
        <pt x="150" y="493" on="0"/>
        <pt x="239" y="540" on="0"/>
      </contour>
      <contour>
        <pt x="324" y="445" on="1"/>
        <pt x="275" y="445" on="0"/>
        <pt x="209" y="392" on="0"/>
        <pt x="176" y="310" on="0"/>
        <pt x="176" y="265" on="1"/>
        <pt x="176" y="220" on="0"/>
        <pt x="209" y="138" on="0"/>
        <pt x="275" y="85" on="0"/>
        <pt x="324" y="85" on="1"/>
        <pt x="373" y="85" on="0"/>
        <pt x="438" y="138" on="0"/>
        <pt x="471" y="220" on="0"/>
        <pt x="471" y="265" on="1"/>
        <pt x="471" y="310" on="0"/>
        <pt x="438" y="392" on="0"/>
        <pt x="373" y="445" on="0"/>
      </contour>
    </TTGlyph>
    <TTGlyph name="aring.ss01" xMin="61" yMin="-10" xMax="516" yMax="858">
      <contour>
        <pt x="298" y="597" on="1"/>
        <pt x="262" y="597" on="0"/>
        <pt x="202" y="632" on="0"/>
        <pt x="167" y="692" on="0"/>
        <pt x="167" y="728" on="1"/>
        <pt x="167" y="764" on="0"/>
        <pt x="202" y="823" on="0"/>
        <pt x="262" y="858" on="0"/>
        <pt x="298" y="858" on="1"/>
        <pt x="334" y="858" on="0"/>
        <pt x="393" y="823" on="0"/>
        <pt x="429" y="764" on="0"/>
        <pt x="429" y="728" on="1"/>
        <pt x="429" y="692" on="0"/>
        <pt x="393" y="632" on="0"/>
        <pt x="334" y="597" on="0"/>
      </contour>
      <contour>
        <pt x="298" y="670" on="1"/>
        <pt x="322" y="670" on="0"/>
        <pt x="356" y="704" on="0"/>
        <pt x="356" y="728" on="1"/>
        <pt x="356" y="752" on="0"/>
        <pt x="322" y="786" on="0"/>
        <pt x="298" y="786" on="1"/>
        <pt x="274" y="786" on="0"/>
        <pt x="239" y="752" on="0"/>
        <pt x="239" y="728" on="1"/>
        <pt x="239" y="704" on="0"/>
        <pt x="274" y="670" on="0"/>
      </contour>
      <contour>
        <pt x="395" y="69" on="1"/>
        <pt x="394" y="66" on="0"/>
        <pt x="375" y="42" on="0"/>
        <pt x="338" y="12" on="0"/>
        <pt x="279" y="-10" on="0"/>
        <pt x="236" y="-10" on="1"/>
        <pt x="158" y="-10" on="0"/>
        <pt x="61" y="72" on="0"/>
        <pt x="61" y="142" on="1"/>
        <pt x="61" y="195" on="0"/>
        <pt x="114" y="262" on="0"/>
        <pt x="204" y="299" on="0"/>
        <pt x="257" y="306" on="1"/>
        <pt x="403" y="328" on="1"/>
        <pt x="403" y="343" on="1"/>
        <pt x="403" y="366" on="0"/>
        <pt x="384" y="415" on="0"/>
        <pt x="338" y="449" on="0"/>
        <pt x="296" y="449" on="1"/>
        <pt x="257" y="449" on="0"/>
        <pt x="212" y="423" on="0"/>
        <pt x="190" y="390" on="0"/>
        <pt x="184" y="365" on="0"/>
        <pt x="184" y="365" on="1"/>
        <pt x="75" y="365" on="1"/>
        <pt x="75" y="365" on="0"/>
        <pt x="82" y="400" on="0"/>
        <pt x="105" y="452" on="0"/>
        <pt x="153" y="505" on="0"/>
        <pt x="234" y="540" on="0"/>
        <pt x="297" y="540" on="1"/>
        <pt x="371" y="540" on="0"/>
        <pt x="468" y="486" on="0"/>
        <pt x="516" y="396" on="0"/>
        <pt x="516" y="344" on="1"/>
        <pt x="516" y="0" on="1"/>
        <pt x="403" y="0" on="1"/>
        <pt x="403" y="69" on="1"/>
      </contour>
      <contour>
        <pt x="172" y="149" on="1"/>
        <pt x="172" y="110" on="0"/>
        <pt x="228" y="73" on="0"/>
        <pt x="266" y="73" on="1"/>
        <pt x="325" y="73" on="0"/>
        <pt x="403" y="159" on="0"/>
        <pt x="403" y="229" on="1"/>
        <pt x="403" y="247" on="1"/>
        <pt x="272" y="227" on="1"/>
        <pt x="230" y="220" on="0"/>
        <pt x="172" y="187" on="0"/>
      </contour>
    </TTGlyph>
    <TTGlyph name="asciicircum" xMin="117" yMin="569" xMax="459" yMax="740">
      <contour>
        <pt x="117" y="569" on="1"/>
        <pt x="241" y="740" on="1"/>
        <pt x="335" y="740" on="1"/>
        <pt x="459" y="569" on="1"/>
        <pt x="362" y="569" on="1"/>
        <pt x="288" y="675" on="1"/>
        <pt x="214" y="569" on="1"/>
      </contour>
    </TTGlyph>
    <TTGlyph name="asciitilde" xMin="68" yMin="317" xMax="407" yMax="455">
      <contour>
        <pt x="309" y="317" on="1"/>
        <pt x="281" y="317" on="0"/>
        <pt x="242" y="336" on="0"/>
        <pt x="213" y="362" on="0"/>
        <pt x="186" y="381" on="0"/>
        <pt x="171" y="381" on="1"/>
        <pt x="153" y="381" on="0"/>
        <pt x="138" y="349" on="0"/>
        <pt x="138" y="322" on="1"/>
        <pt x="68" y="322" on="1"/>
        <pt x="68" y="353" on="0"/>
        <pt x="84" y="414" on="0"/>
        <pt x="127" y="455" on="0"/>
        <pt x="166" y="455" on="1"/>
        <pt x="194" y="455" on="0"/>
        <pt x="234" y="435" on="0"/>
        <pt x="265" y="410" on="0"/>
        <pt x="291" y="390" on="0"/>
        <pt x="305" y="390" on="1"/>
        <pt x="322" y="390" on="0"/>
        <pt x="338" y="421" on="0"/>
        <pt x="338" y="449" on="1"/>
        <pt x="407" y="449" on="1"/>
        <pt x="407" y="418" on="0"/>
        <pt x="391" y="357" on="0"/>
        <pt x="349" y="317" on="0"/>
      </contour>
    </TTGlyph>
    <TTGlyph name="asterisk" xMin="40" yMin="339" xMax="462" yMax="740">
      <contour>
        <pt x="164" y="339" on="1"/>
        <pt x="94" y="389" on="1"/>
        <pt x="185" y="510" on="1"/>
        <pt x="40" y="555" on="1"/>
        <pt x="66" y="638" on="1"/>
        <pt x="210" y="589" on="1"/>
        <pt x="207" y="740" on="1"/>
        <pt x="294" y="740" on="1"/>
        <pt x="292" y="589" on="1"/>
        <pt x="436" y="638" on="1"/>
        <pt x="462" y="555" on="1"/>
        <pt x="318" y="510" on="1"/>
        <pt x="409" y="389" on="1"/>
        <pt x="338" y="339" on="1"/>
        <pt x="251" y="461" on="1"/>
      </contour>
    </TTGlyph>
    <TTGlyph name="at" xMin="50" yMin="-148" xMax="959" yMax="752">
      <contour>
        <pt x="518" y="-148" on="1"/>
        <pt x="400" y="-148" on="0"/>
        <pt x="224" y="-73" on="0"/>
        <pt x="108" y="55" on="0"/>
        <pt x="50" y="215" on="0"/>
        <pt x="50" y="298" on="1"/>
        <pt x="50" y="383" on="0"/>
        <pt x="108" y="545" on="0"/>
        <pt x="224" y="675" on="0"/>
        <pt x="395" y="752" on="0"/>
        <pt x="509" y="752" on="1"/>
        <pt x="598" y="752" on="0"/>
        <pt x="760" y="695" on="0"/>
        <pt x="886" y="586" on="0"/>
        <pt x="959" y="426" on="0"/>
        <pt x="959" y="324" on="1"/>
        <pt x="959" y="254" on="0"/>
        <pt x="918" y="141" on="0"/>
        <pt x="835" y="75" on="0"/>
        <pt x="775" y="75" on="1"/>
        <pt x="713" y="75" on="0"/>
        <pt x="638" y="131" on="0"/>
        <pt x="625" y="165" on="1"/>
        <pt x="618" y="165" on="1"/>
        <pt x="614" y="154" on="0"/>
        <pt x="580" y="111" on="0"/>
        <pt x="516" y="75" on="0"/>
        <pt x="467" y="75" on="1"/>
        <pt x="403" y="75" on="0"/>
        <pt x="320" y="140" on="0"/>
        <pt x="278" y="242" on="0"/>
        <pt x="278" y="297" on="1"/>
        <pt x="278" y="351" on="0"/>
        <pt x="319" y="451" on="0"/>
        <pt x="402" y="515" on="0"/>
        <pt x="464" y="515" on="1"/>
        <pt x="517" y="515" on="0"/>
        <pt x="582" y="472" on="0"/>
        <pt x="597" y="450" on="1"/>
        <pt x="602" y="450" on="1"/>
        <pt x="602" y="507" on="1"/>
        <pt x="705" y="507" on="1"/>
        <pt x="705" y="321" on="1"/>
        <pt x="705" y="302" on="0"/>
        <pt x="709" y="248" on="0"/>
        <pt x="723" y="196" on="0"/>
        <pt x="754" y="161" on="0"/>
        <pt x="781" y="161" on="1"/>
        <pt x="822" y="161" on="0"/>
        <pt x="862" y="243" on="0"/>
        <pt x="862" y="320" on="1"/>
        <pt x="862" y="405" on="0"/>
        <pt x="804" y="533" on="0"/>
        <pt x="705" y="619" on="0"/>
        <pt x="578" y="662" on="0"/>
        <pt x="509" y="662" on="1"/>
        <pt x="420" y="662" on="0"/>
        <pt x="286" y="601" on="0"/>
        <pt x="196" y="497" on="0"/>
        <pt x="150" y="368" on="0"/>
        <pt x="150" y="300" on="1"/>
        <pt x="150" y="233" on="0"/>
        <pt x="195" y="106" on="0"/>
        <pt x="286" y="4" on="0"/>
        <pt x="424" y="-57" on="0"/>
        <pt x="516" y="-57" on="1"/>
        <pt x="585" y="-57" on="0"/>
        <pt x="691" y="-29" on="0"/>
        <pt x="751" y="-2" on="0"/>
        <pt x="751" y="-2" on="1"/>
        <pt x="786" y="-86" on="1"/>
        <pt x="786" y="-86" on="0"/>
        <pt x="723" y="-117" on="0"/>
        <pt x="603" y="-148" on="0"/>
      </contour>
      <contour>
        <pt x="490" y="161" on="1"/>
        <pt x="527" y="161" on="0"/>
        <pt x="574" y="200" on="0"/>
        <pt x="598" y="262" on="0"/>
        <pt x="598" y="295" on="1"/>
        <pt x="598" y="328" on="0"/>
        <pt x="574" y="389" on="0"/>
        <pt x="527" y="429" on="0"/>
        <pt x="490" y="429" on="1"/>
        <pt x="455" y="429" on="0"/>
        <pt x="407" y="390" on="0"/>
        <pt x="383" y="329" on="0"/>
        <pt x="383" y="295" on="1"/>
        <pt x="383" y="262" on="0"/>
        <pt x="407" y="200" on="0"/>
        <pt x="455" y="161" on="0"/>
      </contour>
    </TTGlyph>
    <TTGlyph name="atilde" xMin="61" yMin="-10" xMax="585" yMax="757">
      <contour>
        <pt x="399" y="616" on="1"/>
        <pt x="372" y="616" on="0"/>
        <pt x="334" y="636" on="0"/>
        <pt x="306" y="661" on="0"/>
        <pt x="282" y="681" on="0"/>
        <pt x="268" y="681" on="1"/>
        <pt x="251" y="681" on="0"/>
        <pt x="237" y="649" on="0"/>
        <pt x="237" y="622" on="1"/>
        <pt x="167" y="622" on="1"/>
        <pt x="167" y="654" on="0"/>
        <pt x="183" y="716" on="0"/>
        <pt x="223" y="757" on="0"/>
        <pt x="261" y="757" on="1"/>
        <pt x="288" y="757" on="0"/>
        <pt x="326" y="738" on="0"/>
        <pt x="354" y="712" on="0"/>
        <pt x="378" y="693" on="0"/>
        <pt x="392" y="693" on="1"/>
        <pt x="407" y="693" on="0"/>
        <pt x="422" y="724" on="0"/>
        <pt x="422" y="752" on="1"/>
        <pt x="491" y="752" on="1"/>
        <pt x="491" y="720" on="0"/>
        <pt x="476" y="657" on="0"/>
        <pt x="436" y="616" on="0"/>
      </contour>
      <contour>
        <pt x="299" y="540" on="1"/>
        <pt x="349" y="540" on="0"/>
        <pt x="416" y="508" on="0"/>
        <pt x="456" y="466" on="0"/>
        <pt x="465" y="451" on="1"/>
        <pt x="471" y="451" on="1"/>
        <pt x="471" y="530" on="1"/>
        <pt x="585" y="530" on="1"/>
        <pt x="585" y="0" on="1"/>
        <pt x="471" y="0" on="1"/>
        <pt x="471" y="79" on="1"/>
        <pt x="465" y="79" on="1"/>
        <pt x="456" y="64" on="0"/>
        <pt x="416" y="22" on="0"/>
        <pt x="349" y="-10" on="0"/>
        <pt x="299" y="-10" on="1"/>
        <pt x="239" y="-10" on="0"/>
        <pt x="150" y="37" on="0"/>
        <pt x="90" y="116" on="0"/>
        <pt x="61" y="214" on="0"/>
        <pt x="61" y="265" on="1"/>
        <pt x="61" y="316" on="0"/>
        <pt x="90" y="414" on="0"/>
        <pt x="150" y="493" on="0"/>
        <pt x="239" y="540" on="0"/>
      </contour>
      <contour>
        <pt x="324" y="445" on="1"/>
        <pt x="275" y="445" on="0"/>
        <pt x="209" y="392" on="0"/>
        <pt x="176" y="310" on="0"/>
        <pt x="176" y="265" on="1"/>
        <pt x="176" y="220" on="0"/>
        <pt x="209" y="138" on="0"/>
        <pt x="275" y="85" on="0"/>
        <pt x="324" y="85" on="1"/>
        <pt x="373" y="85" on="0"/>
        <pt x="438" y="138" on="0"/>
        <pt x="471" y="220" on="0"/>
        <pt x="471" y="265" on="1"/>
        <pt x="471" y="310" on="0"/>
        <pt x="438" y="392" on="0"/>
        <pt x="373" y="445" on="0"/>
      </contour>
    </TTGlyph>
    <TTGlyph name="atilde.ss01" xMin="61" yMin="-10" xMax="516" yMax="757">
      <contour>
        <pt x="368" y="616" on="1"/>
        <pt x="341" y="616" on="0"/>
        <pt x="303" y="636" on="0"/>
        <pt x="276" y="661" on="0"/>
        <pt x="251" y="681" on="0"/>
        <pt x="237" y="681" on="1"/>
        <pt x="221" y="681" on="0"/>
        <pt x="207" y="649" on="0"/>
        <pt x="207" y="622" on="1"/>
        <pt x="137" y="622" on="1"/>
        <pt x="137" y="654" on="0"/>
        <pt x="152" y="716" on="0"/>
        <pt x="193" y="757" on="0"/>
        <pt x="230" y="757" on="1"/>
        <pt x="258" y="757" on="0"/>
        <pt x="296" y="738" on="0"/>
        <pt x="324" y="712" on="0"/>
        <pt x="348" y="693" on="0"/>
        <pt x="361" y="693" on="1"/>
        <pt x="377" y="693" on="0"/>
        <pt x="391" y="724" on="0"/>
        <pt x="391" y="752" on="1"/>
        <pt x="461" y="752" on="1"/>
        <pt x="461" y="720" on="0"/>
        <pt x="446" y="657" on="0"/>
        <pt x="405" y="616" on="0"/>
      </contour>
      <contour>
        <pt x="395" y="69" on="1"/>
        <pt x="394" y="66" on="0"/>
        <pt x="375" y="42" on="0"/>
        <pt x="338" y="12" on="0"/>
        <pt x="279" y="-10" on="0"/>
        <pt x="236" y="-10" on="1"/>
        <pt x="158" y="-10" on="0"/>
        <pt x="61" y="72" on="0"/>
        <pt x="61" y="142" on="1"/>
        <pt x="61" y="195" on="0"/>
        <pt x="114" y="262" on="0"/>
        <pt x="204" y="299" on="0"/>
        <pt x="257" y="306" on="1"/>
        <pt x="403" y="328" on="1"/>
        <pt x="403" y="343" on="1"/>
        <pt x="403" y="366" on="0"/>
        <pt x="384" y="415" on="0"/>
        <pt x="338" y="449" on="0"/>
        <pt x="296" y="449" on="1"/>
        <pt x="257" y="449" on="0"/>
        <pt x="212" y="423" on="0"/>
        <pt x="190" y="390" on="0"/>
        <pt x="184" y="365" on="0"/>
        <pt x="184" y="365" on="1"/>
        <pt x="75" y="365" on="1"/>
        <pt x="75" y="365" on="0"/>
        <pt x="82" y="400" on="0"/>
        <pt x="105" y="452" on="0"/>
        <pt x="153" y="505" on="0"/>
        <pt x="234" y="540" on="0"/>
        <pt x="297" y="540" on="1"/>
        <pt x="371" y="540" on="0"/>
        <pt x="468" y="486" on="0"/>
        <pt x="516" y="396" on="0"/>
        <pt x="516" y="344" on="1"/>
        <pt x="516" y="0" on="1"/>
        <pt x="403" y="0" on="1"/>
        <pt x="403" y="69" on="1"/>
      </contour>
      <contour>
        <pt x="172" y="149" on="1"/>
        <pt x="172" y="110" on="0"/>
        <pt x="228" y="73" on="0"/>
        <pt x="266" y="73" on="1"/>
        <pt x="325" y="73" on="0"/>
        <pt x="403" y="159" on="0"/>
        <pt x="403" y="229" on="1"/>
        <pt x="403" y="247" on="1"/>
        <pt x="272" y="227" on="1"/>
        <pt x="230" y="220" on="0"/>
        <pt x="172" y="187" on="0"/>
      </contour>
    </TTGlyph>
    <TTGlyph name="b" xMin="76" yMin="-10" xMax="600" yMax="760">
      <contour>
        <pt x="363" y="-10" on="1"/>
        <pt x="312" y="-10" on="0"/>
        <pt x="245" y="22" on="0"/>
        <pt x="206" y="64" on="0"/>
        <pt x="196" y="79" on="1"/>
        <pt x="190" y="79" on="1"/>
        <pt x="190" y="0" on="1"/>
        <pt x="76" y="0" on="1"/>
        <pt x="76" y="760" on="1"/>
        <pt x="190" y="760" on="1"/>
        <pt x="190" y="451" on="1"/>
        <pt x="196" y="451" on="1"/>
        <pt x="206" y="466" on="0"/>
        <pt x="245" y="508" on="0"/>
        <pt x="312" y="540" on="0"/>
        <pt x="363" y="540" on="1"/>
        <pt x="422" y="540" on="0"/>
        <pt x="512" y="493" on="0"/>
        <pt x="571" y="414" on="0"/>
        <pt x="600" y="316" on="0"/>
        <pt x="600" y="265" on="1"/>
        <pt x="600" y="214" on="0"/>
        <pt x="571" y="116" on="0"/>
        <pt x="512" y="37" on="0"/>
        <pt x="422" y="-10" on="0"/>
      </contour>
      <contour>
        <pt x="337" y="85" on="1"/>
        <pt x="387" y="85" on="0"/>
        <pt x="452" y="138" on="0"/>
        <pt x="485" y="220" on="0"/>
        <pt x="485" y="265" on="1"/>
        <pt x="485" y="310" on="0"/>
        <pt x="452" y="392" on="0"/>
        <pt x="387" y="445" on="0"/>
        <pt x="337" y="445" on="1"/>
        <pt x="288" y="445" on="0"/>
        <pt x="223" y="392" on="0"/>
        <pt x="190" y="310" on="0"/>
        <pt x="190" y="265" on="1"/>
        <pt x="190" y="220" on="0"/>
        <pt x="223" y="138" on="0"/>
        <pt x="288" y="85" on="0"/>
      </contour>
    </TTGlyph>
    <TTGlyph name="backslash" xMin="9" yMin="-161" xMax="462" yMax="826">
      <contour>
        <pt x="462" y="-161" on="1"/>
        <pt x="356" y="-161" on="1"/>
        <pt x="9" y="826" on="1"/>
        <pt x="115" y="826" on="1"/>
      </contour>
    </TTGlyph>
    <TTGlyph name="bar" xMin="158" yMin="-229" xMax="259" yMax="952">
      <contour>
        <pt x="158" y="-229" on="1"/>
        <pt x="158" y="952" on="1"/>
        <pt x="259" y="952" on="1"/>
        <pt x="259" y="-229" on="1"/>
      </contour>
    </TTGlyph>
    <TTGlyph name="braceleft" xMin="22" yMin="-204" xMax="404" yMax="841">
      <contour>
        <pt x="298" y="-204" on="1"/>
        <pt x="216" y="-204" on="0"/>
        <pt x="128" y="-117" on="0"/>
        <pt x="128" y="-35" on="1"/>
        <pt x="128" y="205" on="1"/>
        <pt x="128" y="270" on="0"/>
        <pt x="63" y="270" on="1"/>
        <pt x="22" y="270" on="1"/>
        <pt x="22" y="367" on="1"/>
        <pt x="63" y="367" on="1"/>
        <pt x="128" y="367" on="0"/>
        <pt x="128" y="432" on="1"/>
        <pt x="128" y="672" on="1"/>
        <pt x="128" y="754" on="0"/>
        <pt x="216" y="841" on="0"/>
        <pt x="298" y="841" on="1"/>
        <pt x="404" y="841" on="1"/>
        <pt x="404" y="742" on="1"/>
        <pt x="309" y="742" on="1"/>
        <pt x="244" y="742" on="0"/>
        <pt x="244" y="677" on="1"/>
        <pt x="244" y="434" on="1"/>
        <pt x="244" y="388" on="0"/>
        <pt x="216" y="336" on="0"/>
        <pt x="174" y="321" on="1"/>
        <pt x="174" y="316" on="1"/>
        <pt x="216" y="302" on="0"/>
        <pt x="244" y="247" on="0"/>
        <pt x="244" y="203" on="1"/>
        <pt x="244" y="-40" on="1"/>
        <pt x="244" y="-105" on="0"/>
        <pt x="309" y="-105" on="1"/>
        <pt x="404" y="-105" on="1"/>
        <pt x="404" y="-204" on="1"/>
      </contour>
    </TTGlyph>
    <TTGlyph name="braceleft.case" xMin="22" yMin="-182" xMax="404" yMax="863">
      <contour>
        <pt x="298" y="-182" on="1"/>
        <pt x="216" y="-182" on="0"/>
        <pt x="128" y="-95" on="0"/>
        <pt x="128" y="-13" on="1"/>
        <pt x="128" y="227" on="1"/>
        <pt x="128" y="292" on="0"/>
        <pt x="63" y="292" on="1"/>
        <pt x="22" y="292" on="1"/>
        <pt x="22" y="389" on="1"/>
        <pt x="63" y="389" on="1"/>
        <pt x="128" y="389" on="0"/>
        <pt x="128" y="454" on="1"/>
        <pt x="128" y="694" on="1"/>
        <pt x="128" y="776" on="0"/>
        <pt x="216" y="863" on="0"/>
        <pt x="298" y="863" on="1"/>
        <pt x="404" y="863" on="1"/>
        <pt x="404" y="764" on="1"/>
        <pt x="309" y="764" on="1"/>
        <pt x="244" y="764" on="0"/>
        <pt x="244" y="699" on="1"/>
        <pt x="244" y="456" on="1"/>
        <pt x="244" y="410" on="0"/>
        <pt x="216" y="358" on="0"/>
        <pt x="174" y="343" on="1"/>
        <pt x="174" y="338" on="1"/>
        <pt x="216" y="324" on="0"/>
        <pt x="244" y="269" on="0"/>
        <pt x="244" y="225" on="1"/>
        <pt x="244" y="-18" on="1"/>
        <pt x="244" y="-83" on="0"/>
        <pt x="309" y="-83" on="1"/>
        <pt x="404" y="-83" on="1"/>
        <pt x="404" y="-182" on="1"/>
      </contour>
    </TTGlyph>
</ttFont>
